%TF.GenerationSoftware,KiCad,Pcbnew,9.0.7*%
%TF.CreationDate,2026-01-24T01:10:00+08:00*%
%TF.ProjectId,zero star-rounded,7a65726f-2073-4746-9172-2d726f756e64,rev?*%
%TF.SameCoordinates,Original*%
%TF.FileFunction,Copper,L2,Inr*%
%TF.FilePolarity,Positive*%
%FSLAX46Y46*%
G04 Gerber Fmt 4.6, Leading zero omitted, Abs format (unit mm)*
G04 Created by KiCad (PCBNEW 9.0.7) date 2026-01-24 01:10:00*
%MOMM*%
%LPD*%
G01*
G04 APERTURE LIST*
%TA.AperFunction,ComponentPad*%
%ADD10C,5.600000*%
%TD*%
%TA.AperFunction,HeatsinkPad*%
%ADD11O,1.000000X1.600000*%
%TD*%
%TA.AperFunction,HeatsinkPad*%
%ADD12O,1.000000X2.100000*%
%TD*%
G04 APERTURE END LIST*
D10*
%TO.N,N/C*%
%TO.C,REF\u002A\u002A*%
X176750000Y-102250000D03*
%TD*%
%TO.N,N/C*%
%TO.C,REF\u002A\u002A*%
X176750000Y-71750000D03*
%TD*%
%TO.N,N/C*%
%TO.C,REF\u002A\u002A*%
X207250000Y-71750000D03*
%TD*%
%TO.N,N/C*%
%TO.C,REF\u002A\u002A*%
X207250000Y-102250000D03*
%TD*%
D11*
%TO.N,GND*%
%TO.C,J1*%
X196320000Y-102900000D03*
D12*
X196320000Y-98720000D03*
D11*
X187680000Y-102900000D03*
D12*
X187680000Y-98720000D03*
%TD*%
%TA.AperFunction,Conductor*%
%TO.N,USB_DETECT*%
G36*
X209002642Y-68500688D02*
G01*
X209208118Y-68515385D01*
X209218567Y-68516887D01*
X209274033Y-68528952D01*
X209417296Y-68560117D01*
X209427406Y-68563085D01*
X209617965Y-68634161D01*
X209627556Y-68638541D01*
X209747496Y-68704033D01*
X209806041Y-68736001D01*
X209814924Y-68741709D01*
X209975915Y-68862226D01*
X209977727Y-68863582D01*
X209985706Y-68870496D01*
X210129503Y-69014293D01*
X210136417Y-69022272D01*
X210258290Y-69185075D01*
X210263998Y-69193958D01*
X210361456Y-69372439D01*
X210365841Y-69382040D01*
X210413261Y-69509178D01*
X210436909Y-69572578D01*
X210439884Y-69582710D01*
X210483112Y-69781432D01*
X210484614Y-69791881D01*
X210499311Y-69997356D01*
X210499500Y-70002636D01*
X210499500Y-103997363D01*
X210499311Y-104002643D01*
X210484614Y-104208118D01*
X210483112Y-104218567D01*
X210439884Y-104417289D01*
X210436909Y-104427421D01*
X210365842Y-104617957D01*
X210361456Y-104627560D01*
X210263998Y-104806041D01*
X210258290Y-104814924D01*
X210136417Y-104977727D01*
X210129503Y-104985706D01*
X209985706Y-105129503D01*
X209977727Y-105136417D01*
X209814924Y-105258290D01*
X209806041Y-105263998D01*
X209627560Y-105361456D01*
X209617957Y-105365842D01*
X209427421Y-105436909D01*
X209417289Y-105439884D01*
X209218567Y-105483112D01*
X209208118Y-105484614D01*
X209025297Y-105497690D01*
X209002641Y-105499311D01*
X208997364Y-105499500D01*
X175002636Y-105499500D01*
X174997358Y-105499311D01*
X174972878Y-105497560D01*
X174791881Y-105484614D01*
X174781432Y-105483112D01*
X174582710Y-105439884D01*
X174572584Y-105436910D01*
X174382040Y-105365841D01*
X174372439Y-105361456D01*
X174193958Y-105263998D01*
X174185075Y-105258290D01*
X174022272Y-105136417D01*
X174014293Y-105129503D01*
X173870496Y-104985706D01*
X173863582Y-104977727D01*
X173741709Y-104814924D01*
X173736001Y-104806041D01*
X173638543Y-104627560D01*
X173634161Y-104617965D01*
X173563085Y-104427406D01*
X173560117Y-104417296D01*
X173516887Y-104218567D01*
X173515385Y-104208117D01*
X173500689Y-104002642D01*
X173500500Y-103997363D01*
X173500500Y-102081499D01*
X173749500Y-102081499D01*
X173749500Y-102418500D01*
X173787233Y-102753397D01*
X173787234Y-102753398D01*
X173862221Y-103081945D01*
X173862226Y-103081961D01*
X173973530Y-103400050D01*
X174119751Y-103703681D01*
X174119753Y-103703685D01*
X174119754Y-103703686D01*
X174299054Y-103989039D01*
X174509175Y-104252523D01*
X174747477Y-104490825D01*
X175010961Y-104700946D01*
X175296314Y-104880246D01*
X175599949Y-105026469D01*
X175918046Y-105137776D01*
X175918051Y-105137777D01*
X175918054Y-105137778D01*
X175973424Y-105150415D01*
X176246606Y-105212767D01*
X176581496Y-105250500D01*
X176581500Y-105250500D01*
X176918500Y-105250500D01*
X176918504Y-105250500D01*
X177253394Y-105212767D01*
X177581954Y-105137776D01*
X177900051Y-105026469D01*
X178203686Y-104880246D01*
X178489039Y-104700946D01*
X178752523Y-104490825D01*
X178990825Y-104252523D01*
X179200946Y-103989039D01*
X179380246Y-103703686D01*
X179526469Y-103400051D01*
X179637776Y-103081954D01*
X179712767Y-102753394D01*
X179737824Y-102531008D01*
X186979500Y-102531008D01*
X186979500Y-103268991D01*
X187006418Y-103404322D01*
X187006421Y-103404332D01*
X187059223Y-103531808D01*
X187059224Y-103531810D01*
X187059225Y-103531811D01*
X187135886Y-103646542D01*
X187233458Y-103744114D01*
X187348189Y-103820775D01*
X187475672Y-103873580D01*
X187611007Y-103900500D01*
X187611009Y-103900500D01*
X187748991Y-103900500D01*
X187748993Y-103900500D01*
X187884328Y-103873580D01*
X188011811Y-103820775D01*
X188126542Y-103744114D01*
X188224114Y-103646542D01*
X188300775Y-103531811D01*
X188353580Y-103404328D01*
X188380500Y-103268993D01*
X188380500Y-102531008D01*
X195619500Y-102531008D01*
X195619500Y-103268991D01*
X195646418Y-103404322D01*
X195646421Y-103404332D01*
X195699223Y-103531808D01*
X195699224Y-103531810D01*
X195699225Y-103531811D01*
X195775886Y-103646542D01*
X195873458Y-103744114D01*
X195988189Y-103820775D01*
X196115672Y-103873580D01*
X196251007Y-103900500D01*
X196251009Y-103900500D01*
X196388991Y-103900500D01*
X196388993Y-103900500D01*
X196524328Y-103873580D01*
X196651811Y-103820775D01*
X196766542Y-103744114D01*
X196864114Y-103646542D01*
X196940775Y-103531811D01*
X196993580Y-103404328D01*
X197020500Y-103268993D01*
X197020500Y-102531007D01*
X196993580Y-102395672D01*
X196940775Y-102268189D01*
X196864114Y-102153458D01*
X196792155Y-102081499D01*
X204249500Y-102081499D01*
X204249500Y-102418500D01*
X204287233Y-102753397D01*
X204287234Y-102753398D01*
X204362221Y-103081945D01*
X204362226Y-103081961D01*
X204473530Y-103400050D01*
X204619751Y-103703681D01*
X204619753Y-103703685D01*
X204619754Y-103703686D01*
X204799054Y-103989039D01*
X205009175Y-104252523D01*
X205247477Y-104490825D01*
X205510961Y-104700946D01*
X205796314Y-104880246D01*
X206099949Y-105026469D01*
X206418046Y-105137776D01*
X206418051Y-105137777D01*
X206418054Y-105137778D01*
X206473424Y-105150415D01*
X206746606Y-105212767D01*
X207081496Y-105250500D01*
X207081500Y-105250500D01*
X207418500Y-105250500D01*
X207418504Y-105250500D01*
X207753394Y-105212767D01*
X208081954Y-105137776D01*
X208400051Y-105026469D01*
X208703686Y-104880246D01*
X208989039Y-104700946D01*
X209252523Y-104490825D01*
X209490825Y-104252523D01*
X209700946Y-103989039D01*
X209880246Y-103703686D01*
X210026469Y-103400051D01*
X210137776Y-103081954D01*
X210212767Y-102753394D01*
X210250500Y-102418504D01*
X210250500Y-102081496D01*
X210212767Y-101746606D01*
X210137776Y-101418046D01*
X210026469Y-101099949D01*
X209880246Y-100796314D01*
X209700946Y-100510961D01*
X209490825Y-100247477D01*
X209252523Y-100009175D01*
X208989039Y-99799054D01*
X208703686Y-99619754D01*
X208703685Y-99619753D01*
X208703681Y-99619751D01*
X208400050Y-99473530D01*
X208081961Y-99362226D01*
X208081945Y-99362221D01*
X207753398Y-99287234D01*
X207753397Y-99287233D01*
X207609869Y-99271061D01*
X207418504Y-99249500D01*
X207081496Y-99249500D01*
X206914051Y-99268366D01*
X206746602Y-99287233D01*
X206746601Y-99287234D01*
X206418054Y-99362221D01*
X206418038Y-99362226D01*
X206099949Y-99473530D01*
X205796318Y-99619751D01*
X205510960Y-99799054D01*
X205247473Y-100009178D01*
X205009178Y-100247473D01*
X204799054Y-100510960D01*
X204619751Y-100796318D01*
X204473530Y-101099949D01*
X204362226Y-101418038D01*
X204362221Y-101418054D01*
X204287234Y-101746601D01*
X204287233Y-101746602D01*
X204249500Y-102081499D01*
X196792155Y-102081499D01*
X196766542Y-102055886D01*
X196651811Y-101979225D01*
X196651810Y-101979224D01*
X196651808Y-101979223D01*
X196524332Y-101926421D01*
X196524322Y-101926418D01*
X196433694Y-101908391D01*
X196388993Y-101899500D01*
X196251007Y-101899500D01*
X196212642Y-101907131D01*
X196115677Y-101926418D01*
X196115667Y-101926421D01*
X195988191Y-101979223D01*
X195873461Y-102055883D01*
X195775883Y-102153461D01*
X195699223Y-102268191D01*
X195646421Y-102395667D01*
X195646418Y-102395677D01*
X195619500Y-102531008D01*
X188380500Y-102531008D01*
X188380500Y-102531007D01*
X188353580Y-102395672D01*
X188300775Y-102268189D01*
X188224114Y-102153458D01*
X188126542Y-102055886D01*
X188011811Y-101979225D01*
X188011810Y-101979224D01*
X188011808Y-101979223D01*
X187884332Y-101926421D01*
X187884322Y-101926418D01*
X187793694Y-101908391D01*
X187748993Y-101899500D01*
X187611007Y-101899500D01*
X187572642Y-101907131D01*
X187475677Y-101926418D01*
X187475667Y-101926421D01*
X187348191Y-101979223D01*
X187233461Y-102055883D01*
X187135883Y-102153461D01*
X187059223Y-102268191D01*
X187006421Y-102395667D01*
X187006418Y-102395677D01*
X186979500Y-102531008D01*
X179737824Y-102531008D01*
X179750500Y-102418504D01*
X179750500Y-102081496D01*
X179712767Y-101746606D01*
X179637776Y-101418046D01*
X179526469Y-101099949D01*
X179380246Y-100796314D01*
X179200946Y-100510961D01*
X178990825Y-100247477D01*
X178752523Y-100009175D01*
X178489039Y-99799054D01*
X178203686Y-99619754D01*
X178203685Y-99619753D01*
X178203681Y-99619751D01*
X177900050Y-99473530D01*
X177581961Y-99362226D01*
X177581945Y-99362221D01*
X177253398Y-99287234D01*
X177253397Y-99287233D01*
X177109869Y-99271061D01*
X176918504Y-99249500D01*
X176581496Y-99249500D01*
X176414051Y-99268366D01*
X176246602Y-99287233D01*
X176246601Y-99287234D01*
X175918054Y-99362221D01*
X175918038Y-99362226D01*
X175599949Y-99473530D01*
X175296318Y-99619751D01*
X175010960Y-99799054D01*
X174747473Y-100009178D01*
X174509178Y-100247473D01*
X174299054Y-100510960D01*
X174119751Y-100796318D01*
X173973530Y-101099949D01*
X173862226Y-101418038D01*
X173862221Y-101418054D01*
X173787234Y-101746601D01*
X173787233Y-101746602D01*
X173749500Y-102081499D01*
X173500500Y-102081499D01*
X173500500Y-98101007D01*
X186979500Y-98101007D01*
X186979500Y-99338993D01*
X186988391Y-99383694D01*
X187006418Y-99474322D01*
X187006420Y-99474327D01*
X187059223Y-99601808D01*
X187131859Y-99710516D01*
X187135886Y-99716542D01*
X187233458Y-99814114D01*
X187348189Y-99890775D01*
X187475672Y-99943580D01*
X187611007Y-99970500D01*
X187611009Y-99970500D01*
X187748991Y-99970500D01*
X187748993Y-99970500D01*
X187884328Y-99943580D01*
X188011811Y-99890775D01*
X188126542Y-99814114D01*
X188224114Y-99716542D01*
X188300775Y-99601811D01*
X188353580Y-99474328D01*
X188380500Y-99338993D01*
X188380500Y-99174231D01*
X188534500Y-99174231D01*
X188534500Y-99325768D01*
X188573717Y-99472130D01*
X188573721Y-99472139D01*
X188574985Y-99474328D01*
X188649485Y-99603365D01*
X188756635Y-99710515D01*
X188887865Y-99786281D01*
X189034231Y-99825499D01*
X189034232Y-99825500D01*
X189034234Y-99825500D01*
X189185768Y-99825500D01*
X189185768Y-99825499D01*
X189332135Y-99786281D01*
X189463365Y-99710515D01*
X189570515Y-99603365D01*
X189646281Y-99472135D01*
X189685499Y-99325768D01*
X189685500Y-99325768D01*
X189685500Y-99174232D01*
X189685499Y-99174231D01*
X194314500Y-99174231D01*
X194314500Y-99325768D01*
X194353717Y-99472130D01*
X194353721Y-99472139D01*
X194354985Y-99474328D01*
X194429485Y-99603365D01*
X194536635Y-99710515D01*
X194667865Y-99786281D01*
X194814231Y-99825499D01*
X194814232Y-99825500D01*
X194814234Y-99825500D01*
X194965768Y-99825500D01*
X194965768Y-99825499D01*
X195112135Y-99786281D01*
X195243365Y-99710515D01*
X195350515Y-99603365D01*
X195426281Y-99472135D01*
X195465499Y-99325768D01*
X195465500Y-99325768D01*
X195465500Y-99174232D01*
X195465499Y-99174231D01*
X195426282Y-99027869D01*
X195426281Y-99027865D01*
X195350515Y-98896635D01*
X195243365Y-98789485D01*
X195243362Y-98789483D01*
X195112139Y-98713721D01*
X195112130Y-98713717D01*
X194965768Y-98674500D01*
X194965766Y-98674500D01*
X194814234Y-98674500D01*
X194814232Y-98674500D01*
X194667869Y-98713717D01*
X194667860Y-98713721D01*
X194536637Y-98789483D01*
X194429483Y-98896637D01*
X194353721Y-99027860D01*
X194353717Y-99027869D01*
X194314500Y-99174231D01*
X189685499Y-99174231D01*
X189646282Y-99027869D01*
X189646281Y-99027865D01*
X189570515Y-98896635D01*
X189463365Y-98789485D01*
X189463362Y-98789483D01*
X189332139Y-98713721D01*
X189332130Y-98713717D01*
X189185768Y-98674500D01*
X189185766Y-98674500D01*
X189034234Y-98674500D01*
X189034232Y-98674500D01*
X188887869Y-98713717D01*
X188887860Y-98713721D01*
X188756637Y-98789483D01*
X188649483Y-98896637D01*
X188573721Y-99027860D01*
X188573717Y-99027869D01*
X188534500Y-99174231D01*
X188380500Y-99174231D01*
X188380500Y-98101007D01*
X195619500Y-98101007D01*
X195619500Y-99338993D01*
X195628391Y-99383694D01*
X195646418Y-99474322D01*
X195646420Y-99474327D01*
X195699223Y-99601808D01*
X195771859Y-99710516D01*
X195775886Y-99716542D01*
X195873458Y-99814114D01*
X195988189Y-99890775D01*
X196115672Y-99943580D01*
X196251007Y-99970500D01*
X196251009Y-99970500D01*
X196388991Y-99970500D01*
X196388993Y-99970500D01*
X196524328Y-99943580D01*
X196651811Y-99890775D01*
X196766542Y-99814114D01*
X196864114Y-99716542D01*
X196940775Y-99601811D01*
X196993580Y-99474328D01*
X197020500Y-99338993D01*
X197020500Y-98101007D01*
X196993580Y-97965672D01*
X196940775Y-97838189D01*
X196864114Y-97723458D01*
X196766542Y-97625886D01*
X196651811Y-97549225D01*
X196651810Y-97549224D01*
X196651808Y-97549223D01*
X196524332Y-97496421D01*
X196524322Y-97496418D01*
X196433694Y-97478391D01*
X196388993Y-97469500D01*
X196251007Y-97469500D01*
X196212642Y-97477131D01*
X196115677Y-97496418D01*
X196115667Y-97496421D01*
X195988191Y-97549223D01*
X195873461Y-97625883D01*
X195775883Y-97723461D01*
X195699223Y-97838191D01*
X195646421Y-97965667D01*
X195646418Y-97965677D01*
X195623945Y-98078656D01*
X195619500Y-98101007D01*
X188380500Y-98101007D01*
X188353580Y-97965672D01*
X188300775Y-97838189D01*
X188224114Y-97723458D01*
X188126542Y-97625886D01*
X188011811Y-97549225D01*
X188011810Y-97549224D01*
X188011808Y-97549223D01*
X187884332Y-97496421D01*
X187884322Y-97496418D01*
X187793694Y-97478391D01*
X187748993Y-97469500D01*
X187611007Y-97469500D01*
X187572642Y-97477131D01*
X187475677Y-97496418D01*
X187475667Y-97496421D01*
X187348191Y-97549223D01*
X187233461Y-97625883D01*
X187135883Y-97723461D01*
X187059223Y-97838191D01*
X187006421Y-97965667D01*
X187006418Y-97965677D01*
X186983945Y-98078656D01*
X186979500Y-98101007D01*
X173500500Y-98101007D01*
X173500500Y-82500000D01*
X199000000Y-82500000D01*
X204000000Y-82500000D01*
X204000000Y-77500000D01*
X199000000Y-77500000D01*
X199000000Y-82500000D01*
X173500500Y-82500000D01*
X173500500Y-76587037D01*
X173522174Y-76534711D01*
X173574500Y-76513037D01*
X173615609Y-76525507D01*
X173691873Y-76576465D01*
X173810256Y-76625501D01*
X173810258Y-76625501D01*
X173810260Y-76625502D01*
X173852903Y-76633984D01*
X173935931Y-76650500D01*
X173935933Y-76650500D01*
X174064067Y-76650500D01*
X174064069Y-76650500D01*
X174189744Y-76625501D01*
X174308127Y-76576465D01*
X174414669Y-76505276D01*
X174505276Y-76414669D01*
X174576465Y-76308127D01*
X174625501Y-76189744D01*
X174650500Y-76064069D01*
X174650500Y-75935931D01*
X174625501Y-75810256D01*
X174576465Y-75691873D01*
X174505276Y-75585331D01*
X174414669Y-75494724D01*
X174308127Y-75423535D01*
X174308124Y-75423533D01*
X174308123Y-75423533D01*
X174189742Y-75374498D01*
X174189739Y-75374497D01*
X174099696Y-75356586D01*
X174064069Y-75349500D01*
X173935931Y-75349500D01*
X173904726Y-75355707D01*
X173810260Y-75374497D01*
X173810257Y-75374498D01*
X173691876Y-75423533D01*
X173615612Y-75474491D01*
X173560063Y-75485540D01*
X173512971Y-75454074D01*
X173500500Y-75412962D01*
X173500500Y-71581499D01*
X173749500Y-71581499D01*
X173749500Y-71918500D01*
X173787233Y-72253397D01*
X173787234Y-72253398D01*
X173862221Y-72581945D01*
X173862226Y-72581961D01*
X173973530Y-72900050D01*
X174119751Y-73203681D01*
X174119753Y-73203685D01*
X174119754Y-73203686D01*
X174299054Y-73489039D01*
X174509175Y-73752523D01*
X174747477Y-73990825D01*
X175010961Y-74200946D01*
X175296314Y-74380246D01*
X175599949Y-74526469D01*
X175918046Y-74637776D01*
X175918051Y-74637777D01*
X175918054Y-74637778D01*
X175973424Y-74650415D01*
X176246606Y-74712767D01*
X176581496Y-74750500D01*
X176581500Y-74750500D01*
X176918500Y-74750500D01*
X176918504Y-74750500D01*
X177253394Y-74712767D01*
X177581954Y-74637776D01*
X177900051Y-74526469D01*
X178203686Y-74380246D01*
X178489039Y-74200946D01*
X178752523Y-73990825D01*
X178990825Y-73752523D01*
X179200946Y-73489039D01*
X179380246Y-73203686D01*
X179526469Y-72900051D01*
X179637776Y-72581954D01*
X179712767Y-72253394D01*
X179750500Y-71918504D01*
X179750500Y-71581499D01*
X204249500Y-71581499D01*
X204249500Y-71918500D01*
X204287233Y-72253397D01*
X204287234Y-72253398D01*
X204362221Y-72581945D01*
X204362226Y-72581961D01*
X204473530Y-72900050D01*
X204619751Y-73203681D01*
X204619753Y-73203685D01*
X204619754Y-73203686D01*
X204799054Y-73489039D01*
X205009175Y-73752523D01*
X205247477Y-73990825D01*
X205510961Y-74200946D01*
X205796314Y-74380246D01*
X206099949Y-74526469D01*
X206418046Y-74637776D01*
X206418051Y-74637777D01*
X206418054Y-74637778D01*
X206473424Y-74650415D01*
X206746606Y-74712767D01*
X207081496Y-74750500D01*
X207081500Y-74750500D01*
X207418500Y-74750500D01*
X207418504Y-74750500D01*
X207753394Y-74712767D01*
X208081954Y-74637776D01*
X208400051Y-74526469D01*
X208703686Y-74380246D01*
X208989039Y-74200946D01*
X209252523Y-73990825D01*
X209490825Y-73752523D01*
X209700946Y-73489039D01*
X209880246Y-73203686D01*
X210026469Y-72900051D01*
X210137776Y-72581954D01*
X210212767Y-72253394D01*
X210250500Y-71918504D01*
X210250500Y-71581496D01*
X210212767Y-71246606D01*
X210137776Y-70918046D01*
X210026469Y-70599949D01*
X209880246Y-70296314D01*
X209700946Y-70010961D01*
X209490825Y-69747477D01*
X209252523Y-69509175D01*
X208989039Y-69299054D01*
X208703686Y-69119754D01*
X208703685Y-69119753D01*
X208703681Y-69119751D01*
X208400050Y-68973530D01*
X208081961Y-68862226D01*
X208081945Y-68862221D01*
X207753398Y-68787234D01*
X207753397Y-68787233D01*
X207609869Y-68771061D01*
X207418504Y-68749500D01*
X207081496Y-68749500D01*
X206914051Y-68768366D01*
X206746602Y-68787233D01*
X206746601Y-68787234D01*
X206418054Y-68862221D01*
X206418038Y-68862226D01*
X206099949Y-68973530D01*
X205796318Y-69119751D01*
X205510960Y-69299054D01*
X205247473Y-69509178D01*
X205009178Y-69747473D01*
X204799054Y-70010960D01*
X204619751Y-70296318D01*
X204473530Y-70599949D01*
X204362226Y-70918038D01*
X204362221Y-70918054D01*
X204287234Y-71246601D01*
X204287233Y-71246602D01*
X204249500Y-71581499D01*
X179750500Y-71581499D01*
X179750500Y-71581496D01*
X179712767Y-71246606D01*
X179637776Y-70918046D01*
X179526469Y-70599949D01*
X179380246Y-70296314D01*
X179200946Y-70010961D01*
X178990825Y-69747477D01*
X178752523Y-69509175D01*
X178489039Y-69299054D01*
X178203686Y-69119754D01*
X178203685Y-69119753D01*
X178203681Y-69119751D01*
X177900050Y-68973530D01*
X177581961Y-68862226D01*
X177581945Y-68862221D01*
X177253398Y-68787234D01*
X177253397Y-68787233D01*
X177109869Y-68771061D01*
X176918504Y-68749500D01*
X176581496Y-68749500D01*
X176414051Y-68768366D01*
X176246602Y-68787233D01*
X176246601Y-68787234D01*
X175918054Y-68862221D01*
X175918038Y-68862226D01*
X175599949Y-68973530D01*
X175296318Y-69119751D01*
X175010960Y-69299054D01*
X174747473Y-69509178D01*
X174509178Y-69747473D01*
X174299054Y-70010960D01*
X174119751Y-70296318D01*
X173973530Y-70599949D01*
X173862226Y-70918038D01*
X173862221Y-70918054D01*
X173787234Y-71246601D01*
X173787233Y-71246602D01*
X173749500Y-71581499D01*
X173500500Y-71581499D01*
X173500500Y-70002636D01*
X173500689Y-69997357D01*
X173515385Y-69791882D01*
X173516887Y-69781432D01*
X173524274Y-69747473D01*
X173560118Y-69582699D01*
X173563084Y-69572596D01*
X173634163Y-69382028D01*
X173638538Y-69372449D01*
X173736004Y-69193953D01*
X173741705Y-69185080D01*
X173863589Y-69022263D01*
X173870489Y-69014300D01*
X174014300Y-68870489D01*
X174022263Y-68863589D01*
X174185080Y-68741705D01*
X174193953Y-68736004D01*
X174372449Y-68638538D01*
X174382028Y-68634163D01*
X174572596Y-68563084D01*
X174582699Y-68560118D01*
X174781432Y-68516887D01*
X174791879Y-68515385D01*
X174997357Y-68500688D01*
X175002636Y-68500500D01*
X175065892Y-68500500D01*
X208934108Y-68500500D01*
X208997364Y-68500500D01*
X209002642Y-68500688D01*
G37*
%TD.AperFunction*%
%TD*%
M02*
