%TF.GenerationSoftware,KiCad,Pcbnew,9.0.7*%
%TF.CreationDate,2026-01-24T01:10:01+08:00*%
%TF.ProjectId,zero star-rounded,7a65726f-2073-4746-9172-2d726f756e64,rev?*%
%TF.SameCoordinates,Original*%
%TF.FileFunction,Soldermask,Bot*%
%TF.FilePolarity,Negative*%
%FSLAX46Y46*%
G04 Gerber Fmt 4.6, Leading zero omitted, Abs format (unit mm)*
G04 Created by KiCad (PCBNEW 9.0.7) date 2026-01-24 01:10:01*
%MOMM*%
%LPD*%
G01*
G04 APERTURE LIST*
G04 Aperture macros list*
%AMRoundRect*
0 Rectangle with rounded corners*
0 $1 Rounding radius*
0 $2 $3 $4 $5 $6 $7 $8 $9 X,Y pos of 4 corners*
0 Add a 4 corners polygon primitive as box body*
4,1,4,$2,$3,$4,$5,$6,$7,$8,$9,$2,$3,0*
0 Add four circle primitives for the rounded corners*
1,1,$1+$1,$2,$3*
1,1,$1+$1,$4,$5*
1,1,$1+$1,$6,$7*
1,1,$1+$1,$8,$9*
0 Add four rect primitives between the rounded corners*
20,1,$1+$1,$2,$3,$4,$5,0*
20,1,$1+$1,$4,$5,$6,$7,0*
20,1,$1+$1,$6,$7,$8,$9,0*
20,1,$1+$1,$8,$9,$2,$3,0*%
G04 Aperture macros list end*
%ADD10C,5.600000*%
%ADD11R,0.800000X0.800000*%
%ADD12RoundRect,0.225000X-0.375000X0.225000X-0.375000X-0.225000X0.375000X-0.225000X0.375000X0.225000X0*%
%ADD13RoundRect,0.250000X-0.650000X1.000000X-0.650000X-1.000000X0.650000X-1.000000X0.650000X1.000000X0*%
%ADD14RoundRect,0.125000X0.537500X0.125000X-0.537500X0.125000X-0.537500X-0.125000X0.537500X-0.125000X0*%
%ADD15RoundRect,0.150000X-0.625000X0.150000X-0.625000X-0.150000X0.625000X-0.150000X0.625000X0.150000X0*%
%ADD16RoundRect,0.250000X-0.650000X0.350000X-0.650000X-0.350000X0.650000X-0.350000X0.650000X0.350000X0*%
%ADD17RoundRect,0.150000X-0.150000X0.512500X-0.150000X-0.512500X0.150000X-0.512500X0.150000X0.512500X0*%
%ADD18R,1.500000X3.600000*%
%ADD19RoundRect,0.250000X0.350000X-0.275000X0.350000X0.275000X-0.350000X0.275000X-0.350000X-0.275000X0*%
%ADD20RoundRect,0.150000X-0.150000X-0.625000X0.150000X-0.625000X0.150000X0.625000X-0.150000X0.625000X0*%
%ADD21RoundRect,0.250000X-0.350000X-0.650000X0.350000X-0.650000X0.350000X0.650000X-0.350000X0.650000X0*%
%ADD22RoundRect,0.250000X-0.350000X0.275000X-0.350000X-0.275000X0.350000X-0.275000X0.350000X0.275000X0*%
%ADD23RoundRect,0.150000X0.625000X-0.150000X0.625000X0.150000X-0.625000X0.150000X-0.625000X-0.150000X0*%
%ADD24RoundRect,0.250000X0.650000X-0.350000X0.650000X0.350000X-0.650000X0.350000X-0.650000X-0.350000X0*%
%ADD25C,0.650000*%
%ADD26R,0.600000X1.450000*%
%ADD27R,0.300000X1.450000*%
%ADD28O,1.000000X1.600000*%
%ADD29O,1.000000X2.100000*%
%ADD30C,0.800000*%
%ADD31R,1.700000X0.900000*%
G04 APERTURE END LIST*
D10*
%TO.C,REF\u002A\u002A*%
X176750000Y-102250000D03*
%TD*%
%TO.C,REF\u002A\u002A*%
X176750000Y-71750000D03*
%TD*%
%TO.C,REF\u002A\u002A*%
X207250000Y-71750000D03*
%TD*%
%TO.C,REF\u002A\u002A*%
X207250000Y-102250000D03*
%TD*%
D11*
%TO.C,C47*%
X201250000Y-82250000D03*
X199750000Y-82250000D03*
%TD*%
%TO.C,C17*%
X186000000Y-83000000D03*
X187500000Y-83000000D03*
%TD*%
D12*
%TO.C,D12*%
X197750000Y-79500000D03*
X197750000Y-82800000D03*
%TD*%
D11*
%TO.C,C20*%
X184250000Y-89250000D03*
X184250000Y-90750000D03*
%TD*%
%TO.C,C16*%
X183500000Y-79500000D03*
X182000000Y-79500000D03*
%TD*%
D13*
%TO.C,D3*%
X192500000Y-85500000D03*
X192500000Y-89500000D03*
%TD*%
D14*
%TO.C,U2*%
X195000000Y-74850000D03*
X195000000Y-75500000D03*
X195000000Y-76150000D03*
X195000000Y-76800000D03*
X192725000Y-76800000D03*
X192725000Y-76150000D03*
X192725000Y-75500000D03*
X192725000Y-74850000D03*
%TD*%
D11*
%TO.C,R8*%
X183500000Y-78000000D03*
X182000000Y-78000000D03*
%TD*%
%TO.C,C18*%
X183500000Y-82500000D03*
X182000000Y-82500000D03*
%TD*%
%TO.C,C43*%
X201250000Y-77920000D03*
X199750000Y-77920000D03*
%TD*%
D15*
%TO.C,J4*%
X206250000Y-84250000D03*
X206250000Y-85250000D03*
X206250000Y-86250000D03*
X206250000Y-87250000D03*
X206250000Y-88250000D03*
X206250000Y-89250000D03*
X206250000Y-90250000D03*
X206250000Y-91250000D03*
D16*
X210125000Y-82950000D03*
X210125000Y-92550000D03*
%TD*%
D17*
%TO.C,U4*%
X187250000Y-92250000D03*
X188200000Y-92250000D03*
X189150000Y-92250000D03*
X189150000Y-94525000D03*
X187250000Y-94525000D03*
%TD*%
D11*
%TO.C,C9*%
X199750000Y-75000000D03*
X201250000Y-75000000D03*
%TD*%
D14*
%TO.C,U3*%
X187637500Y-75025000D03*
X187637500Y-75675000D03*
X187637500Y-76325000D03*
X187637500Y-76975000D03*
X185362500Y-76975000D03*
X185362500Y-76325000D03*
X185362500Y-75675000D03*
X185362500Y-75025000D03*
%TD*%
D17*
%TO.C,U10*%
X192050000Y-92112500D03*
X193000000Y-92112500D03*
X193950000Y-92112500D03*
X193950000Y-94387500D03*
X192050000Y-94387500D03*
%TD*%
D18*
%TO.C,L1*%
X192000000Y-80000000D03*
X195050000Y-80000000D03*
%TD*%
D11*
%TO.C,C45*%
X199750000Y-79250000D03*
X201250000Y-79250000D03*
%TD*%
D19*
%TO.C,L5*%
X195750000Y-91150000D03*
X195750000Y-88850000D03*
%TD*%
D18*
%TO.C,L2*%
X185450000Y-80000000D03*
X188500000Y-80000000D03*
%TD*%
D20*
%TO.C,J5*%
X199500000Y-72750000D03*
X200500000Y-72750000D03*
X201500000Y-72750000D03*
X202500000Y-72750000D03*
D21*
X198200000Y-68875000D03*
X203800000Y-68875000D03*
%TD*%
D11*
%TO.C,C46*%
X201250000Y-80750000D03*
X199750000Y-80750000D03*
%TD*%
%TO.C,R12*%
X200000000Y-97500000D03*
X198500000Y-97500000D03*
%TD*%
D22*
%TO.C,L4*%
X195750000Y-84850000D03*
X195750000Y-87150000D03*
%TD*%
D11*
%TO.C,C14*%
X194500000Y-83000000D03*
X193000000Y-83000000D03*
%TD*%
%TO.C,R9*%
X182000000Y-75000000D03*
X183500000Y-75000000D03*
%TD*%
%TO.C,C32*%
X185750000Y-90750000D03*
X185750000Y-89250000D03*
%TD*%
D15*
%TO.C,J3*%
X206250000Y-76500000D03*
X206250000Y-77500000D03*
X206250000Y-78500000D03*
X206250000Y-79500000D03*
D16*
X210125000Y-75200000D03*
X210125000Y-80800000D03*
%TD*%
D11*
%TO.C,C33*%
X201250000Y-86500000D03*
X199750000Y-86500000D03*
%TD*%
D23*
%TO.C,J23*%
X178000000Y-85800000D03*
X178000000Y-84800000D03*
X178000000Y-83800000D03*
X178000000Y-82800000D03*
X178000000Y-81800000D03*
X178000000Y-80800000D03*
D24*
X174125000Y-87100000D03*
X174125000Y-79500000D03*
%TD*%
D11*
%TO.C,R7*%
X198500000Y-76500000D03*
X197000000Y-76500000D03*
%TD*%
%TO.C,C13*%
X199750000Y-76500000D03*
X201250000Y-76500000D03*
%TD*%
%TO.C,C48*%
X201250000Y-83750000D03*
X199750000Y-83750000D03*
%TD*%
%TO.C,R30*%
X200000000Y-100000000D03*
X198500000Y-100000000D03*
%TD*%
D20*
%TO.C,J6*%
X190000000Y-72750000D03*
X191000000Y-72750000D03*
X192000000Y-72750000D03*
X193000000Y-72750000D03*
X194000000Y-72750000D03*
X195000000Y-72750000D03*
D21*
X188700000Y-68875000D03*
X196300000Y-68875000D03*
%TD*%
D20*
%TO.C,J22*%
X182107165Y-72755245D03*
X183107165Y-72755245D03*
X184107165Y-72755245D03*
X185107165Y-72755245D03*
D21*
X180807165Y-68880245D03*
X186407165Y-68880245D03*
%TD*%
D25*
%TO.C,J1*%
X194890000Y-99250000D03*
X189110000Y-99250000D03*
D26*
X195250000Y-97805000D03*
X194450000Y-97805000D03*
D27*
X193250000Y-97805000D03*
X192250000Y-97805000D03*
X191750000Y-97805000D03*
X190750000Y-97805000D03*
D26*
X189550000Y-97805000D03*
X188750000Y-97805000D03*
X188750000Y-97805000D03*
X189550000Y-97805000D03*
D27*
X190250000Y-97805000D03*
X191250000Y-97805000D03*
X192750000Y-97805000D03*
X193750000Y-97805000D03*
D26*
X194450000Y-97805000D03*
X195250000Y-97805000D03*
D28*
X196320000Y-102900000D03*
D29*
X196320000Y-98720000D03*
D28*
X187680000Y-102900000D03*
D29*
X187680000Y-98720000D03*
%TD*%
D11*
%TO.C,R13*%
X200000000Y-98750000D03*
X198500000Y-98750000D03*
%TD*%
%TO.C,R3*%
X183500000Y-76500000D03*
X182000000Y-76500000D03*
%TD*%
%TO.C,R11*%
X179000000Y-75000000D03*
X180500000Y-75000000D03*
%TD*%
%TO.C,R4*%
X191000000Y-76500000D03*
X191000000Y-75000000D03*
%TD*%
%TO.C,C5*%
X183500000Y-81000000D03*
X182000000Y-81000000D03*
%TD*%
%TO.C,R5*%
X198500000Y-75000000D03*
X197000000Y-75000000D03*
%TD*%
D13*
%TO.C,D2*%
X188500000Y-85500000D03*
X188500000Y-89500000D03*
%TD*%
D30*
%TO.C,SW1*%
X174000000Y-76000000D03*
D31*
X174000000Y-74300000D03*
X174000000Y-77700000D03*
%TD*%
D11*
%TO.C,R10*%
X189500000Y-76500000D03*
X189500000Y-75000000D03*
%TD*%
%TO.C,C35*%
X201250000Y-85250000D03*
X199750000Y-85250000D03*
%TD*%
%TO.C,C15*%
X201250000Y-88000000D03*
X199750000Y-88000000D03*
%TD*%
%TO.C,R6*%
X198500000Y-78000000D03*
X197000000Y-78000000D03*
%TD*%
M02*
