%TF.GenerationSoftware,KiCad,Pcbnew,9.0.7*%
%TF.CreationDate,2026-01-24T01:10:00+08:00*%
%TF.ProjectId,zero star-rounded,7a65726f-2073-4746-9172-2d726f756e64,rev?*%
%TF.SameCoordinates,Original*%
%TF.FileFunction,Copper,L3,Inr*%
%TF.FilePolarity,Positive*%
%FSLAX46Y46*%
G04 Gerber Fmt 4.6, Leading zero omitted, Abs format (unit mm)*
G04 Created by KiCad (PCBNEW 9.0.7) date 2026-01-24 01:10:00*
%MOMM*%
%LPD*%
G01*
G04 APERTURE LIST*
%TA.AperFunction,ComponentPad*%
%ADD10C,5.600000*%
%TD*%
%TA.AperFunction,HeatsinkPad*%
%ADD11O,1.000000X1.600000*%
%TD*%
%TA.AperFunction,HeatsinkPad*%
%ADD12O,1.000000X2.100000*%
%TD*%
G04 APERTURE END LIST*
D10*
%TO.N,N/C*%
%TO.C,REF\u002A\u002A*%
X176750000Y-102250000D03*
%TD*%
%TO.N,N/C*%
%TO.C,REF\u002A\u002A*%
X176750000Y-71750000D03*
%TD*%
%TO.N,N/C*%
%TO.C,REF\u002A\u002A*%
X207250000Y-71750000D03*
%TD*%
%TO.N,N/C*%
%TO.C,REF\u002A\u002A*%
X207250000Y-102250000D03*
%TD*%
D11*
%TO.N,GND*%
%TO.C,J1*%
X196320000Y-102900000D03*
D12*
X196320000Y-98720000D03*
D11*
X187680000Y-102900000D03*
D12*
X187680000Y-98720000D03*
%TD*%
%TA.AperFunction,Conductor*%
%TO.N,+5V*%
G36*
X203959738Y-103020104D02*
G01*
X204006041Y-103072428D01*
X204016347Y-103106257D01*
X204362560Y-105356645D01*
X204353298Y-105425898D01*
X204308066Y-105479150D01*
X204241223Y-105499494D01*
X204240002Y-105499500D01*
X180124000Y-105499500D01*
X180056961Y-105479815D01*
X180011206Y-105427011D01*
X180000000Y-105375500D01*
X180000000Y-103500001D01*
X180000000Y-103500000D01*
X182750000Y-103250000D01*
X182749284Y-103221361D01*
X186554317Y-103181725D01*
X186621555Y-103200710D01*
X186667858Y-103253034D01*
X186679008Y-103293557D01*
X186679498Y-103298537D01*
X186717947Y-103491829D01*
X186717950Y-103491839D01*
X186793364Y-103673907D01*
X186793371Y-103673920D01*
X186902860Y-103837781D01*
X186902863Y-103837785D01*
X187042214Y-103977136D01*
X187042218Y-103977139D01*
X187206079Y-104086628D01*
X187206092Y-104086635D01*
X187388160Y-104162049D01*
X187388165Y-104162051D01*
X187388169Y-104162051D01*
X187388170Y-104162052D01*
X187581456Y-104200500D01*
X187581459Y-104200500D01*
X187778543Y-104200500D01*
X187908582Y-104174632D01*
X187971835Y-104162051D01*
X188153914Y-104086632D01*
X188317782Y-103977139D01*
X188457139Y-103837782D01*
X188566632Y-103673914D01*
X188642051Y-103491835D01*
X188680500Y-103298541D01*
X188680500Y-103282291D01*
X188700185Y-103215252D01*
X188752989Y-103169497D01*
X188803198Y-103158300D01*
X195194211Y-103091726D01*
X195261449Y-103110711D01*
X195307752Y-103163035D01*
X195319500Y-103215719D01*
X195319500Y-103298541D01*
X195319500Y-103298543D01*
X195319499Y-103298543D01*
X195357947Y-103491829D01*
X195357950Y-103491839D01*
X195433364Y-103673907D01*
X195433371Y-103673920D01*
X195542860Y-103837781D01*
X195542863Y-103837785D01*
X195682214Y-103977136D01*
X195682218Y-103977139D01*
X195846079Y-104086628D01*
X195846092Y-104086635D01*
X196028160Y-104162049D01*
X196028165Y-104162051D01*
X196028169Y-104162051D01*
X196028170Y-104162052D01*
X196221456Y-104200500D01*
X196221459Y-104200500D01*
X196418543Y-104200500D01*
X196548582Y-104174632D01*
X196611835Y-104162051D01*
X196793914Y-104086632D01*
X196957782Y-103977139D01*
X197097139Y-103837782D01*
X197206632Y-103673914D01*
X197282051Y-103491835D01*
X197320500Y-103298541D01*
X197320500Y-103192291D01*
X197340185Y-103125252D01*
X197392989Y-103079497D01*
X197443198Y-103068300D01*
X203892499Y-103001119D01*
X203959738Y-103020104D01*
G37*
%TD.AperFunction*%
%TD*%
%TA.AperFunction,Conductor*%
%TO.N,+5V*%
G36*
X182446101Y-93269685D02*
G01*
X182491856Y-93322489D01*
X182503023Y-93370901D01*
X182749283Y-103221360D01*
X182749284Y-103221361D01*
X182750000Y-103250000D01*
X180000000Y-103500000D01*
X179999999Y-103499978D01*
X179750000Y-99000000D01*
X175874000Y-99000000D01*
X175806961Y-98980315D01*
X175761206Y-98927511D01*
X175750000Y-98876000D01*
X175750000Y-98500000D01*
X175750000Y-93250000D01*
X175866667Y-93250000D01*
X182379062Y-93250000D01*
X182446101Y-93269685D01*
G37*
%TD.AperFunction*%
%TD*%
%TA.AperFunction,Conductor*%
%TO.N,+5V*%
G36*
X178687555Y-75025188D02*
G01*
X178737712Y-75073830D01*
X178753753Y-75131378D01*
X178999949Y-83748215D01*
X179000000Y-83751756D01*
X179000000Y-87126000D01*
X178980315Y-87193039D01*
X178927511Y-87238794D01*
X178876000Y-87250000D01*
X176000000Y-87250000D01*
X175866667Y-93250000D01*
X175750000Y-93250000D01*
X175750000Y-98500000D01*
X173624500Y-98500000D01*
X173557461Y-98480315D01*
X173511706Y-98427511D01*
X173500500Y-98376000D01*
X173500500Y-76680581D01*
X173520185Y-76613542D01*
X173572989Y-76567787D01*
X173642147Y-76557843D01*
X173685943Y-76574629D01*
X173686498Y-76573592D01*
X173691872Y-76576464D01*
X173691873Y-76576465D01*
X173810256Y-76625501D01*
X173810260Y-76625501D01*
X173810261Y-76625502D01*
X173935928Y-76650500D01*
X173935931Y-76650500D01*
X174064071Y-76650500D01*
X174148615Y-76633682D01*
X174189744Y-76625501D01*
X174308127Y-76576465D01*
X174414669Y-76505276D01*
X174505276Y-76414669D01*
X174576465Y-76308127D01*
X174625501Y-76189744D01*
X174650500Y-76064069D01*
X174650500Y-75935931D01*
X174650500Y-75935928D01*
X174625502Y-75810261D01*
X174625501Y-75810260D01*
X174625501Y-75810256D01*
X174576465Y-75691873D01*
X174576464Y-75691872D01*
X174576461Y-75691866D01*
X174505276Y-75585331D01*
X174505273Y-75585327D01*
X174494512Y-75574566D01*
X174461027Y-75513243D01*
X174466011Y-75443551D01*
X174507883Y-75387618D01*
X174571447Y-75363352D01*
X178619065Y-75011385D01*
X178687555Y-75025188D01*
G37*
%TD.AperFunction*%
%TD*%
%TA.AperFunction,Conductor*%
%TO.N,+5V*%
G36*
X208750000Y-75000000D02*
G01*
X208750000Y-80500000D01*
X205129508Y-80500000D01*
X205062469Y-80480315D01*
X205016714Y-80427511D01*
X205005625Y-80370614D01*
X205244461Y-74877380D01*
X205267039Y-74811262D01*
X205321781Y-74767844D01*
X205377178Y-74759084D01*
X208750000Y-75000000D01*
G37*
%TD.AperFunction*%
%TD*%
%TA.AperFunction,Conductor*%
%TO.N,VBAT*%
G36*
X190518163Y-75934044D02*
G01*
X193652075Y-75998002D01*
X193652084Y-75998001D01*
X193652116Y-75998001D01*
X193609107Y-75999393D01*
X193496607Y-77174393D01*
X193749998Y-77168083D01*
X193732320Y-77186207D01*
X193730315Y-77193039D01*
X193677511Y-77238794D01*
X193626000Y-77250000D01*
X181624000Y-77250000D01*
X181556961Y-77230315D01*
X181511206Y-77177511D01*
X181500000Y-77126000D01*
X181500000Y-77000000D01*
X184000000Y-77000000D01*
X184522856Y-75811690D01*
X190518163Y-75934044D01*
G37*
%TD.AperFunction*%
%TD*%
%TA.AperFunction,Conductor*%
%TO.N,+3.3V*%
G36*
X203917960Y-68520185D02*
G01*
X203963715Y-68572989D01*
X203974822Y-68629456D01*
X203754885Y-74127863D01*
X203732537Y-74194062D01*
X203677946Y-74237670D01*
X203627806Y-74246866D01*
X194120822Y-74003098D01*
X194054309Y-73981702D01*
X194009922Y-73927742D01*
X194000000Y-73879139D01*
X194000000Y-68624500D01*
X194019685Y-68557461D01*
X194072489Y-68511706D01*
X194124000Y-68500500D01*
X203850921Y-68500500D01*
X203917960Y-68520185D01*
G37*
%TD.AperFunction*%
%TD*%
%TA.AperFunction,Conductor*%
%TO.N,VBAT*%
G36*
X186619635Y-70774712D02*
G01*
X186667386Y-70825718D01*
X186679980Y-70894443D01*
X186670154Y-70931467D01*
X184522855Y-75811689D01*
X184522855Y-75811690D01*
X184000000Y-77000000D01*
X181500000Y-77000000D01*
X181500000Y-74500000D01*
X180259022Y-71025263D01*
X180257647Y-71014737D01*
X180254332Y-71008493D01*
X180253815Y-70999853D01*
X186551891Y-70757619D01*
X186619635Y-70774712D01*
G37*
%TD.AperFunction*%
%TD*%
%TA.AperFunction,Conductor*%
%TO.N,+5V*%
G36*
X210432820Y-74844054D02*
G01*
X210483167Y-74892499D01*
X210499500Y-74954011D01*
X210499500Y-98376000D01*
X210479815Y-98443039D01*
X210427011Y-98488794D01*
X210375500Y-98500000D01*
X208375326Y-98500000D01*
X208308287Y-98480315D01*
X208262532Y-98427511D01*
X208251333Y-98374681D01*
X208441489Y-80500000D01*
X208750000Y-80500000D01*
X208750000Y-75000000D01*
X208609999Y-74989999D01*
X210364275Y-74830520D01*
X210432820Y-74844054D01*
G37*
%TD.AperFunction*%
%TD*%
%TA.AperFunction,Conductor*%
%TO.N,VBAT*%
G36*
X186443039Y-68520185D02*
G01*
X186488794Y-68572989D01*
X186500000Y-68624500D01*
X186500000Y-70759614D01*
X186500000Y-70759615D01*
X180255693Y-70999781D01*
X180252228Y-70973263D01*
X180448816Y-68614202D01*
X180474000Y-68549029D01*
X180530422Y-68507817D01*
X180572388Y-68500500D01*
X186376000Y-68500500D01*
X186443039Y-68520185D01*
G37*
%TD.AperFunction*%
%TD*%
%TA.AperFunction,Conductor*%
%TO.N,+9V*%
G36*
X184193039Y-77525185D02*
G01*
X184238794Y-77577989D01*
X184250000Y-77629500D01*
X184250000Y-82876000D01*
X184230315Y-82943039D01*
X184177511Y-82988794D01*
X184126000Y-83000000D01*
X181624000Y-83000000D01*
X181556961Y-82980315D01*
X181511206Y-82927511D01*
X181500000Y-82876000D01*
X181500000Y-77629500D01*
X181519685Y-77562461D01*
X181572489Y-77516706D01*
X181624000Y-77505500D01*
X184126000Y-77505500D01*
X184193039Y-77525185D01*
G37*
%TD.AperFunction*%
%TD*%
%TA.AperFunction,Conductor*%
%TO.N,+3.3V*%
G36*
X199000000Y-82510000D02*
G01*
X204874527Y-82744981D01*
X204940726Y-82767329D01*
X204984334Y-82821920D01*
X204993400Y-82875399D01*
X204756770Y-87371363D01*
X204733589Y-87437276D01*
X204678453Y-87480192D01*
X204621715Y-87488337D01*
X202291300Y-87276481D01*
X202000000Y-87250000D01*
X201999999Y-87250000D01*
X201765209Y-88893536D01*
X201736241Y-88957118D01*
X201677497Y-88994946D01*
X201642455Y-89000000D01*
X199000000Y-89000000D01*
X198750000Y-82500000D01*
X199000000Y-82510000D01*
G37*
%TD.AperFunction*%
%TD*%
%TA.AperFunction,Conductor*%
%TO.N,+5V*%
G36*
X194684349Y-91021682D02*
G01*
X194731682Y-91073076D01*
X194744500Y-91127980D01*
X194744500Y-96126000D01*
X194724815Y-96193039D01*
X194672011Y-96238794D01*
X194620500Y-96250000D01*
X186867955Y-96250000D01*
X186800916Y-96230315D01*
X186755161Y-96177511D01*
X186744110Y-96132192D01*
X186506315Y-91376304D01*
X186522627Y-91308365D01*
X186573080Y-91260031D01*
X186626401Y-91246169D01*
X194616747Y-91004037D01*
X194684349Y-91021682D01*
G37*
%TD.AperFunction*%
%TD*%
%TA.AperFunction,Conductor*%
%TO.N,VBAT*%
G36*
X200379180Y-74669234D02*
G01*
X200445691Y-74690630D01*
X200490078Y-74744590D01*
X200500000Y-74793193D01*
X200500000Y-76879048D01*
X200480315Y-76946087D01*
X200427511Y-76991842D01*
X200379087Y-77003010D01*
X193749999Y-77168083D01*
X193749998Y-77168083D01*
X193496607Y-77174393D01*
X193609107Y-75999393D01*
X199000000Y-75825000D01*
X199171270Y-74745998D01*
X199201219Y-74682878D01*
X199260543Y-74645967D01*
X199296906Y-74641483D01*
X200379180Y-74669234D01*
G37*
%TD.AperFunction*%
%TD*%
%TA.AperFunction,Conductor*%
%TO.N,+3.3V*%
G36*
X193134146Y-77525185D02*
G01*
X193145952Y-77533795D01*
X193233984Y-77606318D01*
X193333560Y-77648830D01*
X193366306Y-77662811D01*
X193366307Y-77662811D01*
X193366309Y-77662812D01*
X193509191Y-77679736D01*
X198872915Y-77546171D01*
X198940422Y-77564181D01*
X198987477Y-77615830D01*
X199000000Y-77670133D01*
X199000000Y-82510000D01*
X198750000Y-82500000D01*
X199000000Y-89000000D01*
X199000000Y-90500000D01*
X195250000Y-90500000D01*
X195250000Y-90681818D01*
X185369426Y-90502171D01*
X185302755Y-90481270D01*
X185257968Y-90427643D01*
X185247703Y-90380575D01*
X185221153Y-89000000D01*
X185002536Y-77631883D01*
X185020928Y-77564479D01*
X185072842Y-77517717D01*
X185126513Y-77505500D01*
X193067107Y-77505500D01*
X193134146Y-77525185D01*
G37*
%TD.AperFunction*%
%TD*%
%TA.AperFunction,Conductor*%
%TO.N,+3.3V*%
G36*
X199198313Y-90519685D02*
G01*
X199244068Y-90572489D01*
X199255157Y-90618614D01*
X199494375Y-96120614D01*
X199477621Y-96188445D01*
X199426854Y-96236450D01*
X199370492Y-96250000D01*
X195374000Y-96250000D01*
X195306961Y-96230315D01*
X195261206Y-96177511D01*
X195250000Y-96126000D01*
X195250000Y-90681818D01*
X195250000Y-90500000D01*
X199000000Y-90500000D01*
X199131274Y-90500000D01*
X199198313Y-90519685D01*
G37*
%TD.AperFunction*%
%TD*%
M02*
