%TF.GenerationSoftware,KiCad,Pcbnew,9.0.7*%
%TF.CreationDate,2026-01-24T01:10:00+08:00*%
%TF.ProjectId,zero star-rounded,7a65726f-2073-4746-9172-2d726f756e64,rev?*%
%TF.SameCoordinates,Original*%
%TF.FileFunction,Copper,L4,Bot*%
%TF.FilePolarity,Positive*%
%FSLAX46Y46*%
G04 Gerber Fmt 4.6, Leading zero omitted, Abs format (unit mm)*
G04 Created by KiCad (PCBNEW 9.0.7) date 2026-01-24 01:10:00*
%MOMM*%
%LPD*%
G01*
G04 APERTURE LIST*
G04 Aperture macros list*
%AMRoundRect*
0 Rectangle with rounded corners*
0 $1 Rounding radius*
0 $2 $3 $4 $5 $6 $7 $8 $9 X,Y pos of 4 corners*
0 Add a 4 corners polygon primitive as box body*
4,1,4,$2,$3,$4,$5,$6,$7,$8,$9,$2,$3,0*
0 Add four circle primitives for the rounded corners*
1,1,$1+$1,$2,$3*
1,1,$1+$1,$4,$5*
1,1,$1+$1,$6,$7*
1,1,$1+$1,$8,$9*
0 Add four rect primitives between the rounded corners*
20,1,$1+$1,$2,$3,$4,$5,0*
20,1,$1+$1,$4,$5,$6,$7,0*
20,1,$1+$1,$6,$7,$8,$9,0*
20,1,$1+$1,$8,$9,$2,$3,0*%
G04 Aperture macros list end*
%TA.AperFunction,ComponentPad*%
%ADD10C,5.600000*%
%TD*%
%TA.AperFunction,SMDPad,CuDef*%
%ADD11R,0.800000X0.800000*%
%TD*%
%TA.AperFunction,SMDPad,CuDef*%
%ADD12RoundRect,0.225000X-0.375000X0.225000X-0.375000X-0.225000X0.375000X-0.225000X0.375000X0.225000X0*%
%TD*%
%TA.AperFunction,SMDPad,CuDef*%
%ADD13RoundRect,0.250000X-0.650000X1.000000X-0.650000X-1.000000X0.650000X-1.000000X0.650000X1.000000X0*%
%TD*%
%TA.AperFunction,SMDPad,CuDef*%
%ADD14RoundRect,0.125000X0.537500X0.125000X-0.537500X0.125000X-0.537500X-0.125000X0.537500X-0.125000X0*%
%TD*%
%TA.AperFunction,SMDPad,CuDef*%
%ADD15RoundRect,0.150000X-0.625000X0.150000X-0.625000X-0.150000X0.625000X-0.150000X0.625000X0.150000X0*%
%TD*%
%TA.AperFunction,SMDPad,CuDef*%
%ADD16RoundRect,0.250000X-0.650000X0.350000X-0.650000X-0.350000X0.650000X-0.350000X0.650000X0.350000X0*%
%TD*%
%TA.AperFunction,SMDPad,CuDef*%
%ADD17RoundRect,0.150000X-0.150000X0.512500X-0.150000X-0.512500X0.150000X-0.512500X0.150000X0.512500X0*%
%TD*%
%TA.AperFunction,SMDPad,CuDef*%
%ADD18R,1.500000X3.600000*%
%TD*%
%TA.AperFunction,SMDPad,CuDef*%
%ADD19RoundRect,0.250000X0.350000X-0.275000X0.350000X0.275000X-0.350000X0.275000X-0.350000X-0.275000X0*%
%TD*%
%TA.AperFunction,SMDPad,CuDef*%
%ADD20RoundRect,0.150000X-0.150000X-0.625000X0.150000X-0.625000X0.150000X0.625000X-0.150000X0.625000X0*%
%TD*%
%TA.AperFunction,SMDPad,CuDef*%
%ADD21RoundRect,0.250000X-0.350000X-0.650000X0.350000X-0.650000X0.350000X0.650000X-0.350000X0.650000X0*%
%TD*%
%TA.AperFunction,SMDPad,CuDef*%
%ADD22RoundRect,0.250000X-0.350000X0.275000X-0.350000X-0.275000X0.350000X-0.275000X0.350000X0.275000X0*%
%TD*%
%TA.AperFunction,SMDPad,CuDef*%
%ADD23RoundRect,0.150000X0.625000X-0.150000X0.625000X0.150000X-0.625000X0.150000X-0.625000X-0.150000X0*%
%TD*%
%TA.AperFunction,SMDPad,CuDef*%
%ADD24RoundRect,0.250000X0.650000X-0.350000X0.650000X0.350000X-0.650000X0.350000X-0.650000X-0.350000X0*%
%TD*%
%TA.AperFunction,SMDPad,CuDef*%
%ADD25R,0.600000X1.450000*%
%TD*%
%TA.AperFunction,SMDPad,CuDef*%
%ADD26R,0.300000X1.450000*%
%TD*%
%TA.AperFunction,HeatsinkPad*%
%ADD27O,1.000000X1.600000*%
%TD*%
%TA.AperFunction,HeatsinkPad*%
%ADD28O,1.000000X2.100000*%
%TD*%
%TA.AperFunction,SMDPad,CuDef*%
%ADD29R,1.700000X0.900000*%
%TD*%
G04 APERTURE END LIST*
D10*
%TO.P,REF\u002A\u002A,1*%
%TO.N,N/C*%
X176750000Y-102250000D03*
%TD*%
%TO.P,REF\u002A\u002A,1*%
%TO.N,N/C*%
X176750000Y-71750000D03*
%TD*%
%TO.P,REF\u002A\u002A,1*%
%TO.N,N/C*%
X207250000Y-71750000D03*
%TD*%
%TO.P,REF\u002A\u002A,1*%
%TO.N,N/C*%
X207250000Y-102250000D03*
%TD*%
D11*
%TO.P,C47,1*%
%TO.N,+3.3VA*%
X201250000Y-82250000D03*
%TO.P,C47,2*%
%TO.N,Net-(C47-Pad2)*%
X199750000Y-82250000D03*
%TD*%
%TO.P,C17,1*%
%TO.N,Net-(U3-LX)*%
X186000000Y-83000000D03*
%TO.P,C17,2*%
%TO.N,Net-(U3-BS)*%
X187500000Y-83000000D03*
%TD*%
D12*
%TO.P,D12,1,K*%
%TO.N,+5V*%
X197750000Y-79500000D03*
%TO.P,D12,2,A*%
%TO.N,Net-(D12-A)*%
X197750000Y-82800000D03*
%TD*%
D11*
%TO.P,C20,1*%
%TO.N,Net-(U4-BP)*%
X184250000Y-89250000D03*
%TO.P,C20,2*%
%TO.N,GND*%
X184250000Y-90750000D03*
%TD*%
%TO.P,C16,1*%
%TO.N,VBAT*%
X183500000Y-79500000D03*
%TO.P,C16,2*%
%TO.N,GND*%
X182000000Y-79500000D03*
%TD*%
D13*
%TO.P,D3,1,K*%
%TO.N,+5V*%
X192500000Y-85500000D03*
%TO.P,D3,2,A*%
%TO.N,Net-(D3-A)*%
X192500000Y-89500000D03*
%TD*%
D14*
%TO.P,U2,1,FB*%
%TO.N,Net-(U2-FB)*%
X195000000Y-74850000D03*
%TO.P,U2,2,FS*%
%TO.N,Net-(U2-FS)*%
X195000000Y-75500000D03*
%TO.P,U2,3,GND*%
%TO.N,GND*%
X195000000Y-76150000D03*
%TO.P,U2,4,GND*%
X195000000Y-76800000D03*
%TO.P,U2,5,IN*%
%TO.N,VBAT*%
X192725000Y-76800000D03*
%TO.P,U2,6,LX*%
%TO.N,Net-(U2-LX)*%
X192725000Y-76150000D03*
%TO.P,U2,7,BS*%
%TO.N,Net-(U2-BS)*%
X192725000Y-75500000D03*
%TO.P,U2,8,EN*%
%TO.N,Net-(U2-EN)*%
X192725000Y-74850000D03*
%TD*%
D11*
%TO.P,R8,1*%
%TO.N,Net-(U3-FB)*%
X183500000Y-78000000D03*
%TO.P,R8,2*%
%TO.N,+9V*%
X182000000Y-78000000D03*
%TD*%
%TO.P,C18,1*%
%TO.N,+9V*%
X183500000Y-82500000D03*
%TO.P,C18,2*%
%TO.N,GND*%
X182000000Y-82500000D03*
%TD*%
%TO.P,C43,1*%
%TO.N,+5V*%
X201250000Y-77920000D03*
%TO.P,C43,2*%
%TO.N,GND*%
X199750000Y-77920000D03*
%TD*%
D15*
%TO.P,J4,1,Pin_1*%
%TO.N,GND*%
X206250000Y-84250000D03*
%TO.P,J4,2,Pin_2*%
%TO.N,VBAT*%
X206250000Y-85250000D03*
%TO.P,J4,3,Pin_3*%
%TO.N,/M1*%
X206250000Y-86250000D03*
%TO.P,J4,4,Pin_4*%
%TO.N,/M2*%
X206250000Y-87250000D03*
%TO.P,J4,5,Pin_5*%
%TO.N,/M3*%
X206250000Y-88250000D03*
%TO.P,J4,6,Pin_6*%
%TO.N,/M4*%
X206250000Y-89250000D03*
%TO.P,J4,7,Pin_7*%
%TO.N,/CURR*%
X206250000Y-90250000D03*
%TO.P,J4,8,Pin_8*%
%TO.N,/ESC_TLM*%
X206250000Y-91250000D03*
D16*
%TO.P,J4,MP*%
%TO.N,N/C*%
X210125000Y-82950000D03*
X210125000Y-92550000D03*
%TD*%
D17*
%TO.P,U4,1,IN*%
%TO.N,+5V*%
X187250000Y-92250000D03*
%TO.P,U4,2,GND*%
%TO.N,GND*%
X188200000Y-92250000D03*
%TO.P,U4,3,EN*%
%TO.N,+5V*%
X189150000Y-92250000D03*
%TO.P,U4,4,BP*%
%TO.N,Net-(U4-BP)*%
X189150000Y-94525000D03*
%TO.P,U4,5,OUT*%
%TO.N,+3.3V*%
X187250000Y-94525000D03*
%TD*%
D11*
%TO.P,C9,1*%
%TO.N,VBAT*%
X199750000Y-75000000D03*
%TO.P,C9,2*%
%TO.N,GND*%
X201250000Y-75000000D03*
%TD*%
D14*
%TO.P,U3,1,FB*%
%TO.N,Net-(U3-FB)*%
X187637500Y-75025000D03*
%TO.P,U3,2,FS*%
%TO.N,Net-(U3-FS)*%
X187637500Y-75675000D03*
%TO.P,U3,3,GND*%
%TO.N,GND*%
X187637500Y-76325000D03*
%TO.P,U3,4,GND*%
X187637500Y-76975000D03*
%TO.P,U3,5,IN*%
%TO.N,VBAT*%
X185362500Y-76975000D03*
%TO.P,U3,6,LX*%
%TO.N,Net-(U3-LX)*%
X185362500Y-76325000D03*
%TO.P,U3,7,BS*%
%TO.N,Net-(U3-BS)*%
X185362500Y-75675000D03*
%TO.P,U3,8,EN*%
%TO.N,Net-(U3-EN)*%
X185362500Y-75025000D03*
%TD*%
D17*
%TO.P,U10,1,IN*%
%TO.N,+5V*%
X192050000Y-92112500D03*
%TO.P,U10,2,GND*%
%TO.N,GND*%
X193000000Y-92112500D03*
%TO.P,U10,3,EN*%
%TO.N,+5V*%
X193950000Y-92112500D03*
%TO.P,U10,4,BP*%
%TO.N,Net-(U10-BP)*%
X193950000Y-94387500D03*
%TO.P,U10,5,OUT*%
%TO.N,Net-(U10-OUT)*%
X192050000Y-94387500D03*
%TD*%
D18*
%TO.P,L1,1,1*%
%TO.N,Net-(U2-LX)*%
X192000000Y-80000000D03*
%TO.P,L1,2,2*%
%TO.N,Net-(D12-A)*%
X195050000Y-80000000D03*
%TD*%
D11*
%TO.P,C45,1*%
%TO.N,Net-(U10-BP)*%
X199750000Y-79250000D03*
%TO.P,C45,2*%
%TO.N,GND*%
X201250000Y-79250000D03*
%TD*%
D19*
%TO.P,L5,1,1*%
%TO.N,Net-(U10-OUT)*%
X195750000Y-91150000D03*
%TO.P,L5,2,2*%
%TO.N,+3.3VA*%
X195750000Y-88850000D03*
%TD*%
D18*
%TO.P,L2,1,1*%
%TO.N,Net-(U3-LX)*%
X185450000Y-80000000D03*
%TO.P,L2,2,2*%
%TO.N,+9V*%
X188500000Y-80000000D03*
%TD*%
D20*
%TO.P,J5,1,Pin_1*%
%TO.N,+5V*%
X199500000Y-72750000D03*
%TO.P,J5,2,Pin_2*%
%TO.N,GND*%
X200500000Y-72750000D03*
%TO.P,J5,3,Pin_3*%
%TO.N,/USART5_TX*%
X201500000Y-72750000D03*
%TO.P,J5,4,Pin_4*%
%TO.N,/USART5_RX*%
X202500000Y-72750000D03*
D21*
%TO.P,J5,MP*%
%TO.N,N/C*%
X198200000Y-68875000D03*
X203800000Y-68875000D03*
%TD*%
D11*
%TO.P,C46,1*%
%TO.N,Net-(U10-OUT)*%
X201250000Y-80750000D03*
%TO.P,C46,2*%
%TO.N,GND*%
X199750000Y-80750000D03*
%TD*%
%TO.P,R12,1*%
%TO.N,GND*%
X200000000Y-97500000D03*
%TO.P,R12,2*%
%TO.N,Net-(J1-CC2)*%
X198500000Y-97500000D03*
%TD*%
D22*
%TO.P,L4,1,1*%
%TO.N,+5V*%
X195750000Y-84850000D03*
%TO.P,L4,2,2*%
%TO.N,+5VA*%
X195750000Y-87150000D03*
%TD*%
D11*
%TO.P,C14,1*%
%TO.N,Net-(U2-LX)*%
X194500000Y-83000000D03*
%TO.P,C14,2*%
%TO.N,Net-(U2-BS)*%
X193000000Y-83000000D03*
%TD*%
%TO.P,R9,1*%
%TO.N,GND*%
X182000000Y-75000000D03*
%TO.P,R9,2*%
%TO.N,Net-(U3-FS)*%
X183500000Y-75000000D03*
%TD*%
%TO.P,C32,1*%
%TO.N,+3.3VA*%
X185750000Y-90750000D03*
%TO.P,C32,2*%
%TO.N,GND*%
X185750000Y-89250000D03*
%TD*%
D15*
%TO.P,J3,1,Pin_1*%
%TO.N,+5V*%
X206250000Y-76500000D03*
%TO.P,J3,2,Pin_2*%
%TO.N,GND*%
X206250000Y-77500000D03*
%TO.P,J3,3,Pin_3*%
%TO.N,/USART1_TX*%
X206250000Y-78500000D03*
%TO.P,J3,4,Pin_4*%
%TO.N,/USART1_RX*%
X206250000Y-79500000D03*
D16*
%TO.P,J3,MP*%
%TO.N,N/C*%
X210125000Y-75200000D03*
X210125000Y-80800000D03*
%TD*%
D11*
%TO.P,C33,1*%
%TO.N,+5VA*%
X201250000Y-86500000D03*
%TO.P,C33,2*%
%TO.N,Net-(C33-Pad2)*%
X199750000Y-86500000D03*
%TD*%
D23*
%TO.P,J23,1,Pin_1*%
%TO.N,+5V*%
X178000000Y-85800000D03*
%TO.P,J23,2,Pin_2*%
%TO.N,GND*%
X178000000Y-84800000D03*
%TO.P,J23,3,Pin_3*%
%TO.N,/UART2_TX*%
X178000000Y-83800000D03*
%TO.P,J23,4,Pin_4*%
%TO.N,/UART2_RX*%
X178000000Y-82800000D03*
%TO.P,J23,5,Pin_5*%
%TO.N,I2C1_SCL*%
X178000000Y-81800000D03*
%TO.P,J23,6,Pin_6*%
%TO.N,I2C1_SDA*%
X178000000Y-80800000D03*
D24*
%TO.P,J23,MP*%
%TO.N,N/C*%
X174125000Y-87100000D03*
X174125000Y-79500000D03*
%TD*%
D11*
%TO.P,R7,1*%
%TO.N,Net-(U2-FB)*%
X198500000Y-76500000D03*
%TO.P,R7,2*%
%TO.N,Net-(D12-A)*%
X197000000Y-76500000D03*
%TD*%
%TO.P,C13,1*%
%TO.N,VBAT*%
X199750000Y-76500000D03*
%TO.P,C13,2*%
%TO.N,GND*%
X201250000Y-76500000D03*
%TD*%
%TO.P,C48,1*%
%TO.N,+3.3VA*%
X201250000Y-83750000D03*
%TO.P,C48,2*%
%TO.N,Net-(C47-Pad2)*%
X199750000Y-83750000D03*
%TD*%
%TO.P,R30,1*%
%TO.N,USB_DETECT*%
X200000000Y-100000000D03*
%TO.P,R30,2*%
%TO.N,Net-(D3-A)*%
X198500000Y-100000000D03*
%TD*%
D20*
%TO.P,J6,1,Pin_1*%
%TO.N,+9V*%
X190000000Y-72750000D03*
%TO.P,J6,2,Pin_2*%
%TO.N,GND*%
X191000000Y-72750000D03*
%TO.P,J6,3,Pin_3*%
%TO.N,/USART4_TX*%
X192000000Y-72750000D03*
%TO.P,J6,4,Pin_4*%
%TO.N,unconnected-(J6-Pin_4-Pad4)*%
X193000000Y-72750000D03*
%TO.P,J6,5,Pin_5*%
%TO.N,GND*%
X194000000Y-72750000D03*
%TO.P,J6,6,Pin_6*%
%TO.N,VIDEO_OUT*%
X195000000Y-72750000D03*
D21*
%TO.P,J6,MP*%
%TO.N,N/C*%
X188700000Y-68875000D03*
X196300000Y-68875000D03*
%TD*%
D20*
%TO.P,J22,1,Pin_1*%
%TO.N,+5V*%
X182107165Y-72755245D03*
%TO.P,J22,2,Pin_2*%
%TO.N,GND*%
X183107165Y-72755245D03*
%TO.P,J22,3,Pin_3*%
%TO.N,USART3_RX*%
X184107165Y-72755245D03*
%TO.P,J22,4,Pin_4*%
%TO.N,USART3_TX*%
X185107165Y-72755245D03*
D21*
%TO.P,J22,MP*%
%TO.N,N/C*%
X180807165Y-68880245D03*
X186407165Y-68880245D03*
%TD*%
D25*
%TO.P,J1,A1,GND*%
%TO.N,GND*%
X195250000Y-97805000D03*
%TO.P,J1,A4,VBUS*%
%TO.N,Net-(D3-A)*%
X194450000Y-97805000D03*
D26*
%TO.P,J1,A5,CC1*%
%TO.N,Net-(J1-CC1)*%
X193250000Y-97805000D03*
%TO.P,J1,A6,D+*%
%TO.N,/USB_DP*%
X192250000Y-97805000D03*
%TO.P,J1,A7,D-*%
%TO.N,/USB_DM*%
X191750000Y-97805000D03*
%TO.P,J1,A8,SBU1*%
%TO.N,unconnected-(J1-SBU1-PadA8)*%
X190750000Y-97805000D03*
D25*
%TO.P,J1,A9,VBUS*%
%TO.N,Net-(D3-A)*%
X189550000Y-97805000D03*
%TO.P,J1,A12,GND*%
%TO.N,GND*%
X188750000Y-97805000D03*
%TO.P,J1,B1,GND*%
X188750000Y-97805000D03*
%TO.P,J1,B4,VBUS*%
%TO.N,Net-(D3-A)*%
X189550000Y-97805000D03*
D26*
%TO.P,J1,B5,CC2*%
%TO.N,Net-(J1-CC2)*%
X190250000Y-97805000D03*
%TO.P,J1,B6,D+*%
%TO.N,/USB_DP*%
X191250000Y-97805000D03*
%TO.P,J1,B7,D-*%
%TO.N,/USB_DM*%
X192750000Y-97805000D03*
%TO.P,J1,B8,SBU2*%
%TO.N,unconnected-(J1-SBU2-PadB8)*%
X193750000Y-97805000D03*
D25*
%TO.P,J1,B9,VBUS*%
%TO.N,Net-(D3-A)*%
X194450000Y-97805000D03*
%TO.P,J1,B12,GND*%
%TO.N,GND*%
X195250000Y-97805000D03*
D27*
%TO.P,J1,S1,SHIELD*%
X196320000Y-102900000D03*
D28*
X196320000Y-98720000D03*
D27*
X187680000Y-102900000D03*
D28*
X187680000Y-98720000D03*
%TD*%
D11*
%TO.P,R13,1*%
%TO.N,GND*%
X200000000Y-98750000D03*
%TO.P,R13,2*%
%TO.N,Net-(J1-CC1)*%
X198500000Y-98750000D03*
%TD*%
%TO.P,R3,1*%
%TO.N,VBAT*%
X183500000Y-76500000D03*
%TO.P,R3,2*%
%TO.N,Net-(U3-EN)*%
X182000000Y-76500000D03*
%TD*%
%TO.P,R11,1*%
%TO.N,GND*%
X179000000Y-75000000D03*
%TO.P,R11,2*%
%TO.N,/BOOT0*%
X180500000Y-75000000D03*
%TD*%
%TO.P,R4,1*%
%TO.N,VBAT*%
X191000000Y-76500000D03*
%TO.P,R4,2*%
%TO.N,Net-(U2-EN)*%
X191000000Y-75000000D03*
%TD*%
%TO.P,C5,1*%
%TO.N,VBAT*%
X183500000Y-81000000D03*
%TO.P,C5,2*%
%TO.N,GND*%
X182000000Y-81000000D03*
%TD*%
%TO.P,R5,1*%
%TO.N,GND*%
X198500000Y-75000000D03*
%TO.P,R5,2*%
%TO.N,Net-(U2-FB)*%
X197000000Y-75000000D03*
%TD*%
D13*
%TO.P,D2,1,A1*%
%TO.N,VBAT*%
X188500000Y-85500000D03*
%TO.P,D2,2,A2*%
%TO.N,GND*%
X188500000Y-89500000D03*
%TD*%
D29*
%TO.P,SW1,1,A*%
%TO.N,/BOOT0*%
X174000000Y-74300000D03*
%TO.P,SW1,2,B*%
%TO.N,+3.3V*%
X174000000Y-77700000D03*
%TD*%
D11*
%TO.P,R10,1*%
%TO.N,GND*%
X189500000Y-76500000D03*
%TO.P,R10,2*%
%TO.N,Net-(U3-FB)*%
X189500000Y-75000000D03*
%TD*%
%TO.P,C35,1*%
%TO.N,+5VA*%
X201250000Y-85250000D03*
%TO.P,C35,2*%
%TO.N,Net-(C33-Pad2)*%
X199750000Y-85250000D03*
%TD*%
%TO.P,C15,1*%
%TO.N,Net-(D12-A)*%
X201250000Y-88000000D03*
%TO.P,C15,2*%
%TO.N,GND*%
X199750000Y-88000000D03*
%TD*%
%TO.P,R6,1*%
%TO.N,GND*%
X198500000Y-78000000D03*
%TO.P,R6,2*%
%TO.N,Net-(U2-FS)*%
X197000000Y-78000000D03*
%TD*%
%TA.AperFunction,Conductor*%
%TO.N,GND*%
G36*
X179899704Y-68520185D02*
G01*
X179945459Y-68572989D01*
X179956665Y-68624500D01*
X179956665Y-69578115D01*
X179956666Y-69578121D01*
X179963073Y-69637728D01*
X180013367Y-69772573D01*
X180013371Y-69772580D01*
X180099617Y-69887789D01*
X180099620Y-69887792D01*
X180214829Y-69974038D01*
X180214836Y-69974042D01*
X180349682Y-70024336D01*
X180349681Y-70024336D01*
X180356609Y-70025080D01*
X180409292Y-70030745D01*
X181205037Y-70030744D01*
X181264648Y-70024336D01*
X181399496Y-69974041D01*
X181514711Y-69887791D01*
X181600961Y-69772576D01*
X181651256Y-69637728D01*
X181657665Y-69578118D01*
X181657664Y-68624499D01*
X181677348Y-68557461D01*
X181730152Y-68511706D01*
X181781664Y-68500500D01*
X185432665Y-68500500D01*
X185499704Y-68520185D01*
X185545459Y-68572989D01*
X185556665Y-68624500D01*
X185556665Y-69578115D01*
X185556666Y-69578121D01*
X185563073Y-69637728D01*
X185613367Y-69772573D01*
X185613371Y-69772580D01*
X185699617Y-69887789D01*
X185699620Y-69887792D01*
X185814829Y-69974038D01*
X185814836Y-69974042D01*
X185949682Y-70024336D01*
X185949681Y-70024336D01*
X185956609Y-70025080D01*
X186009292Y-70030745D01*
X186805037Y-70030744D01*
X186864648Y-70024336D01*
X186999496Y-69974041D01*
X187114711Y-69887791D01*
X187200961Y-69772576D01*
X187251256Y-69637728D01*
X187257665Y-69578118D01*
X187257664Y-68624499D01*
X187277348Y-68557461D01*
X187330152Y-68511706D01*
X187381664Y-68500500D01*
X187725500Y-68500500D01*
X187792539Y-68520185D01*
X187838294Y-68572989D01*
X187849500Y-68624500D01*
X187849500Y-69572870D01*
X187849501Y-69572876D01*
X187855908Y-69632483D01*
X187906202Y-69767328D01*
X187906206Y-69767335D01*
X187992452Y-69882544D01*
X187992455Y-69882547D01*
X188107664Y-69968793D01*
X188107671Y-69968797D01*
X188242517Y-70019091D01*
X188242516Y-70019091D01*
X188249444Y-70019835D01*
X188302127Y-70025500D01*
X189097872Y-70025499D01*
X189157483Y-70019091D01*
X189292331Y-69968796D01*
X189407546Y-69882546D01*
X189493796Y-69767331D01*
X189544091Y-69632483D01*
X189550500Y-69572873D01*
X189550499Y-68624499D01*
X189570183Y-68557461D01*
X189622987Y-68511706D01*
X189674499Y-68500500D01*
X195325500Y-68500500D01*
X195392539Y-68520185D01*
X195438294Y-68572989D01*
X195449500Y-68624500D01*
X195449500Y-69572870D01*
X195449501Y-69572876D01*
X195455908Y-69632483D01*
X195506202Y-69767328D01*
X195506206Y-69767335D01*
X195592452Y-69882544D01*
X195592455Y-69882547D01*
X195707664Y-69968793D01*
X195707671Y-69968797D01*
X195842517Y-70019091D01*
X195842516Y-70019091D01*
X195849444Y-70019835D01*
X195902127Y-70025500D01*
X196697872Y-70025499D01*
X196757483Y-70019091D01*
X196892331Y-69968796D01*
X197007546Y-69882546D01*
X197093796Y-69767331D01*
X197133818Y-69660027D01*
X197175689Y-69604093D01*
X197241153Y-69579676D01*
X197309426Y-69594527D01*
X197358832Y-69643932D01*
X197366182Y-69660027D01*
X197406202Y-69767328D01*
X197406206Y-69767335D01*
X197492452Y-69882544D01*
X197492455Y-69882547D01*
X197607664Y-69968793D01*
X197607671Y-69968797D01*
X197742517Y-70019091D01*
X197742516Y-70019091D01*
X197749444Y-70019835D01*
X197802127Y-70025500D01*
X198597872Y-70025499D01*
X198657483Y-70019091D01*
X198792331Y-69968796D01*
X198907546Y-69882546D01*
X198993796Y-69767331D01*
X199044091Y-69632483D01*
X199050500Y-69572873D01*
X199050499Y-68624499D01*
X199070183Y-68557461D01*
X199122987Y-68511706D01*
X199174499Y-68500500D01*
X202825500Y-68500500D01*
X202892539Y-68520185D01*
X202938294Y-68572989D01*
X202949500Y-68624500D01*
X202949500Y-69572870D01*
X202949501Y-69572876D01*
X202955908Y-69632483D01*
X203006202Y-69767328D01*
X203006206Y-69767335D01*
X203092452Y-69882544D01*
X203092455Y-69882547D01*
X203207664Y-69968793D01*
X203207671Y-69968797D01*
X203342517Y-70019091D01*
X203342516Y-70019091D01*
X203349444Y-70019835D01*
X203402127Y-70025500D01*
X204197872Y-70025499D01*
X204257483Y-70019091D01*
X204392331Y-69968796D01*
X204507546Y-69882546D01*
X204593796Y-69767331D01*
X204644091Y-69632483D01*
X204650500Y-69572873D01*
X204650499Y-68624499D01*
X204670183Y-68557461D01*
X204722987Y-68511706D01*
X204774499Y-68500500D01*
X206677634Y-68500500D01*
X206744673Y-68520185D01*
X206790428Y-68572989D01*
X206800372Y-68642147D01*
X206771347Y-68705703D01*
X206712569Y-68743477D01*
X206705231Y-68745389D01*
X206664378Y-68754714D01*
X206404183Y-68814102D01*
X206404181Y-68814103D01*
X206080783Y-68927264D01*
X205772092Y-69075922D01*
X205481983Y-69258210D01*
X205214107Y-69471833D01*
X204971833Y-69714107D01*
X204758210Y-69981983D01*
X204575922Y-70272092D01*
X204427264Y-70580783D01*
X204314103Y-70904181D01*
X204314102Y-70904183D01*
X204237861Y-71238217D01*
X204237858Y-71238231D01*
X204199500Y-71578681D01*
X204199500Y-71921318D01*
X204237858Y-72261768D01*
X204237861Y-72261782D01*
X204314102Y-72595816D01*
X204314103Y-72595818D01*
X204427264Y-72919216D01*
X204575922Y-73227907D01*
X204575924Y-73227910D01*
X204758211Y-73518018D01*
X204886369Y-73678723D01*
X204967728Y-73780745D01*
X204971834Y-73785893D01*
X205214107Y-74028166D01*
X205481982Y-74241789D01*
X205772090Y-74424076D01*
X205772092Y-74424077D01*
X205861106Y-74466944D01*
X206080785Y-74572736D01*
X206404183Y-74685897D01*
X206738217Y-74762139D01*
X206738226Y-74762140D01*
X206738231Y-74762141D01*
X206965197Y-74787713D01*
X207078682Y-74800499D01*
X207078685Y-74800500D01*
X207078688Y-74800500D01*
X207421315Y-74800500D01*
X207421316Y-74800499D01*
X207595311Y-74780895D01*
X207761768Y-74762141D01*
X207761771Y-74762140D01*
X207761783Y-74762139D01*
X208095817Y-74685897D01*
X208419215Y-74572736D01*
X208727910Y-74424076D01*
X209018018Y-74241789D01*
X209285893Y-74028166D01*
X209528166Y-73785893D01*
X209741789Y-73518018D01*
X209924076Y-73227910D01*
X210072736Y-72919215D01*
X210185897Y-72595817D01*
X210254609Y-72294770D01*
X210288718Y-72233794D01*
X210350379Y-72200936D01*
X210420016Y-72206631D01*
X210475520Y-72249071D01*
X210499268Y-72314781D01*
X210499500Y-72322365D01*
X210499500Y-74225500D01*
X210479815Y-74292539D01*
X210427011Y-74338294D01*
X210375500Y-74349500D01*
X209427129Y-74349500D01*
X209427123Y-74349501D01*
X209367516Y-74355908D01*
X209232671Y-74406202D01*
X209232664Y-74406206D01*
X209117455Y-74492452D01*
X209117452Y-74492455D01*
X209031206Y-74607664D01*
X209031202Y-74607671D01*
X208980908Y-74742517D01*
X208974501Y-74802116D01*
X208974500Y-74802135D01*
X208974500Y-75597870D01*
X208974501Y-75597876D01*
X208980908Y-75657483D01*
X209031202Y-75792328D01*
X209031206Y-75792335D01*
X209117452Y-75907544D01*
X209117455Y-75907547D01*
X209232664Y-75993793D01*
X209232671Y-75993797D01*
X209367517Y-76044091D01*
X209367516Y-76044091D01*
X209374444Y-76044835D01*
X209427127Y-76050500D01*
X210375500Y-76050499D01*
X210442539Y-76070183D01*
X210488294Y-76122987D01*
X210499500Y-76174499D01*
X210499500Y-79825500D01*
X210479815Y-79892539D01*
X210427011Y-79938294D01*
X210375500Y-79949500D01*
X209427129Y-79949500D01*
X209427123Y-79949501D01*
X209367516Y-79955908D01*
X209232671Y-80006202D01*
X209232664Y-80006206D01*
X209117455Y-80092452D01*
X209117452Y-80092455D01*
X209031206Y-80207664D01*
X209031202Y-80207671D01*
X208980908Y-80342517D01*
X208974501Y-80402116D01*
X208974500Y-80402135D01*
X208974500Y-81197870D01*
X208974501Y-81197876D01*
X208980908Y-81257483D01*
X209031202Y-81392328D01*
X209031206Y-81392335D01*
X209117452Y-81507544D01*
X209117455Y-81507547D01*
X209232664Y-81593793D01*
X209232671Y-81593797D01*
X209367517Y-81644091D01*
X209367516Y-81644091D01*
X209374444Y-81644835D01*
X209427127Y-81650500D01*
X210375500Y-81650499D01*
X210384186Y-81653049D01*
X210393147Y-81651761D01*
X210417183Y-81662738D01*
X210442539Y-81670183D01*
X210448467Y-81677025D01*
X210456703Y-81680786D01*
X210470989Y-81703017D01*
X210488294Y-81722987D01*
X210490581Y-81733502D01*
X210494477Y-81739564D01*
X210499500Y-81774499D01*
X210499500Y-81975500D01*
X210479815Y-82042539D01*
X210427011Y-82088294D01*
X210375500Y-82099500D01*
X209427129Y-82099500D01*
X209427123Y-82099501D01*
X209367516Y-82105908D01*
X209232671Y-82156202D01*
X209232664Y-82156206D01*
X209117455Y-82242452D01*
X209117452Y-82242455D01*
X209031206Y-82357664D01*
X209031202Y-82357671D01*
X208980908Y-82492517D01*
X208974501Y-82552116D01*
X208974500Y-82552135D01*
X208974500Y-83347870D01*
X208974501Y-83347876D01*
X208980908Y-83407483D01*
X209031202Y-83542328D01*
X209031206Y-83542335D01*
X209117452Y-83657544D01*
X209117455Y-83657547D01*
X209232664Y-83743793D01*
X209232671Y-83743797D01*
X209367517Y-83794091D01*
X209367516Y-83794091D01*
X209374444Y-83794835D01*
X209427127Y-83800500D01*
X210375500Y-83800499D01*
X210442539Y-83820183D01*
X210488294Y-83872987D01*
X210499500Y-83924499D01*
X210499500Y-91575500D01*
X210479815Y-91642539D01*
X210427011Y-91688294D01*
X210375500Y-91699500D01*
X209427129Y-91699500D01*
X209427123Y-91699501D01*
X209367516Y-91705908D01*
X209232671Y-91756202D01*
X209232664Y-91756206D01*
X209117455Y-91842452D01*
X209117452Y-91842455D01*
X209031206Y-91957664D01*
X209031202Y-91957671D01*
X208980908Y-92092517D01*
X208974501Y-92152116D01*
X208974500Y-92152135D01*
X208974500Y-92947870D01*
X208974501Y-92947876D01*
X208980908Y-93007483D01*
X209031202Y-93142328D01*
X209031206Y-93142335D01*
X209117452Y-93257544D01*
X209117455Y-93257547D01*
X209232664Y-93343793D01*
X209232671Y-93343797D01*
X209367517Y-93394091D01*
X209367516Y-93394091D01*
X209374444Y-93394835D01*
X209427127Y-93400500D01*
X210375500Y-93400499D01*
X210442539Y-93420183D01*
X210488294Y-93472987D01*
X210499500Y-93524499D01*
X210499500Y-101677634D01*
X210479815Y-101744673D01*
X210427011Y-101790428D01*
X210357853Y-101800372D01*
X210294297Y-101771347D01*
X210256523Y-101712569D01*
X210254609Y-101705227D01*
X210185897Y-101404183D01*
X210185896Y-101404181D01*
X210072735Y-101080783D01*
X209924077Y-100772092D01*
X209838544Y-100635967D01*
X209741789Y-100481982D01*
X209528166Y-100214107D01*
X209285893Y-99971834D01*
X209018018Y-99758211D01*
X208771582Y-99603365D01*
X208727907Y-99575922D01*
X208419216Y-99427264D01*
X208095818Y-99314103D01*
X208095816Y-99314102D01*
X207804189Y-99247540D01*
X207761783Y-99237861D01*
X207761780Y-99237860D01*
X207761768Y-99237858D01*
X207421318Y-99199500D01*
X207421312Y-99199500D01*
X207078688Y-99199500D01*
X207078681Y-99199500D01*
X206738231Y-99237858D01*
X206738217Y-99237861D01*
X206404183Y-99314102D01*
X206404181Y-99314103D01*
X206080783Y-99427264D01*
X205772092Y-99575922D01*
X205481983Y-99758210D01*
X205214107Y-99971833D01*
X204971833Y-100214107D01*
X204758210Y-100481983D01*
X204575922Y-100772092D01*
X204427264Y-101080783D01*
X204314103Y-101404181D01*
X204314102Y-101404183D01*
X204237861Y-101738217D01*
X204237858Y-101738231D01*
X204199500Y-102078681D01*
X204199500Y-102421318D01*
X204237858Y-102761768D01*
X204237861Y-102761782D01*
X204314102Y-103095816D01*
X204314103Y-103095818D01*
X204427264Y-103419216D01*
X204575922Y-103727907D01*
X204575924Y-103727910D01*
X204758211Y-104018018D01*
X204971834Y-104285893D01*
X205214107Y-104528166D01*
X205481982Y-104741789D01*
X205772090Y-104924076D01*
X206080785Y-105072736D01*
X206404183Y-105185897D01*
X206705227Y-105254609D01*
X206766205Y-105288718D01*
X206799063Y-105350379D01*
X206793368Y-105420017D01*
X206750928Y-105475520D01*
X206685218Y-105499268D01*
X206677634Y-105499500D01*
X177322366Y-105499500D01*
X177255327Y-105479815D01*
X177209572Y-105427011D01*
X177199628Y-105357853D01*
X177228653Y-105294297D01*
X177287431Y-105256523D01*
X177294768Y-105254610D01*
X177595817Y-105185897D01*
X177919215Y-105072736D01*
X178227910Y-104924076D01*
X178518018Y-104741789D01*
X178785893Y-104528166D01*
X179028166Y-104285893D01*
X179241789Y-104018018D01*
X179424076Y-103727910D01*
X179572736Y-103419215D01*
X179685897Y-103095817D01*
X179762139Y-102761783D01*
X179763572Y-102749071D01*
X179788691Y-102526126D01*
X186930000Y-102526126D01*
X186930000Y-102775000D01*
X187380000Y-102775000D01*
X187380000Y-103025000D01*
X186930000Y-103025000D01*
X186930000Y-103273873D01*
X186958820Y-103418759D01*
X186958822Y-103418767D01*
X187015357Y-103555254D01*
X187015362Y-103555264D01*
X187097436Y-103678096D01*
X187097439Y-103678100D01*
X187201899Y-103782560D01*
X187201903Y-103782563D01*
X187324735Y-103864637D01*
X187324745Y-103864642D01*
X187461232Y-103921177D01*
X187461240Y-103921179D01*
X187554999Y-103939829D01*
X187555000Y-103939829D01*
X187555000Y-103474242D01*
X187564204Y-103479556D01*
X187640504Y-103500000D01*
X187719496Y-103500000D01*
X187795796Y-103479556D01*
X187805000Y-103474242D01*
X187805000Y-103939829D01*
X187898759Y-103921179D01*
X187898767Y-103921177D01*
X188035254Y-103864642D01*
X188035264Y-103864637D01*
X188158096Y-103782563D01*
X188158100Y-103782560D01*
X188262560Y-103678100D01*
X188262563Y-103678096D01*
X188344637Y-103555264D01*
X188344642Y-103555254D01*
X188401177Y-103418767D01*
X188401179Y-103418759D01*
X188429999Y-103273873D01*
X188430000Y-103273871D01*
X188430000Y-103025000D01*
X187980000Y-103025000D01*
X187980000Y-102775000D01*
X188430000Y-102775000D01*
X188430000Y-102526128D01*
X188429999Y-102526126D01*
X195570000Y-102526126D01*
X195570000Y-102775000D01*
X196020000Y-102775000D01*
X196020000Y-103025000D01*
X195570000Y-103025000D01*
X195570000Y-103273873D01*
X195598820Y-103418759D01*
X195598822Y-103418767D01*
X195655357Y-103555254D01*
X195655362Y-103555264D01*
X195737436Y-103678096D01*
X195737439Y-103678100D01*
X195841899Y-103782560D01*
X195841903Y-103782563D01*
X195964735Y-103864637D01*
X195964745Y-103864642D01*
X196101232Y-103921177D01*
X196101240Y-103921179D01*
X196194999Y-103939829D01*
X196195000Y-103939829D01*
X196195000Y-103474242D01*
X196204204Y-103479556D01*
X196280504Y-103500000D01*
X196359496Y-103500000D01*
X196435796Y-103479556D01*
X196445000Y-103474242D01*
X196445000Y-103939829D01*
X196538759Y-103921179D01*
X196538767Y-103921177D01*
X196675254Y-103864642D01*
X196675264Y-103864637D01*
X196798096Y-103782563D01*
X196798100Y-103782560D01*
X196902560Y-103678100D01*
X196902563Y-103678096D01*
X196984637Y-103555264D01*
X196984642Y-103555254D01*
X197041177Y-103418767D01*
X197041179Y-103418759D01*
X197069999Y-103273873D01*
X197070000Y-103273871D01*
X197070000Y-103025000D01*
X196620000Y-103025000D01*
X196620000Y-102775000D01*
X197070000Y-102775000D01*
X197070000Y-102526128D01*
X197069999Y-102526126D01*
X197041179Y-102381240D01*
X197041177Y-102381232D01*
X196984642Y-102244745D01*
X196984637Y-102244735D01*
X196902563Y-102121903D01*
X196902560Y-102121899D01*
X196798100Y-102017439D01*
X196798096Y-102017436D01*
X196675264Y-101935362D01*
X196675254Y-101935357D01*
X196538765Y-101878821D01*
X196538761Y-101878820D01*
X196445000Y-101860169D01*
X196445000Y-102325757D01*
X196435796Y-102320444D01*
X196359496Y-102300000D01*
X196280504Y-102300000D01*
X196204204Y-102320444D01*
X196195000Y-102325757D01*
X196195000Y-101860170D01*
X196194999Y-101860169D01*
X196101238Y-101878820D01*
X196101234Y-101878821D01*
X195964745Y-101935357D01*
X195964735Y-101935362D01*
X195841903Y-102017436D01*
X195841899Y-102017439D01*
X195737439Y-102121899D01*
X195737436Y-102121903D01*
X195655362Y-102244735D01*
X195655357Y-102244745D01*
X195598822Y-102381232D01*
X195598820Y-102381240D01*
X195570000Y-102526126D01*
X188429999Y-102526126D01*
X188401179Y-102381240D01*
X188401177Y-102381232D01*
X188344642Y-102244745D01*
X188344637Y-102244735D01*
X188262563Y-102121903D01*
X188262560Y-102121899D01*
X188158100Y-102017439D01*
X188158096Y-102017436D01*
X188035264Y-101935362D01*
X188035254Y-101935357D01*
X187898765Y-101878821D01*
X187898761Y-101878820D01*
X187805000Y-101860169D01*
X187805000Y-102325757D01*
X187795796Y-102320444D01*
X187719496Y-102300000D01*
X187640504Y-102300000D01*
X187564204Y-102320444D01*
X187555000Y-102325757D01*
X187555000Y-101860170D01*
X187554999Y-101860169D01*
X187461238Y-101878820D01*
X187461234Y-101878821D01*
X187324745Y-101935357D01*
X187324735Y-101935362D01*
X187201903Y-102017436D01*
X187201899Y-102017439D01*
X187097439Y-102121899D01*
X187097436Y-102121903D01*
X187015362Y-102244735D01*
X187015357Y-102244745D01*
X186958822Y-102381232D01*
X186958820Y-102381240D01*
X186930000Y-102526126D01*
X179788691Y-102526126D01*
X179790941Y-102506156D01*
X179800499Y-102421318D01*
X179800500Y-102421314D01*
X179800500Y-102078685D01*
X179800499Y-102078681D01*
X179762141Y-101738231D01*
X179762140Y-101738226D01*
X179762139Y-101738217D01*
X179685897Y-101404183D01*
X179572736Y-101080785D01*
X179424076Y-100772090D01*
X179241789Y-100481982D01*
X179028166Y-100214107D01*
X178785893Y-99971834D01*
X178518018Y-99758211D01*
X178271582Y-99603365D01*
X178227907Y-99575922D01*
X177919216Y-99427264D01*
X177595818Y-99314103D01*
X177595816Y-99314102D01*
X177304189Y-99247540D01*
X177261783Y-99237861D01*
X177261780Y-99237860D01*
X177261768Y-99237858D01*
X176921318Y-99199500D01*
X176921312Y-99199500D01*
X176578688Y-99199500D01*
X176578681Y-99199500D01*
X176238231Y-99237858D01*
X176238217Y-99237861D01*
X175904183Y-99314102D01*
X175904181Y-99314103D01*
X175580783Y-99427264D01*
X175272092Y-99575922D01*
X174981983Y-99758210D01*
X174714107Y-99971833D01*
X174471833Y-100214107D01*
X174258210Y-100481983D01*
X174075922Y-100772092D01*
X173927264Y-101080783D01*
X173814103Y-101404181D01*
X173814102Y-101404183D01*
X173745391Y-101705227D01*
X173711282Y-101766205D01*
X173649621Y-101799063D01*
X173579983Y-101793368D01*
X173524480Y-101750928D01*
X173500732Y-101685218D01*
X173500500Y-101677634D01*
X173500500Y-98096126D01*
X186930000Y-98096126D01*
X186930000Y-98595000D01*
X187380000Y-98595000D01*
X187380000Y-98845000D01*
X186930000Y-98845000D01*
X186930000Y-99343873D01*
X186958820Y-99488759D01*
X186958822Y-99488767D01*
X187015357Y-99625254D01*
X187015362Y-99625264D01*
X187097436Y-99748096D01*
X187097439Y-99748100D01*
X187201899Y-99852560D01*
X187201903Y-99852563D01*
X187324735Y-99934637D01*
X187324745Y-99934642D01*
X187461232Y-99991177D01*
X187461240Y-99991179D01*
X187554999Y-100009829D01*
X187555000Y-100009829D01*
X187555000Y-99544242D01*
X187564204Y-99549556D01*
X187640504Y-99570000D01*
X187719496Y-99570000D01*
X187795796Y-99549556D01*
X187805000Y-99544242D01*
X187805000Y-100009829D01*
X187898759Y-99991179D01*
X187898767Y-99991177D01*
X188035254Y-99934642D01*
X188035264Y-99934637D01*
X188158096Y-99852563D01*
X188158100Y-99852560D01*
X188262560Y-99748100D01*
X188262563Y-99748096D01*
X188344637Y-99625264D01*
X188344644Y-99625251D01*
X188381041Y-99537381D01*
X188424882Y-99482977D01*
X188491176Y-99460912D01*
X188558875Y-99478191D01*
X188602989Y-99522832D01*
X188649485Y-99603365D01*
X188756635Y-99710515D01*
X188887865Y-99786281D01*
X189034234Y-99825500D01*
X189034236Y-99825500D01*
X189185764Y-99825500D01*
X189185766Y-99825500D01*
X189332135Y-99786281D01*
X189463365Y-99710515D01*
X189570515Y-99603365D01*
X189646281Y-99472135D01*
X189685500Y-99325766D01*
X189685500Y-99174234D01*
X189646281Y-99027865D01*
X189610851Y-98966500D01*
X189594379Y-98898601D01*
X189617231Y-98832574D01*
X189672152Y-98789383D01*
X189718239Y-98780500D01*
X189874676Y-98780500D01*
X189950808Y-98765356D01*
X189999192Y-98765356D01*
X190075323Y-98780500D01*
X190075326Y-98780500D01*
X190424674Y-98780500D01*
X190475811Y-98770328D01*
X190524189Y-98770328D01*
X190575326Y-98780500D01*
X190924674Y-98780500D01*
X190975811Y-98770328D01*
X191024189Y-98770328D01*
X191075326Y-98780500D01*
X191424674Y-98780500D01*
X191475811Y-98770328D01*
X191524189Y-98770328D01*
X191575326Y-98780500D01*
X191924674Y-98780500D01*
X191975811Y-98770328D01*
X192024189Y-98770328D01*
X192075326Y-98780500D01*
X192424674Y-98780500D01*
X192475811Y-98770328D01*
X192524189Y-98770328D01*
X192575326Y-98780500D01*
X192924674Y-98780500D01*
X192975811Y-98770328D01*
X193024189Y-98770328D01*
X193075326Y-98780500D01*
X193424674Y-98780500D01*
X193475811Y-98770328D01*
X193524189Y-98770328D01*
X193575326Y-98780500D01*
X193924676Y-98780500D01*
X194000808Y-98765356D01*
X194049192Y-98765356D01*
X194125323Y-98780500D01*
X194125326Y-98780500D01*
X194281761Y-98780500D01*
X194348800Y-98800185D01*
X194394555Y-98852989D01*
X194404499Y-98922147D01*
X194389148Y-98966501D01*
X194353719Y-99027863D01*
X194314500Y-99174234D01*
X194314500Y-99325766D01*
X194324754Y-99364034D01*
X194353719Y-99472136D01*
X194391388Y-99537380D01*
X194429485Y-99603365D01*
X194536635Y-99710515D01*
X194667865Y-99786281D01*
X194814234Y-99825500D01*
X194814236Y-99825500D01*
X194965764Y-99825500D01*
X194965766Y-99825500D01*
X195112135Y-99786281D01*
X195243365Y-99710515D01*
X195350515Y-99603365D01*
X195397010Y-99522832D01*
X195447577Y-99474617D01*
X195516184Y-99461394D01*
X195581049Y-99487362D01*
X195618958Y-99537380D01*
X195655357Y-99625254D01*
X195655362Y-99625264D01*
X195737436Y-99748096D01*
X195737439Y-99748100D01*
X195841899Y-99852560D01*
X195841903Y-99852563D01*
X195964735Y-99934637D01*
X195964745Y-99934642D01*
X196101232Y-99991177D01*
X196101240Y-99991179D01*
X196194999Y-100009829D01*
X196195000Y-100009829D01*
X196195000Y-99544242D01*
X196204204Y-99549556D01*
X196280504Y-99570000D01*
X196359496Y-99570000D01*
X196435796Y-99549556D01*
X196445000Y-99544242D01*
X196445000Y-100009829D01*
X196538759Y-99991179D01*
X196538767Y-99991177D01*
X196675254Y-99934642D01*
X196675264Y-99934637D01*
X196798096Y-99852563D01*
X196798100Y-99852560D01*
X196902560Y-99748100D01*
X196902563Y-99748096D01*
X196984637Y-99625264D01*
X196984642Y-99625254D01*
X197041177Y-99488767D01*
X197041179Y-99488759D01*
X197069999Y-99343873D01*
X197070000Y-99343871D01*
X197070000Y-98845000D01*
X196620000Y-98845000D01*
X196620000Y-98595000D01*
X197070000Y-98595000D01*
X197070000Y-98096128D01*
X197069999Y-98096126D01*
X197041179Y-97951240D01*
X197041177Y-97951232D01*
X196984642Y-97814745D01*
X196984637Y-97814735D01*
X196902563Y-97691903D01*
X196902560Y-97691899D01*
X196798100Y-97587439D01*
X196798096Y-97587436D01*
X196675264Y-97505362D01*
X196675254Y-97505357D01*
X196538765Y-97448821D01*
X196538761Y-97448820D01*
X196445000Y-97430169D01*
X196445000Y-97895757D01*
X196435796Y-97890444D01*
X196359496Y-97870000D01*
X196280504Y-97870000D01*
X196204204Y-97890444D01*
X196195000Y-97895757D01*
X196195000Y-97430170D01*
X196194999Y-97430169D01*
X196101238Y-97448820D01*
X196101234Y-97448821D01*
X195971453Y-97502579D01*
X195901984Y-97510048D01*
X195839504Y-97478773D01*
X195803852Y-97418684D01*
X195800000Y-97388018D01*
X195800000Y-97075321D01*
X197849500Y-97075321D01*
X197849500Y-97924678D01*
X197864032Y-97997735D01*
X197864033Y-97997738D01*
X197903035Y-98056111D01*
X197923911Y-98122789D01*
X197905425Y-98190169D01*
X197903035Y-98193889D01*
X197864033Y-98252261D01*
X197864032Y-98252264D01*
X197849500Y-98325321D01*
X197849500Y-99174678D01*
X197864032Y-99247735D01*
X197864033Y-99247738D01*
X197903035Y-99306111D01*
X197923911Y-99372789D01*
X197905425Y-99440169D01*
X197903035Y-99443889D01*
X197864033Y-99502261D01*
X197864032Y-99502264D01*
X197849500Y-99575321D01*
X197849500Y-100424678D01*
X197864032Y-100497735D01*
X197864033Y-100497739D01*
X197864034Y-100497740D01*
X197919399Y-100580601D01*
X198002260Y-100635966D01*
X198002264Y-100635967D01*
X198075321Y-100650499D01*
X198075324Y-100650500D01*
X198075326Y-100650500D01*
X198924676Y-100650500D01*
X198924677Y-100650499D01*
X198997740Y-100635966D01*
X199080601Y-100580601D01*
X199135966Y-100497740D01*
X199135966Y-100497739D01*
X199142751Y-100487585D01*
X199143984Y-100488409D01*
X199179278Y-100444610D01*
X199245571Y-100422544D01*
X199313271Y-100439822D01*
X199360883Y-100490958D01*
X199363862Y-100497482D01*
X199364033Y-100497739D01*
X199364034Y-100497740D01*
X199419399Y-100580601D01*
X199502260Y-100635966D01*
X199502264Y-100635967D01*
X199575321Y-100650499D01*
X199575324Y-100650500D01*
X199575326Y-100650500D01*
X200424676Y-100650500D01*
X200424677Y-100650499D01*
X200497740Y-100635966D01*
X200580601Y-100580601D01*
X200635966Y-100497740D01*
X200650500Y-100424674D01*
X200650500Y-99575326D01*
X200650500Y-99575323D01*
X200650499Y-99575321D01*
X200635967Y-99502264D01*
X200635966Y-99502261D01*
X200635966Y-99502260D01*
X200635964Y-99502258D01*
X200635964Y-99502256D01*
X200596664Y-99443439D01*
X200575786Y-99376762D01*
X200594271Y-99309382D01*
X200596664Y-99305657D01*
X200635496Y-99247541D01*
X200635496Y-99247540D01*
X200649999Y-99174628D01*
X200650000Y-99174626D01*
X200650000Y-98875000D01*
X200124000Y-98875000D01*
X200115314Y-98872449D01*
X200106353Y-98873738D01*
X200082312Y-98862759D01*
X200056961Y-98855315D01*
X200051033Y-98848474D01*
X200042797Y-98844713D01*
X200028507Y-98822478D01*
X200011206Y-98802511D01*
X200008918Y-98791996D01*
X200005023Y-98785935D01*
X200000000Y-98751000D01*
X200000000Y-98750000D01*
X199999000Y-98750000D01*
X199931961Y-98730315D01*
X199886206Y-98677511D01*
X199875000Y-98626000D01*
X199875000Y-98625000D01*
X200125000Y-98625000D01*
X200650000Y-98625000D01*
X200650000Y-98325373D01*
X200649999Y-98325371D01*
X200635496Y-98252459D01*
X200635495Y-98252455D01*
X200596363Y-98193891D01*
X200575485Y-98127214D01*
X200593969Y-98059834D01*
X200596363Y-98056109D01*
X200635495Y-97997544D01*
X200635496Y-97997540D01*
X200649999Y-97924628D01*
X200650000Y-97924626D01*
X200650000Y-97625000D01*
X200125000Y-97625000D01*
X200125000Y-98625000D01*
X199875000Y-98625000D01*
X199875000Y-97375000D01*
X200125000Y-97375000D01*
X200650000Y-97375000D01*
X200650000Y-97075373D01*
X200649999Y-97075371D01*
X200635496Y-97002459D01*
X200635494Y-97002455D01*
X200580239Y-96919760D01*
X200497544Y-96864505D01*
X200497540Y-96864503D01*
X200424627Y-96850000D01*
X200125000Y-96850000D01*
X200125000Y-97375000D01*
X199875000Y-97375000D01*
X199875000Y-96850000D01*
X199575373Y-96850000D01*
X199502459Y-96864503D01*
X199502455Y-96864505D01*
X199419760Y-96919760D01*
X199357720Y-97012610D01*
X199356607Y-97011866D01*
X199320991Y-97056060D01*
X199254696Y-97078121D01*
X199186997Y-97060839D01*
X199139389Y-97009699D01*
X199136049Y-97002385D01*
X199135966Y-97002261D01*
X199135966Y-97002260D01*
X199080601Y-96919399D01*
X198997740Y-96864034D01*
X198997739Y-96864033D01*
X198997735Y-96864032D01*
X198924677Y-96849500D01*
X198924674Y-96849500D01*
X198075326Y-96849500D01*
X198075323Y-96849500D01*
X198002264Y-96864032D01*
X198002260Y-96864033D01*
X197919399Y-96919399D01*
X197864033Y-97002260D01*
X197864032Y-97002264D01*
X197849500Y-97075321D01*
X195800000Y-97075321D01*
X195800000Y-97055373D01*
X195799999Y-97055371D01*
X195785496Y-96982459D01*
X195785494Y-96982455D01*
X195730239Y-96899760D01*
X195647544Y-96844505D01*
X195647540Y-96844503D01*
X195574627Y-96830000D01*
X195375000Y-96830000D01*
X195375000Y-98650709D01*
X195373287Y-98656541D01*
X195374437Y-98662510D01*
X195363557Y-98689676D01*
X195355315Y-98717748D01*
X195350722Y-98721727D01*
X195348462Y-98727372D01*
X195324618Y-98744346D01*
X195302511Y-98763503D01*
X195296495Y-98764367D01*
X195291543Y-98767894D01*
X195262314Y-98769282D01*
X195233353Y-98773447D01*
X195226270Y-98770995D01*
X195221752Y-98771210D01*
X195188988Y-98758089D01*
X195186988Y-98756934D01*
X195138778Y-98706362D01*
X195125000Y-98649554D01*
X195125000Y-97930000D01*
X195124500Y-97930000D01*
X195115814Y-97927449D01*
X195106853Y-97928738D01*
X195082812Y-97917759D01*
X195057461Y-97910315D01*
X195051533Y-97903474D01*
X195043297Y-97899713D01*
X195029007Y-97877478D01*
X195011706Y-97857511D01*
X195009418Y-97846996D01*
X195005523Y-97840935D01*
X195000500Y-97806000D01*
X195000500Y-97804000D01*
X195020185Y-97736961D01*
X195072989Y-97691206D01*
X195124500Y-97680000D01*
X195125000Y-97680000D01*
X195125000Y-96830000D01*
X194925375Y-96830000D01*
X194875470Y-96839926D01*
X194827091Y-96839926D01*
X194774674Y-96829500D01*
X194125326Y-96829500D01*
X194049190Y-96844644D01*
X194000810Y-96844644D01*
X193924674Y-96829500D01*
X193575326Y-96829500D01*
X193524190Y-96839671D01*
X193475810Y-96839671D01*
X193424674Y-96829500D01*
X193075326Y-96829500D01*
X193024190Y-96839671D01*
X192975810Y-96839671D01*
X192924674Y-96829500D01*
X192575326Y-96829500D01*
X192524190Y-96839671D01*
X192475810Y-96839671D01*
X192424674Y-96829500D01*
X192075326Y-96829500D01*
X192024190Y-96839671D01*
X191975810Y-96839671D01*
X191924674Y-96829500D01*
X191575326Y-96829500D01*
X191524190Y-96839671D01*
X191475810Y-96839671D01*
X191424674Y-96829500D01*
X191075326Y-96829500D01*
X191024190Y-96839671D01*
X190975810Y-96839671D01*
X190924674Y-96829500D01*
X190575326Y-96829500D01*
X190524190Y-96839671D01*
X190475810Y-96839671D01*
X190424674Y-96829500D01*
X190075326Y-96829500D01*
X189999190Y-96844644D01*
X189950810Y-96844644D01*
X189874674Y-96829500D01*
X189225326Y-96829500D01*
X189225325Y-96829500D01*
X189172906Y-96839926D01*
X189124527Y-96839926D01*
X189074624Y-96830000D01*
X188875000Y-96830000D01*
X188875000Y-98649554D01*
X188871620Y-98661064D01*
X188872762Y-98673007D01*
X188861957Y-98693970D01*
X188855315Y-98716593D01*
X188845449Y-98726000D01*
X188840753Y-98735114D01*
X188813012Y-98756934D01*
X188811012Y-98758089D01*
X188743114Y-98774569D01*
X188677084Y-98751724D01*
X188633888Y-98696808D01*
X188625000Y-98650709D01*
X188625000Y-97930000D01*
X188194000Y-97930000D01*
X188185314Y-97927449D01*
X188176353Y-97928738D01*
X188152312Y-97917759D01*
X188126961Y-97910315D01*
X188121033Y-97903474D01*
X188112797Y-97899713D01*
X188098507Y-97877478D01*
X188081206Y-97857511D01*
X188078918Y-97846996D01*
X188075023Y-97840935D01*
X188070000Y-97806000D01*
X188070000Y-97804000D01*
X188089685Y-97736961D01*
X188142489Y-97691206D01*
X188194000Y-97680000D01*
X188625000Y-97680000D01*
X188625000Y-96830000D01*
X188425373Y-96830000D01*
X188352459Y-96844503D01*
X188352455Y-96844505D01*
X188269760Y-96899760D01*
X188214505Y-96982455D01*
X188214503Y-96982459D01*
X188200000Y-97055371D01*
X188200000Y-97388018D01*
X188180315Y-97455057D01*
X188127511Y-97500812D01*
X188058353Y-97510756D01*
X188028547Y-97502579D01*
X187898765Y-97448821D01*
X187898761Y-97448820D01*
X187805000Y-97430169D01*
X187805000Y-97895757D01*
X187795796Y-97890444D01*
X187719496Y-97870000D01*
X187640504Y-97870000D01*
X187564204Y-97890444D01*
X187555000Y-97895757D01*
X187555000Y-97430170D01*
X187554999Y-97430169D01*
X187461238Y-97448820D01*
X187461234Y-97448821D01*
X187324745Y-97505357D01*
X187324735Y-97505362D01*
X187201903Y-97587436D01*
X187201899Y-97587439D01*
X187097439Y-97691899D01*
X187097436Y-97691903D01*
X187015362Y-97814735D01*
X187015357Y-97814745D01*
X186958822Y-97951232D01*
X186958820Y-97951240D01*
X186930000Y-98096126D01*
X173500500Y-98096126D01*
X173500500Y-93980975D01*
X186699500Y-93980975D01*
X186699500Y-95069017D01*
X186710292Y-95137157D01*
X186714354Y-95162804D01*
X186771950Y-95275842D01*
X186771952Y-95275844D01*
X186771954Y-95275847D01*
X186861652Y-95365545D01*
X186861654Y-95365546D01*
X186861658Y-95365550D01*
X186974694Y-95423145D01*
X186974698Y-95423147D01*
X187068475Y-95437999D01*
X187068481Y-95438000D01*
X187431518Y-95437999D01*
X187525304Y-95423146D01*
X187638342Y-95365550D01*
X187728050Y-95275842D01*
X187785646Y-95162804D01*
X187785646Y-95162802D01*
X187785647Y-95162801D01*
X187800499Y-95069024D01*
X187800500Y-95069019D01*
X187800499Y-93980982D01*
X187800498Y-93980975D01*
X188599500Y-93980975D01*
X188599500Y-95069017D01*
X188610292Y-95137157D01*
X188614354Y-95162804D01*
X188671950Y-95275842D01*
X188671952Y-95275844D01*
X188671954Y-95275847D01*
X188761652Y-95365545D01*
X188761654Y-95365546D01*
X188761658Y-95365550D01*
X188874694Y-95423145D01*
X188874698Y-95423147D01*
X188968475Y-95437999D01*
X188968481Y-95438000D01*
X189331518Y-95437999D01*
X189425304Y-95423146D01*
X189538342Y-95365550D01*
X189628050Y-95275842D01*
X189685646Y-95162804D01*
X189685646Y-95162802D01*
X189685647Y-95162801D01*
X189700499Y-95069024D01*
X189700500Y-95069019D01*
X189700499Y-93980982D01*
X189685646Y-93887196D01*
X189663369Y-93843475D01*
X191499500Y-93843475D01*
X191499500Y-94931517D01*
X191510292Y-94999657D01*
X191514354Y-95025304D01*
X191571950Y-95138342D01*
X191571952Y-95138344D01*
X191571954Y-95138347D01*
X191661652Y-95228045D01*
X191661654Y-95228046D01*
X191661658Y-95228050D01*
X191774694Y-95285645D01*
X191774698Y-95285647D01*
X191868475Y-95300499D01*
X191868481Y-95300500D01*
X192231518Y-95300499D01*
X192325304Y-95285646D01*
X192438342Y-95228050D01*
X192528050Y-95138342D01*
X192585646Y-95025304D01*
X192585646Y-95025302D01*
X192585647Y-95025301D01*
X192600499Y-94931524D01*
X192600500Y-94931519D01*
X192600499Y-93843482D01*
X192600498Y-93843475D01*
X193399500Y-93843475D01*
X193399500Y-94931517D01*
X193410292Y-94999657D01*
X193414354Y-95025304D01*
X193471950Y-95138342D01*
X193471952Y-95138344D01*
X193471954Y-95138347D01*
X193561652Y-95228045D01*
X193561654Y-95228046D01*
X193561658Y-95228050D01*
X193674694Y-95285645D01*
X193674698Y-95285647D01*
X193768475Y-95300499D01*
X193768481Y-95300500D01*
X194131518Y-95300499D01*
X194225304Y-95285646D01*
X194338342Y-95228050D01*
X194428050Y-95138342D01*
X194485646Y-95025304D01*
X194485646Y-95025302D01*
X194485647Y-95025301D01*
X194500499Y-94931524D01*
X194500500Y-94931519D01*
X194500499Y-93843482D01*
X194485646Y-93749696D01*
X194428050Y-93636658D01*
X194428046Y-93636654D01*
X194428045Y-93636652D01*
X194338347Y-93546954D01*
X194338344Y-93546952D01*
X194338342Y-93546950D01*
X194261517Y-93507805D01*
X194225301Y-93489352D01*
X194131524Y-93474500D01*
X193768482Y-93474500D01*
X193687519Y-93487323D01*
X193674696Y-93489354D01*
X193561658Y-93546950D01*
X193561657Y-93546951D01*
X193561652Y-93546954D01*
X193471954Y-93636652D01*
X193471951Y-93636657D01*
X193414352Y-93749698D01*
X193399500Y-93843475D01*
X192600498Y-93843475D01*
X192585646Y-93749696D01*
X192528050Y-93636658D01*
X192528046Y-93636654D01*
X192528045Y-93636652D01*
X192438347Y-93546954D01*
X192438344Y-93546952D01*
X192438342Y-93546950D01*
X192361517Y-93507805D01*
X192325301Y-93489352D01*
X192231524Y-93474500D01*
X191868482Y-93474500D01*
X191787519Y-93487323D01*
X191774696Y-93489354D01*
X191661658Y-93546950D01*
X191661657Y-93546951D01*
X191661652Y-93546954D01*
X191571954Y-93636652D01*
X191571951Y-93636657D01*
X191514352Y-93749698D01*
X191499500Y-93843475D01*
X189663369Y-93843475D01*
X189628050Y-93774158D01*
X189628046Y-93774154D01*
X189628045Y-93774152D01*
X189538347Y-93684454D01*
X189538344Y-93684452D01*
X189538342Y-93684450D01*
X189461517Y-93645305D01*
X189425301Y-93626852D01*
X189331524Y-93612000D01*
X188968482Y-93612000D01*
X188887519Y-93624823D01*
X188874696Y-93626854D01*
X188761658Y-93684450D01*
X188761657Y-93684451D01*
X188761652Y-93684454D01*
X188671954Y-93774152D01*
X188671951Y-93774157D01*
X188614352Y-93887198D01*
X188599500Y-93980975D01*
X187800498Y-93980975D01*
X187785646Y-93887196D01*
X187728050Y-93774158D01*
X187728046Y-93774154D01*
X187728045Y-93774152D01*
X187638347Y-93684454D01*
X187638344Y-93684452D01*
X187638342Y-93684450D01*
X187561517Y-93645305D01*
X187525301Y-93626852D01*
X187431524Y-93612000D01*
X187068482Y-93612000D01*
X186987519Y-93624823D01*
X186974696Y-93626854D01*
X186861658Y-93684450D01*
X186861657Y-93684451D01*
X186861652Y-93684454D01*
X186771954Y-93774152D01*
X186771951Y-93774157D01*
X186714352Y-93887198D01*
X186699500Y-93980975D01*
X173500500Y-93980975D01*
X173500500Y-91705975D01*
X186699500Y-91705975D01*
X186699500Y-92794017D01*
X186710292Y-92862157D01*
X186714354Y-92887804D01*
X186771950Y-93000842D01*
X186771952Y-93000844D01*
X186771954Y-93000847D01*
X186861652Y-93090545D01*
X186861654Y-93090546D01*
X186861658Y-93090550D01*
X186973746Y-93147662D01*
X186974698Y-93148147D01*
X187062116Y-93161991D01*
X187065311Y-93162498D01*
X187068475Y-93162999D01*
X187068481Y-93163000D01*
X187431518Y-93162999D01*
X187525304Y-93148146D01*
X187638342Y-93090550D01*
X187638349Y-93090542D01*
X187646241Y-93084811D01*
X187647142Y-93086052D01*
X187698974Y-93057739D01*
X187768667Y-93062712D01*
X187803536Y-93085117D01*
X187804056Y-93084402D01*
X187811953Y-93090139D01*
X187924855Y-93147666D01*
X188018514Y-93162499D01*
X188074999Y-93162498D01*
X188075000Y-93162498D01*
X188075000Y-91337500D01*
X188325000Y-91337500D01*
X188325000Y-93162499D01*
X188381479Y-93162499D01*
X188475149Y-93147664D01*
X188475155Y-93147662D01*
X188588041Y-93090143D01*
X188595944Y-93084402D01*
X188596941Y-93085774D01*
X188648278Y-93057737D01*
X188717971Y-93062716D01*
X188753311Y-93085427D01*
X188753759Y-93084811D01*
X188761653Y-93090545D01*
X188761658Y-93090550D01*
X188873746Y-93147662D01*
X188874698Y-93148147D01*
X188962116Y-93161991D01*
X188965311Y-93162498D01*
X188968475Y-93162999D01*
X188968481Y-93163000D01*
X189331518Y-93162999D01*
X189425304Y-93148146D01*
X189538342Y-93090550D01*
X189628050Y-93000842D01*
X189685646Y-92887804D01*
X189685646Y-92887802D01*
X189685647Y-92887801D01*
X189700499Y-92794024D01*
X189700500Y-92794019D01*
X189700499Y-91705982D01*
X189685646Y-91612196D01*
X189628050Y-91499158D01*
X189628046Y-91499154D01*
X189628045Y-91499152D01*
X189538347Y-91409454D01*
X189538344Y-91409452D01*
X189538342Y-91409450D01*
X189461517Y-91370305D01*
X189425301Y-91351852D01*
X189331524Y-91337000D01*
X188968482Y-91337000D01*
X188887519Y-91349823D01*
X188874696Y-91351854D01*
X188761658Y-91409450D01*
X188761657Y-91409451D01*
X188753759Y-91415189D01*
X188752858Y-91413949D01*
X188701005Y-91442264D01*
X188631313Y-91437280D01*
X188596463Y-91414882D01*
X188595944Y-91415598D01*
X188588046Y-91409860D01*
X188475144Y-91352333D01*
X188381486Y-91337500D01*
X188325000Y-91337500D01*
X188075000Y-91337500D01*
X188074999Y-91337499D01*
X188018521Y-91337500D01*
X187924849Y-91352335D01*
X187924844Y-91352337D01*
X187811958Y-91409856D01*
X187804056Y-91415598D01*
X187803060Y-91414227D01*
X187751700Y-91442266D01*
X187682008Y-91437276D01*
X187646688Y-91414572D01*
X187646241Y-91415189D01*
X187638345Y-91409453D01*
X187638342Y-91409450D01*
X187561517Y-91370305D01*
X187525301Y-91351852D01*
X187431524Y-91337000D01*
X187068482Y-91337000D01*
X186987519Y-91349823D01*
X186974696Y-91351854D01*
X186861658Y-91409450D01*
X186861657Y-91409451D01*
X186861652Y-91409454D01*
X186771954Y-91499152D01*
X186771951Y-91499157D01*
X186771950Y-91499158D01*
X186752751Y-91536837D01*
X186714352Y-91612198D01*
X186699500Y-91705975D01*
X173500500Y-91705975D01*
X173500500Y-91174628D01*
X183600000Y-91174628D01*
X183614503Y-91247540D01*
X183614505Y-91247544D01*
X183669760Y-91330239D01*
X183752455Y-91385494D01*
X183752459Y-91385496D01*
X183825371Y-91399999D01*
X183825374Y-91400000D01*
X184125000Y-91400000D01*
X184125000Y-90875000D01*
X183600000Y-90875000D01*
X183600000Y-91174628D01*
X173500500Y-91174628D01*
X173500500Y-88825321D01*
X183599500Y-88825321D01*
X183599500Y-89674678D01*
X183614032Y-89747735D01*
X183614033Y-89747739D01*
X183614034Y-89747740D01*
X183669399Y-89830601D01*
X183752260Y-89885966D01*
X183762415Y-89892751D01*
X183761704Y-89893814D01*
X183806058Y-89929558D01*
X183828121Y-89995853D01*
X183810840Y-90063552D01*
X183759702Y-90111161D01*
X183752615Y-90114398D01*
X183669760Y-90169760D01*
X183614505Y-90252455D01*
X183614503Y-90252459D01*
X183600000Y-90325371D01*
X183600000Y-90625000D01*
X184126000Y-90625000D01*
X184134685Y-90627550D01*
X184143647Y-90626262D01*
X184167687Y-90637240D01*
X184193039Y-90644685D01*
X184198966Y-90651525D01*
X184207203Y-90655287D01*
X184221492Y-90677521D01*
X184238794Y-90697489D01*
X184241081Y-90708003D01*
X184244977Y-90714065D01*
X184250000Y-90749000D01*
X184250000Y-90750000D01*
X184251000Y-90750000D01*
X184318039Y-90769685D01*
X184363794Y-90822489D01*
X184375000Y-90874000D01*
X184375000Y-91400000D01*
X184674626Y-91400000D01*
X184674628Y-91399999D01*
X184747540Y-91385496D01*
X184747544Y-91385494D01*
X184830239Y-91330239D01*
X184892280Y-91237390D01*
X184893393Y-91238134D01*
X184928996Y-91193947D01*
X184995289Y-91171878D01*
X185062990Y-91189153D01*
X185110603Y-91240287D01*
X185113950Y-91247614D01*
X185114033Y-91247739D01*
X185114034Y-91247740D01*
X185169399Y-91330601D01*
X185251554Y-91385494D01*
X185252260Y-91385966D01*
X185252264Y-91385967D01*
X185325321Y-91400499D01*
X185325324Y-91400500D01*
X185325326Y-91400500D01*
X186174676Y-91400500D01*
X186174677Y-91400499D01*
X186247740Y-91385966D01*
X186330601Y-91330601D01*
X186385966Y-91247740D01*
X186400500Y-91174674D01*
X186400500Y-90547844D01*
X187350000Y-90547844D01*
X187356401Y-90607372D01*
X187356403Y-90607379D01*
X187406645Y-90742086D01*
X187406649Y-90742093D01*
X187492809Y-90857187D01*
X187492812Y-90857190D01*
X187607906Y-90943350D01*
X187607913Y-90943354D01*
X187742620Y-90993596D01*
X187742627Y-90993598D01*
X187802155Y-90999999D01*
X187802172Y-91000000D01*
X188375000Y-91000000D01*
X188625000Y-91000000D01*
X189197828Y-91000000D01*
X189197844Y-90999999D01*
X189257372Y-90993598D01*
X189257379Y-90993596D01*
X189392086Y-90943354D01*
X189392093Y-90943350D01*
X189507187Y-90857190D01*
X189507190Y-90857187D01*
X189593350Y-90742093D01*
X189593354Y-90742086D01*
X189643596Y-90607379D01*
X189643598Y-90607372D01*
X189649999Y-90547844D01*
X189650000Y-90547827D01*
X189650000Y-89625000D01*
X188625000Y-89625000D01*
X188625000Y-91000000D01*
X188375000Y-91000000D01*
X188375000Y-89625000D01*
X187350000Y-89625000D01*
X187350000Y-90547844D01*
X186400500Y-90547844D01*
X186400500Y-90325326D01*
X186400500Y-90325323D01*
X186400499Y-90325321D01*
X186385967Y-90252264D01*
X186385966Y-90252260D01*
X186330601Y-90169399D01*
X186247740Y-90114034D01*
X186247739Y-90114033D01*
X186237585Y-90107249D01*
X186238294Y-90106186D01*
X186193938Y-90070436D01*
X186171878Y-90004140D01*
X186189162Y-89936442D01*
X186240302Y-89888835D01*
X186247385Y-89885600D01*
X186330239Y-89830239D01*
X186385494Y-89747544D01*
X186385496Y-89747540D01*
X186399999Y-89674628D01*
X186400000Y-89674626D01*
X186400000Y-89375000D01*
X185874000Y-89375000D01*
X185865314Y-89372449D01*
X185856353Y-89373738D01*
X185832312Y-89362759D01*
X185806961Y-89355315D01*
X185801033Y-89348474D01*
X185792797Y-89344713D01*
X185778507Y-89322478D01*
X185761206Y-89302511D01*
X185758918Y-89291996D01*
X185755023Y-89285935D01*
X185750000Y-89251000D01*
X185750000Y-89250000D01*
X185749000Y-89250000D01*
X185681961Y-89230315D01*
X185636206Y-89177511D01*
X185625000Y-89126000D01*
X185625000Y-89125000D01*
X185875000Y-89125000D01*
X186400000Y-89125000D01*
X186400000Y-88825373D01*
X186399999Y-88825371D01*
X186385496Y-88752459D01*
X186385494Y-88752455D01*
X186330239Y-88669760D01*
X186247544Y-88614505D01*
X186247540Y-88614503D01*
X186174627Y-88600000D01*
X185875000Y-88600000D01*
X185875000Y-89125000D01*
X185625000Y-89125000D01*
X185625000Y-88600000D01*
X185325373Y-88600000D01*
X185252459Y-88614503D01*
X185252455Y-88614505D01*
X185169760Y-88669760D01*
X185107720Y-88762610D01*
X185106607Y-88761866D01*
X185070991Y-88806060D01*
X185004696Y-88828121D01*
X184936997Y-88810839D01*
X184889389Y-88759699D01*
X184886049Y-88752385D01*
X184885966Y-88752261D01*
X184885966Y-88752260D01*
X184830601Y-88669399D01*
X184747740Y-88614034D01*
X184747739Y-88614033D01*
X184747735Y-88614032D01*
X184674677Y-88599500D01*
X184674674Y-88599500D01*
X183825326Y-88599500D01*
X183825323Y-88599500D01*
X183752264Y-88614032D01*
X183752260Y-88614033D01*
X183669399Y-88669399D01*
X183614033Y-88752260D01*
X183614032Y-88752264D01*
X183599500Y-88825321D01*
X173500500Y-88825321D01*
X173500500Y-88452155D01*
X187350000Y-88452155D01*
X187350000Y-89375000D01*
X188375000Y-89375000D01*
X188625000Y-89375000D01*
X189650000Y-89375000D01*
X189650000Y-88452164D01*
X189649997Y-88452135D01*
X191349500Y-88452135D01*
X191349500Y-90547870D01*
X191349501Y-90547876D01*
X191355908Y-90607483D01*
X191406202Y-90742328D01*
X191406206Y-90742335D01*
X191492452Y-90857544D01*
X191492455Y-90857547D01*
X191607664Y-90943793D01*
X191607671Y-90943797D01*
X191746356Y-90995523D01*
X191802290Y-91037394D01*
X191826707Y-91102858D01*
X191811856Y-91171131D01*
X191762451Y-91220537D01*
X191759344Y-91222175D01*
X191661658Y-91271950D01*
X191661657Y-91271951D01*
X191661652Y-91271954D01*
X191571954Y-91361652D01*
X191571951Y-91361657D01*
X191571950Y-91361658D01*
X191559564Y-91385967D01*
X191514352Y-91474698D01*
X191499500Y-91568475D01*
X191499500Y-92656517D01*
X191510292Y-92724657D01*
X191514354Y-92750304D01*
X191571950Y-92863342D01*
X191571952Y-92863344D01*
X191571954Y-92863347D01*
X191661652Y-92953045D01*
X191661654Y-92953046D01*
X191661658Y-92953050D01*
X191768488Y-93007483D01*
X191774698Y-93010647D01*
X191862116Y-93024491D01*
X191865311Y-93024998D01*
X191868475Y-93025499D01*
X191868481Y-93025500D01*
X192231518Y-93025499D01*
X192325304Y-93010646D01*
X192438342Y-92953050D01*
X192438349Y-92953042D01*
X192446241Y-92947311D01*
X192447142Y-92948552D01*
X192498974Y-92920239D01*
X192568667Y-92925212D01*
X192603536Y-92947617D01*
X192604056Y-92946902D01*
X192611953Y-92952639D01*
X192724855Y-93010166D01*
X192818514Y-93024999D01*
X192874999Y-93024998D01*
X192875000Y-93024998D01*
X192875000Y-92236500D01*
X192877550Y-92227814D01*
X192876262Y-92218853D01*
X192887240Y-92194812D01*
X192894685Y-92169461D01*
X192901525Y-92163533D01*
X192905287Y-92155297D01*
X192927521Y-92141007D01*
X192947489Y-92123706D01*
X192958003Y-92121418D01*
X192964065Y-92117523D01*
X192999000Y-92112500D01*
X193001000Y-92112500D01*
X193068039Y-92132185D01*
X193113794Y-92184989D01*
X193125000Y-92236500D01*
X193125000Y-93024999D01*
X193181479Y-93024999D01*
X193275149Y-93010164D01*
X193275155Y-93010162D01*
X193388041Y-92952643D01*
X193395944Y-92946902D01*
X193396941Y-92948274D01*
X193448278Y-92920237D01*
X193517971Y-92925216D01*
X193553311Y-92947927D01*
X193553759Y-92947311D01*
X193561653Y-92953045D01*
X193561658Y-92953050D01*
X193668488Y-93007483D01*
X193674698Y-93010647D01*
X193762116Y-93024491D01*
X193765311Y-93024998D01*
X193768475Y-93025499D01*
X193768481Y-93025500D01*
X194131518Y-93025499D01*
X194225304Y-93010646D01*
X194338342Y-92953050D01*
X194428050Y-92863342D01*
X194485646Y-92750304D01*
X194485646Y-92750302D01*
X194485647Y-92750301D01*
X194500499Y-92656524D01*
X194500500Y-92656519D01*
X194500499Y-91568482D01*
X194485646Y-91474696D01*
X194428050Y-91361658D01*
X194428046Y-91361654D01*
X194428045Y-91361652D01*
X194338347Y-91271954D01*
X194338344Y-91271952D01*
X194338342Y-91271950D01*
X194237439Y-91220537D01*
X194225301Y-91214352D01*
X194131524Y-91199500D01*
X193768482Y-91199500D01*
X193687519Y-91212323D01*
X193674696Y-91214354D01*
X193561658Y-91271950D01*
X193561657Y-91271951D01*
X193553759Y-91277689D01*
X193552858Y-91276449D01*
X193501005Y-91304764D01*
X193431313Y-91299780D01*
X193414759Y-91292177D01*
X193265321Y-91209753D01*
X193242098Y-91186332D01*
X193218118Y-91163684D01*
X193217610Y-91161636D01*
X193216126Y-91160139D01*
X193209253Y-91127885D01*
X193201323Y-91095863D01*
X193202003Y-91093865D01*
X193201564Y-91091803D01*
X193213222Y-91060944D01*
X193223861Y-91029728D01*
X193225512Y-91028416D01*
X193226258Y-91026443D01*
X193252753Y-91006783D01*
X193278576Y-90986277D01*
X193281838Y-90985007D01*
X193392331Y-90943796D01*
X193507546Y-90857546D01*
X193530318Y-90827127D01*
X194899500Y-90827127D01*
X194899500Y-90827134D01*
X194899500Y-90827135D01*
X194899500Y-91472870D01*
X194899501Y-91472876D01*
X194905908Y-91532483D01*
X194956202Y-91667328D01*
X194956206Y-91667335D01*
X195042452Y-91782544D01*
X195042455Y-91782547D01*
X195157664Y-91868793D01*
X195157671Y-91868797D01*
X195292517Y-91919091D01*
X195292516Y-91919091D01*
X195299444Y-91919835D01*
X195352127Y-91925500D01*
X196147872Y-91925499D01*
X196207483Y-91919091D01*
X196342331Y-91868796D01*
X196457546Y-91782546D01*
X196543796Y-91667331D01*
X196594091Y-91532483D01*
X196600500Y-91472873D01*
X196600499Y-90827128D01*
X196594091Y-90767517D01*
X196587369Y-90749495D01*
X196543797Y-90632671D01*
X196543793Y-90632664D01*
X196457547Y-90517455D01*
X196457544Y-90517452D01*
X196342335Y-90431206D01*
X196342328Y-90431202D01*
X196207482Y-90380908D01*
X196207483Y-90380908D01*
X196147883Y-90374501D01*
X196147881Y-90374500D01*
X196147873Y-90374500D01*
X196147864Y-90374500D01*
X195352129Y-90374500D01*
X195352123Y-90374501D01*
X195292516Y-90380908D01*
X195157671Y-90431202D01*
X195157664Y-90431206D01*
X195042455Y-90517452D01*
X195042452Y-90517455D01*
X194956206Y-90632664D01*
X194956202Y-90632671D01*
X194912442Y-90750000D01*
X194905909Y-90767517D01*
X194899500Y-90827127D01*
X193530318Y-90827127D01*
X193593796Y-90742331D01*
X193644091Y-90607483D01*
X193650500Y-90547873D01*
X193650499Y-88452128D01*
X193644091Y-88392517D01*
X193621767Y-88332664D01*
X193593797Y-88257671D01*
X193593793Y-88257664D01*
X193507547Y-88142455D01*
X193507544Y-88142452D01*
X193392335Y-88056206D01*
X193392328Y-88056202D01*
X193257482Y-88005908D01*
X193257483Y-88005908D01*
X193197883Y-87999501D01*
X193197881Y-87999500D01*
X193197873Y-87999500D01*
X193197864Y-87999500D01*
X191802129Y-87999500D01*
X191802123Y-87999501D01*
X191742516Y-88005908D01*
X191607671Y-88056202D01*
X191607664Y-88056206D01*
X191492455Y-88142452D01*
X191492452Y-88142455D01*
X191406206Y-88257664D01*
X191406202Y-88257671D01*
X191355908Y-88392517D01*
X191351715Y-88431524D01*
X191349501Y-88452123D01*
X191349500Y-88452135D01*
X189649997Y-88452135D01*
X189643598Y-88392627D01*
X189643596Y-88392620D01*
X189593354Y-88257913D01*
X189593350Y-88257906D01*
X189507190Y-88142812D01*
X189507187Y-88142809D01*
X189392093Y-88056649D01*
X189392086Y-88056645D01*
X189257379Y-88006403D01*
X189257372Y-88006401D01*
X189197844Y-88000000D01*
X188625000Y-88000000D01*
X188625000Y-89375000D01*
X188375000Y-89375000D01*
X188375000Y-88000000D01*
X187802155Y-88000000D01*
X187742627Y-88006401D01*
X187742620Y-88006403D01*
X187607913Y-88056645D01*
X187607906Y-88056649D01*
X187492812Y-88142809D01*
X187492809Y-88142812D01*
X187406649Y-88257906D01*
X187406645Y-88257913D01*
X187356403Y-88392620D01*
X187356401Y-88392627D01*
X187350000Y-88452155D01*
X173500500Y-88452155D01*
X173500500Y-88074499D01*
X173520185Y-88007460D01*
X173572989Y-87961705D01*
X173624500Y-87950499D01*
X174822871Y-87950499D01*
X174822872Y-87950499D01*
X174882483Y-87944091D01*
X175017331Y-87893796D01*
X175132546Y-87807546D01*
X175218796Y-87692331D01*
X175269091Y-87557483D01*
X175275500Y-87497873D01*
X175275499Y-86702128D01*
X175269091Y-86642517D01*
X175256024Y-86607483D01*
X175218797Y-86507671D01*
X175218793Y-86507664D01*
X175132547Y-86392455D01*
X175132544Y-86392452D01*
X175017335Y-86306206D01*
X175017328Y-86306202D01*
X174882482Y-86255908D01*
X174882483Y-86255908D01*
X174822883Y-86249501D01*
X174822881Y-86249500D01*
X174822873Y-86249500D01*
X174822865Y-86249500D01*
X173624500Y-86249500D01*
X173557461Y-86229815D01*
X173511706Y-86177011D01*
X173500500Y-86125500D01*
X173500500Y-85618475D01*
X176974500Y-85618475D01*
X176974500Y-85981517D01*
X176985292Y-86049657D01*
X176989354Y-86075304D01*
X177046950Y-86188342D01*
X177046952Y-86188344D01*
X177046954Y-86188347D01*
X177136652Y-86278045D01*
X177136654Y-86278046D01*
X177136658Y-86278050D01*
X177249694Y-86335645D01*
X177249698Y-86335647D01*
X177343475Y-86350499D01*
X177343481Y-86350500D01*
X178656518Y-86350499D01*
X178750304Y-86335646D01*
X178863342Y-86278050D01*
X178953050Y-86188342D01*
X179010646Y-86075304D01*
X179010646Y-86075302D01*
X179010647Y-86075301D01*
X179025499Y-85981524D01*
X179025500Y-85981519D01*
X179025499Y-85618482D01*
X179010646Y-85524696D01*
X178953050Y-85411658D01*
X178953046Y-85411654D01*
X178953045Y-85411652D01*
X178928720Y-85387327D01*
X178895235Y-85326004D01*
X178900219Y-85256312D01*
X178928723Y-85211962D01*
X178952639Y-85188046D01*
X179010166Y-85075144D01*
X179025000Y-84981486D01*
X179025000Y-84925000D01*
X176975001Y-84925000D01*
X176975001Y-84981479D01*
X176989835Y-85075149D01*
X176989837Y-85075155D01*
X177047356Y-85188041D01*
X177071278Y-85211963D01*
X177104764Y-85273286D01*
X177099780Y-85342978D01*
X177071281Y-85387326D01*
X177046952Y-85411655D01*
X177046951Y-85411657D01*
X177046950Y-85411658D01*
X177036828Y-85431524D01*
X176989352Y-85524698D01*
X176974500Y-85618475D01*
X173500500Y-85618475D01*
X173500500Y-80618475D01*
X176974500Y-80618475D01*
X176974500Y-80981517D01*
X176985292Y-81049657D01*
X176989354Y-81075304D01*
X177046950Y-81188342D01*
X177046952Y-81188344D01*
X177046954Y-81188347D01*
X177070926Y-81212319D01*
X177104411Y-81273642D01*
X177099427Y-81343334D01*
X177070926Y-81387681D01*
X177046954Y-81411652D01*
X177046951Y-81411657D01*
X177046950Y-81411658D01*
X177040318Y-81424674D01*
X176989352Y-81524698D01*
X176974500Y-81618475D01*
X176974500Y-81981517D01*
X176979394Y-82012415D01*
X176989354Y-82075304D01*
X177046950Y-82188342D01*
X177046952Y-82188344D01*
X177046954Y-82188347D01*
X177070926Y-82212319D01*
X177104411Y-82273642D01*
X177099427Y-82343334D01*
X177070926Y-82387681D01*
X177046954Y-82411652D01*
X177046951Y-82411657D01*
X176989352Y-82524698D01*
X176974500Y-82618475D01*
X176974500Y-82981517D01*
X176978129Y-83004429D01*
X176989354Y-83075304D01*
X177046950Y-83188342D01*
X177046952Y-83188344D01*
X177046954Y-83188347D01*
X177070926Y-83212319D01*
X177104411Y-83273642D01*
X177099427Y-83343334D01*
X177070926Y-83387681D01*
X177046954Y-83411652D01*
X177046951Y-83411657D01*
X177046950Y-83411658D01*
X177040318Y-83424674D01*
X176989352Y-83524698D01*
X176974500Y-83618475D01*
X176974500Y-83981517D01*
X176985292Y-84049657D01*
X176989354Y-84075304D01*
X177046950Y-84188342D01*
X177046952Y-84188344D01*
X177046954Y-84188347D01*
X177071279Y-84212672D01*
X177104764Y-84273995D01*
X177099780Y-84343687D01*
X177071279Y-84388034D01*
X177047363Y-84411949D01*
X177047360Y-84411953D01*
X176989833Y-84524855D01*
X176975000Y-84618513D01*
X176975000Y-84675000D01*
X179024999Y-84675000D01*
X179024999Y-84618520D01*
X179010164Y-84524850D01*
X179010163Y-84524848D01*
X179002752Y-84510304D01*
X178965848Y-84452135D01*
X187349500Y-84452135D01*
X187349500Y-86547870D01*
X187349501Y-86547876D01*
X187355908Y-86607483D01*
X187406202Y-86742328D01*
X187406206Y-86742335D01*
X187492452Y-86857544D01*
X187492455Y-86857547D01*
X187607664Y-86943793D01*
X187607671Y-86943797D01*
X187742517Y-86994091D01*
X187742516Y-86994091D01*
X187749444Y-86994835D01*
X187802127Y-87000500D01*
X189197872Y-87000499D01*
X189257483Y-86994091D01*
X189392331Y-86943796D01*
X189507546Y-86857546D01*
X189593796Y-86742331D01*
X189644091Y-86607483D01*
X189650500Y-86547873D01*
X189650499Y-84452135D01*
X191349500Y-84452135D01*
X191349500Y-86547870D01*
X191349501Y-86547876D01*
X191355908Y-86607483D01*
X191406202Y-86742328D01*
X191406206Y-86742335D01*
X191492452Y-86857544D01*
X191492455Y-86857547D01*
X191607664Y-86943793D01*
X191607671Y-86943797D01*
X191742517Y-86994091D01*
X191742516Y-86994091D01*
X191749444Y-86994835D01*
X191802127Y-87000500D01*
X193197872Y-87000499D01*
X193257483Y-86994091D01*
X193392331Y-86943796D01*
X193507546Y-86857546D01*
X193530318Y-86827127D01*
X194899500Y-86827127D01*
X194899500Y-86827134D01*
X194899500Y-86827135D01*
X194899500Y-87472870D01*
X194899501Y-87472876D01*
X194905908Y-87532483D01*
X194956202Y-87667328D01*
X194956206Y-87667335D01*
X195042452Y-87782544D01*
X195042455Y-87782547D01*
X195157664Y-87868793D01*
X195157671Y-87868797D01*
X195197944Y-87883818D01*
X195253878Y-87925689D01*
X195278295Y-87991153D01*
X195263443Y-88059426D01*
X195214038Y-88108832D01*
X195197944Y-88116182D01*
X195157671Y-88131202D01*
X195157664Y-88131206D01*
X195042455Y-88217452D01*
X195042452Y-88217455D01*
X194956206Y-88332664D01*
X194956202Y-88332671D01*
X194911635Y-88452164D01*
X194905909Y-88467517D01*
X194899500Y-88527127D01*
X194899500Y-88527134D01*
X194899500Y-88527135D01*
X194899500Y-89172870D01*
X194899501Y-89172876D01*
X194905908Y-89232483D01*
X194956202Y-89367328D01*
X194956206Y-89367335D01*
X195042452Y-89482544D01*
X195042455Y-89482547D01*
X195157664Y-89568793D01*
X195157671Y-89568797D01*
X195292517Y-89619091D01*
X195292516Y-89619091D01*
X195299444Y-89619835D01*
X195352127Y-89625500D01*
X196147872Y-89625499D01*
X196207483Y-89619091D01*
X196342331Y-89568796D01*
X196457546Y-89482546D01*
X196543796Y-89367331D01*
X196594091Y-89232483D01*
X196600500Y-89172873D01*
X196600499Y-88527128D01*
X196594091Y-88467517D01*
X196588361Y-88452155D01*
X196578094Y-88424628D01*
X199100000Y-88424628D01*
X199114503Y-88497540D01*
X199114505Y-88497544D01*
X199169760Y-88580239D01*
X199252455Y-88635494D01*
X199252459Y-88635496D01*
X199325371Y-88649999D01*
X199325374Y-88650000D01*
X199625000Y-88650000D01*
X199625000Y-88125000D01*
X199100000Y-88125000D01*
X199100000Y-88424628D01*
X196578094Y-88424628D01*
X196543797Y-88332671D01*
X196543793Y-88332664D01*
X196457547Y-88217455D01*
X196457544Y-88217452D01*
X196342335Y-88131206D01*
X196342326Y-88131201D01*
X196302056Y-88116182D01*
X196246122Y-88074312D01*
X196221704Y-88008847D01*
X196236555Y-87940574D01*
X196285960Y-87891168D01*
X196302056Y-87883818D01*
X196342326Y-87868798D01*
X196342326Y-87868797D01*
X196342331Y-87868796D01*
X196457546Y-87782546D01*
X196543796Y-87667331D01*
X196594091Y-87532483D01*
X196600500Y-87472873D01*
X196600499Y-86827128D01*
X196594091Y-86767517D01*
X196587369Y-86749495D01*
X196543797Y-86632671D01*
X196543793Y-86632664D01*
X196457547Y-86517455D01*
X196457544Y-86517452D01*
X196342335Y-86431206D01*
X196342328Y-86431202D01*
X196207482Y-86380908D01*
X196207483Y-86380908D01*
X196147883Y-86374501D01*
X196147881Y-86374500D01*
X196147873Y-86374500D01*
X196147864Y-86374500D01*
X195352129Y-86374500D01*
X195352123Y-86374501D01*
X195292516Y-86380908D01*
X195157671Y-86431202D01*
X195157664Y-86431206D01*
X195042455Y-86517452D01*
X195042452Y-86517455D01*
X194956206Y-86632664D01*
X194956202Y-86632671D01*
X194912442Y-86750000D01*
X194905909Y-86767517D01*
X194899500Y-86827127D01*
X193530318Y-86827127D01*
X193593796Y-86742331D01*
X193644091Y-86607483D01*
X193650500Y-86547873D01*
X193650499Y-84527127D01*
X194899500Y-84527127D01*
X194899500Y-84527134D01*
X194899500Y-84527135D01*
X194899500Y-85172870D01*
X194899501Y-85172876D01*
X194905908Y-85232483D01*
X194956202Y-85367328D01*
X194956206Y-85367335D01*
X195042452Y-85482544D01*
X195042455Y-85482547D01*
X195157664Y-85568793D01*
X195157671Y-85568797D01*
X195292517Y-85619091D01*
X195292516Y-85619091D01*
X195299444Y-85619835D01*
X195352127Y-85625500D01*
X196147872Y-85625499D01*
X196207483Y-85619091D01*
X196342331Y-85568796D01*
X196457546Y-85482546D01*
X196543796Y-85367331D01*
X196594091Y-85232483D01*
X196600500Y-85172873D01*
X196600499Y-84527128D01*
X196594091Y-84467517D01*
X196588351Y-84452128D01*
X196543797Y-84332671D01*
X196543793Y-84332664D01*
X196457547Y-84217455D01*
X196457544Y-84217452D01*
X196342335Y-84131206D01*
X196342328Y-84131202D01*
X196207482Y-84080908D01*
X196207483Y-84080908D01*
X196147883Y-84074501D01*
X196147881Y-84074500D01*
X196147873Y-84074500D01*
X196147864Y-84074500D01*
X195352129Y-84074500D01*
X195352123Y-84074501D01*
X195292516Y-84080908D01*
X195157671Y-84131202D01*
X195157664Y-84131206D01*
X195042455Y-84217452D01*
X195042452Y-84217455D01*
X194956206Y-84332664D01*
X194956202Y-84332671D01*
X194911646Y-84452135D01*
X194905909Y-84467517D01*
X194899500Y-84527127D01*
X193650499Y-84527127D01*
X193650499Y-84452128D01*
X193644091Y-84392517D01*
X193641711Y-84386137D01*
X193593797Y-84257671D01*
X193593793Y-84257664D01*
X193507547Y-84142455D01*
X193507544Y-84142452D01*
X193392335Y-84056206D01*
X193392328Y-84056202D01*
X193257482Y-84005908D01*
X193257483Y-84005908D01*
X193197883Y-83999501D01*
X193197881Y-83999500D01*
X193197873Y-83999500D01*
X193197864Y-83999500D01*
X191802129Y-83999500D01*
X191802123Y-83999501D01*
X191742516Y-84005908D01*
X191607671Y-84056202D01*
X191607664Y-84056206D01*
X191492455Y-84142452D01*
X191492452Y-84142455D01*
X191406206Y-84257664D01*
X191406202Y-84257671D01*
X191355908Y-84392517D01*
X191349501Y-84452116D01*
X191349501Y-84452123D01*
X191349500Y-84452135D01*
X189650499Y-84452135D01*
X189650499Y-84452128D01*
X189644091Y-84392517D01*
X189641711Y-84386137D01*
X189593797Y-84257671D01*
X189593793Y-84257664D01*
X189507547Y-84142455D01*
X189507544Y-84142452D01*
X189392335Y-84056206D01*
X189392328Y-84056202D01*
X189257482Y-84005908D01*
X189257483Y-84005908D01*
X189197883Y-83999501D01*
X189197881Y-83999500D01*
X189197873Y-83999500D01*
X189197864Y-83999500D01*
X187802129Y-83999500D01*
X187802123Y-83999501D01*
X187742516Y-84005908D01*
X187607671Y-84056202D01*
X187607664Y-84056206D01*
X187492455Y-84142452D01*
X187492452Y-84142455D01*
X187406206Y-84257664D01*
X187406202Y-84257671D01*
X187355908Y-84392517D01*
X187349501Y-84452116D01*
X187349501Y-84452123D01*
X187349500Y-84452135D01*
X178965848Y-84452135D01*
X178911696Y-84366781D01*
X178905678Y-84345835D01*
X178895235Y-84326710D01*
X178896221Y-84312918D01*
X178892403Y-84299628D01*
X178898664Y-84278755D01*
X178900219Y-84257018D01*
X178909532Y-84242527D01*
X178912479Y-84232704D01*
X178919966Y-84226292D01*
X178928721Y-84212670D01*
X178953050Y-84188342D01*
X179010646Y-84075304D01*
X179010646Y-84075302D01*
X179010647Y-84075301D01*
X179025499Y-83981524D01*
X179025500Y-83981519D01*
X179025499Y-83618482D01*
X179010646Y-83524696D01*
X178953050Y-83411658D01*
X178929072Y-83387680D01*
X178895588Y-83326360D01*
X178900572Y-83256668D01*
X178929072Y-83212319D01*
X178953050Y-83188342D01*
X179010646Y-83075304D01*
X179010646Y-83075302D01*
X179010647Y-83075301D01*
X179022962Y-82997544D01*
X179025500Y-82981519D01*
X179025500Y-82924628D01*
X181350000Y-82924628D01*
X181364503Y-82997540D01*
X181364505Y-82997544D01*
X181419760Y-83080239D01*
X181502455Y-83135494D01*
X181502459Y-83135496D01*
X181575371Y-83149999D01*
X181575374Y-83150000D01*
X181875000Y-83150000D01*
X181875000Y-82625000D01*
X181350000Y-82625000D01*
X181350000Y-82924628D01*
X179025500Y-82924628D01*
X179025499Y-82618482D01*
X179021469Y-82593034D01*
X179021469Y-82593031D01*
X179010647Y-82524700D01*
X179010647Y-82524699D01*
X179010646Y-82524697D01*
X179010646Y-82524696D01*
X178953050Y-82411658D01*
X178929072Y-82387680D01*
X178895588Y-82326360D01*
X178900572Y-82256668D01*
X178929072Y-82212319D01*
X178953050Y-82188342D01*
X179010646Y-82075304D01*
X179010646Y-82075302D01*
X179010647Y-82075301D01*
X179025499Y-81981524D01*
X179025500Y-81981519D01*
X179025499Y-81618482D01*
X179010646Y-81524696D01*
X178959659Y-81424628D01*
X181350000Y-81424628D01*
X181364503Y-81497540D01*
X181364505Y-81497544D01*
X181419760Y-81580239D01*
X181512610Y-81642280D01*
X181511979Y-81643223D01*
X181556726Y-81679286D01*
X181578787Y-81745581D01*
X181561504Y-81813280D01*
X181510364Y-81860887D01*
X181502486Y-81864484D01*
X181419760Y-81919760D01*
X181364505Y-82002455D01*
X181364503Y-82002459D01*
X181350000Y-82075371D01*
X181350000Y-82375000D01*
X181875000Y-82375000D01*
X181875000Y-81850000D01*
X181862681Y-81837681D01*
X181852068Y-81818244D01*
X181837568Y-81801511D01*
X181835651Y-81788179D01*
X181829196Y-81776358D01*
X181830775Y-81754271D01*
X181827624Y-81732353D01*
X181833219Y-81720101D01*
X181834180Y-81706666D01*
X181847450Y-81688939D01*
X181856649Y-81668797D01*
X181862681Y-81662319D01*
X181875000Y-81650000D01*
X181875000Y-81125000D01*
X181350000Y-81125000D01*
X181350000Y-81424628D01*
X178959659Y-81424628D01*
X178953050Y-81411658D01*
X178929072Y-81387680D01*
X178895588Y-81326360D01*
X178900572Y-81256668D01*
X178929072Y-81212319D01*
X178953050Y-81188342D01*
X179010646Y-81075304D01*
X179010646Y-81075302D01*
X179010647Y-81075301D01*
X179010647Y-81075300D01*
X179013983Y-81054240D01*
X179025499Y-80981524D01*
X179025500Y-80981519D01*
X179025499Y-80618482D01*
X179010646Y-80524696D01*
X178953050Y-80411658D01*
X178953046Y-80411654D01*
X178953045Y-80411652D01*
X178863347Y-80321954D01*
X178863344Y-80321952D01*
X178863342Y-80321950D01*
X178773863Y-80276358D01*
X178750301Y-80264352D01*
X178656524Y-80249500D01*
X177343482Y-80249500D01*
X177266429Y-80261704D01*
X177249696Y-80264354D01*
X177136658Y-80321950D01*
X177136657Y-80321951D01*
X177136652Y-80321954D01*
X177046954Y-80411652D01*
X177046951Y-80411657D01*
X176989352Y-80524698D01*
X176974500Y-80618475D01*
X173500500Y-80618475D01*
X173500500Y-80474499D01*
X173520185Y-80407460D01*
X173572989Y-80361705D01*
X173624500Y-80350499D01*
X174822871Y-80350499D01*
X174822872Y-80350499D01*
X174882483Y-80344091D01*
X175017331Y-80293796D01*
X175132546Y-80207546D01*
X175218796Y-80092331D01*
X175269091Y-79957483D01*
X175272623Y-79924628D01*
X181350000Y-79924628D01*
X181364503Y-79997540D01*
X181364505Y-79997544D01*
X181419760Y-80080239D01*
X181512610Y-80142280D01*
X181511979Y-80143223D01*
X181556726Y-80179286D01*
X181578787Y-80245581D01*
X181561504Y-80313280D01*
X181510364Y-80360887D01*
X181502486Y-80364484D01*
X181419760Y-80419760D01*
X181364505Y-80502455D01*
X181364503Y-80502459D01*
X181350000Y-80575371D01*
X181350000Y-80875000D01*
X181875000Y-80875000D01*
X181875000Y-80350000D01*
X181862681Y-80337681D01*
X181852068Y-80318244D01*
X181837568Y-80301511D01*
X181835651Y-80288179D01*
X181829196Y-80276358D01*
X181830775Y-80254271D01*
X181827624Y-80232353D01*
X181833219Y-80220101D01*
X181834180Y-80206666D01*
X181847450Y-80188939D01*
X181856649Y-80168797D01*
X181862681Y-80162319D01*
X181875000Y-80150000D01*
X181875000Y-79625000D01*
X181350000Y-79625000D01*
X181350000Y-79924628D01*
X175272623Y-79924628D01*
X175275500Y-79897873D01*
X175275499Y-79102128D01*
X175269091Y-79042517D01*
X175256848Y-79009693D01*
X175218797Y-78907671D01*
X175218793Y-78907664D01*
X175132547Y-78792455D01*
X175132544Y-78792452D01*
X175017335Y-78706206D01*
X175017328Y-78706202D01*
X174882482Y-78655908D01*
X174882483Y-78655908D01*
X174822883Y-78649501D01*
X174822881Y-78649500D01*
X174822873Y-78649500D01*
X174822865Y-78649500D01*
X173624500Y-78649500D01*
X173615814Y-78646949D01*
X173606853Y-78648238D01*
X173582812Y-78637259D01*
X173557461Y-78629815D01*
X173551533Y-78622974D01*
X173543297Y-78619213D01*
X173529007Y-78596978D01*
X173511706Y-78577011D01*
X173509418Y-78566496D01*
X173505523Y-78560435D01*
X173500500Y-78525500D01*
X173500500Y-78524500D01*
X173520185Y-78457461D01*
X173572989Y-78411706D01*
X173624500Y-78400500D01*
X174874676Y-78400500D01*
X174874677Y-78400499D01*
X174947740Y-78385966D01*
X175030601Y-78330601D01*
X175085966Y-78247740D01*
X175100500Y-78174674D01*
X175100500Y-77225326D01*
X175100500Y-77225323D01*
X175100499Y-77225321D01*
X175085967Y-77152264D01*
X175085966Y-77152260D01*
X175080524Y-77144115D01*
X175030601Y-77069399D01*
X174947740Y-77014034D01*
X174947739Y-77014033D01*
X174947735Y-77014032D01*
X174874677Y-76999500D01*
X174874674Y-76999500D01*
X173624500Y-76999500D01*
X173557461Y-76979815D01*
X173511706Y-76927011D01*
X173500500Y-76875500D01*
X173500500Y-76680581D01*
X173520185Y-76613542D01*
X173572989Y-76567787D01*
X173642147Y-76557843D01*
X173685943Y-76574629D01*
X173686498Y-76573592D01*
X173691872Y-76576464D01*
X173691873Y-76576465D01*
X173810256Y-76625501D01*
X173810260Y-76625501D01*
X173810261Y-76625502D01*
X173935928Y-76650500D01*
X173935931Y-76650500D01*
X174064071Y-76650500D01*
X174148615Y-76633682D01*
X174189744Y-76625501D01*
X174308127Y-76576465D01*
X174414669Y-76505276D01*
X174505276Y-76414669D01*
X174576465Y-76308127D01*
X174625501Y-76189744D01*
X174645040Y-76091518D01*
X174650500Y-76064071D01*
X174650500Y-75935928D01*
X174625502Y-75810261D01*
X174625501Y-75810260D01*
X174625501Y-75810256D01*
X174584727Y-75711820D01*
X174576466Y-75691875D01*
X174576461Y-75691866D01*
X174505276Y-75585331D01*
X174505273Y-75585327D01*
X174414672Y-75494726D01*
X174414668Y-75494723D01*
X174309764Y-75424628D01*
X178350000Y-75424628D01*
X178364503Y-75497540D01*
X178364505Y-75497544D01*
X178419760Y-75580239D01*
X178502455Y-75635494D01*
X178502459Y-75635496D01*
X178575371Y-75649999D01*
X178575374Y-75650000D01*
X178875000Y-75650000D01*
X178875000Y-75125000D01*
X178350000Y-75125000D01*
X178350000Y-75424628D01*
X174309764Y-75424628D01*
X174308133Y-75423538D01*
X174308124Y-75423533D01*
X174189744Y-75374499D01*
X174189738Y-75374497D01*
X174064071Y-75349500D01*
X174064069Y-75349500D01*
X173935931Y-75349500D01*
X173935929Y-75349500D01*
X173810261Y-75374497D01*
X173810255Y-75374499D01*
X173691875Y-75423533D01*
X173686498Y-75426408D01*
X173685706Y-75424926D01*
X173626713Y-75443398D01*
X173559333Y-75424913D01*
X173512643Y-75372934D01*
X173500500Y-75319418D01*
X173500500Y-75124500D01*
X173520185Y-75057461D01*
X173572989Y-75011706D01*
X173624500Y-75000500D01*
X174874676Y-75000500D01*
X174874677Y-75000499D01*
X174947740Y-74985966D01*
X175030601Y-74930601D01*
X175085966Y-74847740D01*
X175100500Y-74774674D01*
X175100500Y-74538787D01*
X175120185Y-74471748D01*
X175172989Y-74425993D01*
X175242147Y-74416049D01*
X175278298Y-74427066D01*
X175580785Y-74572736D01*
X175904183Y-74685897D01*
X176238217Y-74762139D01*
X176238226Y-74762140D01*
X176238231Y-74762141D01*
X176465197Y-74787713D01*
X176578682Y-74800499D01*
X176578685Y-74800500D01*
X176578688Y-74800500D01*
X176921315Y-74800500D01*
X176921316Y-74800499D01*
X177095311Y-74780895D01*
X177261768Y-74762141D01*
X177261771Y-74762140D01*
X177261783Y-74762139D01*
X177595817Y-74685897D01*
X177919215Y-74572736D01*
X178172886Y-74450573D01*
X178241827Y-74439222D01*
X178305962Y-74466944D01*
X178344928Y-74524939D01*
X178349554Y-74569284D01*
X178350000Y-74569284D01*
X178350000Y-74573558D01*
X178350092Y-74574440D01*
X178350000Y-74575374D01*
X178350000Y-74875000D01*
X178875000Y-74875000D01*
X178875000Y-74350000D01*
X179125000Y-74350000D01*
X179125000Y-75650000D01*
X179424626Y-75650000D01*
X179424628Y-75649999D01*
X179497540Y-75635496D01*
X179497544Y-75635494D01*
X179580239Y-75580239D01*
X179642280Y-75487390D01*
X179643393Y-75488134D01*
X179678996Y-75443947D01*
X179745289Y-75421878D01*
X179812990Y-75439153D01*
X179860603Y-75490287D01*
X179863950Y-75497614D01*
X179864033Y-75497739D01*
X179864034Y-75497740D01*
X179919399Y-75580601D01*
X180001554Y-75635494D01*
X180002260Y-75635966D01*
X180002264Y-75635967D01*
X180075321Y-75650499D01*
X180075324Y-75650500D01*
X180075326Y-75650500D01*
X180924676Y-75650500D01*
X180924677Y-75650499D01*
X180997740Y-75635966D01*
X181080601Y-75580601D01*
X181135966Y-75497740D01*
X181135966Y-75497739D01*
X181142751Y-75487585D01*
X181143814Y-75488295D01*
X181179555Y-75443944D01*
X181245849Y-75421878D01*
X181313548Y-75439157D01*
X181361159Y-75490293D01*
X181364397Y-75497382D01*
X181419760Y-75580239D01*
X181512610Y-75642280D01*
X181511866Y-75643393D01*
X181556054Y-75679000D01*
X181578121Y-75745293D01*
X181560844Y-75812993D01*
X181509708Y-75860605D01*
X181502390Y-75863947D01*
X181419399Y-75919399D01*
X181364033Y-76002260D01*
X181364032Y-76002264D01*
X181349500Y-76075321D01*
X181349500Y-76924678D01*
X181364032Y-76997735D01*
X181364033Y-76997739D01*
X181364034Y-76997740D01*
X181419399Y-77080601D01*
X181502260Y-77135966D01*
X181512415Y-77142751D01*
X181511591Y-77143983D01*
X181555391Y-77179281D01*
X181577455Y-77245576D01*
X181560175Y-77313275D01*
X181509037Y-77360885D01*
X181502516Y-77363862D01*
X181419399Y-77419399D01*
X181364033Y-77502260D01*
X181364032Y-77502264D01*
X181349500Y-77575321D01*
X181349500Y-78424678D01*
X181364032Y-78497735D01*
X181364033Y-78497739D01*
X181372731Y-78510756D01*
X181419399Y-78580601D01*
X181502260Y-78635966D01*
X181512415Y-78642751D01*
X181511704Y-78643814D01*
X181556058Y-78679558D01*
X181578121Y-78745853D01*
X181560840Y-78813552D01*
X181509702Y-78861161D01*
X181502615Y-78864398D01*
X181419760Y-78919760D01*
X181364505Y-79002455D01*
X181364503Y-79002459D01*
X181350000Y-79075371D01*
X181350000Y-79375000D01*
X181876000Y-79375000D01*
X181884685Y-79377550D01*
X181893647Y-79376262D01*
X181917687Y-79387240D01*
X181943039Y-79394685D01*
X181948966Y-79401525D01*
X181957203Y-79405287D01*
X181971492Y-79427521D01*
X181988794Y-79447489D01*
X181991081Y-79458003D01*
X181994977Y-79464065D01*
X182000000Y-79499000D01*
X182000000Y-79500000D01*
X182001000Y-79500000D01*
X182068039Y-79519685D01*
X182113794Y-79572489D01*
X182125000Y-79624000D01*
X182125000Y-80150000D01*
X182137319Y-80162319D01*
X182147931Y-80181755D01*
X182162432Y-80198489D01*
X182164348Y-80211820D01*
X182170804Y-80223642D01*
X182169224Y-80245728D01*
X182172376Y-80267647D01*
X182166780Y-80279898D01*
X182165820Y-80293334D01*
X182147939Y-80321156D01*
X182143351Y-80331203D01*
X182140167Y-80333248D01*
X182137319Y-80337681D01*
X182125000Y-80350000D01*
X182125000Y-81650000D01*
X182137319Y-81662319D01*
X182147931Y-81681755D01*
X182162432Y-81698489D01*
X182164348Y-81711820D01*
X182170804Y-81723642D01*
X182169224Y-81745728D01*
X182172376Y-81767647D01*
X182166780Y-81779898D01*
X182165820Y-81793334D01*
X182147939Y-81821156D01*
X182143351Y-81831203D01*
X182140167Y-81833248D01*
X182137319Y-81837681D01*
X182125000Y-81850000D01*
X182125000Y-83150000D01*
X182424626Y-83150000D01*
X182424628Y-83149999D01*
X182497540Y-83135496D01*
X182497544Y-83135494D01*
X182580239Y-83080239D01*
X182642280Y-82987390D01*
X182643393Y-82988134D01*
X182678996Y-82943947D01*
X182745289Y-82921878D01*
X182812990Y-82939153D01*
X182860603Y-82990287D01*
X182863950Y-82997614D01*
X182864033Y-82997739D01*
X182864034Y-82997740D01*
X182919399Y-83080601D01*
X182969436Y-83114034D01*
X183002260Y-83135966D01*
X183002264Y-83135967D01*
X183075321Y-83150499D01*
X183075324Y-83150500D01*
X183075326Y-83150500D01*
X183924676Y-83150500D01*
X183924677Y-83150499D01*
X183997740Y-83135966D01*
X184080601Y-83080601D01*
X184135966Y-82997740D01*
X184150500Y-82924674D01*
X184150500Y-82575321D01*
X185349500Y-82575321D01*
X185349500Y-83424678D01*
X185364032Y-83497735D01*
X185364033Y-83497739D01*
X185364034Y-83497740D01*
X185419399Y-83580601D01*
X185476093Y-83618482D01*
X185502260Y-83635966D01*
X185502264Y-83635967D01*
X185575321Y-83650499D01*
X185575324Y-83650500D01*
X185575326Y-83650500D01*
X186424676Y-83650500D01*
X186424677Y-83650499D01*
X186497740Y-83635966D01*
X186580601Y-83580601D01*
X186635966Y-83497740D01*
X186635966Y-83497739D01*
X186642751Y-83487585D01*
X186643984Y-83488409D01*
X186679278Y-83444610D01*
X186745571Y-83422544D01*
X186813271Y-83439822D01*
X186860883Y-83490958D01*
X186863862Y-83497482D01*
X186864033Y-83497739D01*
X186864034Y-83497740D01*
X186919399Y-83580601D01*
X186976093Y-83618482D01*
X187002260Y-83635966D01*
X187002264Y-83635967D01*
X187075321Y-83650499D01*
X187075324Y-83650500D01*
X187075326Y-83650500D01*
X187924676Y-83650500D01*
X187924677Y-83650499D01*
X187997740Y-83635966D01*
X188080601Y-83580601D01*
X188135966Y-83497740D01*
X188150500Y-83424674D01*
X188150500Y-82575326D01*
X188150500Y-82575323D01*
X188150499Y-82575321D01*
X192349500Y-82575321D01*
X192349500Y-83424678D01*
X192364032Y-83497735D01*
X192364033Y-83497739D01*
X192364034Y-83497740D01*
X192419399Y-83580601D01*
X192476093Y-83618482D01*
X192502260Y-83635966D01*
X192502264Y-83635967D01*
X192575321Y-83650499D01*
X192575324Y-83650500D01*
X192575326Y-83650500D01*
X193424676Y-83650500D01*
X193424677Y-83650499D01*
X193497740Y-83635966D01*
X193580601Y-83580601D01*
X193635966Y-83497740D01*
X193635966Y-83497739D01*
X193642751Y-83487585D01*
X193643984Y-83488409D01*
X193679278Y-83444610D01*
X193745571Y-83422544D01*
X193813271Y-83439822D01*
X193860883Y-83490958D01*
X193863862Y-83497482D01*
X193864033Y-83497739D01*
X193864034Y-83497740D01*
X193919399Y-83580601D01*
X193976093Y-83618482D01*
X194002260Y-83635966D01*
X194002264Y-83635967D01*
X194075321Y-83650499D01*
X194075324Y-83650500D01*
X194075326Y-83650500D01*
X194924676Y-83650500D01*
X194924677Y-83650499D01*
X194997740Y-83635966D01*
X195080601Y-83580601D01*
X195135966Y-83497740D01*
X195150500Y-83424674D01*
X195150500Y-82575326D01*
X195145887Y-82552135D01*
X195145539Y-82550384D01*
X195145539Y-82550381D01*
X195141385Y-82529498D01*
X196899500Y-82529498D01*
X196899500Y-83070481D01*
X196899501Y-83070490D01*
X196905587Y-83127114D01*
X196937368Y-83212319D01*
X196953372Y-83255226D01*
X197035313Y-83364687D01*
X197144774Y-83446628D01*
X197272886Y-83494412D01*
X197329515Y-83500500D01*
X198170484Y-83500499D01*
X198227114Y-83494412D01*
X198355226Y-83446628D01*
X198464687Y-83364687D01*
X198546628Y-83255226D01*
X198594412Y-83127114D01*
X198597381Y-83099500D01*
X198600499Y-83070501D01*
X198600499Y-83070490D01*
X198600500Y-83070485D01*
X198600499Y-82529516D01*
X198594412Y-82472886D01*
X198546628Y-82344774D01*
X198464687Y-82235313D01*
X198359012Y-82156206D01*
X198355228Y-82153373D01*
X198355226Y-82153372D01*
X198227114Y-82105588D01*
X198227112Y-82105587D01*
X198227110Y-82105587D01*
X198170493Y-82099500D01*
X197329518Y-82099500D01*
X197329509Y-82099501D01*
X197272885Y-82105587D01*
X197144773Y-82153372D01*
X197035313Y-82235313D01*
X196953373Y-82344771D01*
X196905587Y-82472889D01*
X196899500Y-82529498D01*
X195141385Y-82529498D01*
X195135967Y-82502263D01*
X195135966Y-82502260D01*
X195116339Y-82472886D01*
X195080601Y-82419399D01*
X194997740Y-82364034D01*
X194997739Y-82364033D01*
X194997735Y-82364032D01*
X194924677Y-82349500D01*
X194924674Y-82349500D01*
X194075326Y-82349500D01*
X194075323Y-82349500D01*
X194002264Y-82364032D01*
X194002260Y-82364033D01*
X193930993Y-82411652D01*
X193919399Y-82419399D01*
X193883662Y-82472885D01*
X193857249Y-82512415D01*
X193856016Y-82511591D01*
X193820719Y-82555391D01*
X193754424Y-82577455D01*
X193686725Y-82560175D01*
X193639115Y-82509037D01*
X193636137Y-82502516D01*
X193616339Y-82472886D01*
X193580601Y-82419399D01*
X193497740Y-82364034D01*
X193497739Y-82364033D01*
X193497735Y-82364032D01*
X193424677Y-82349500D01*
X193424674Y-82349500D01*
X192575326Y-82349500D01*
X192575323Y-82349500D01*
X192502264Y-82364032D01*
X192502260Y-82364033D01*
X192419399Y-82419399D01*
X192364033Y-82502260D01*
X192364032Y-82502264D01*
X192349500Y-82575321D01*
X188150499Y-82575321D01*
X188135967Y-82502264D01*
X188135966Y-82502260D01*
X188116339Y-82472886D01*
X188080601Y-82419399D01*
X187997740Y-82364034D01*
X187997739Y-82364033D01*
X187997735Y-82364032D01*
X187924677Y-82349500D01*
X187924674Y-82349500D01*
X187075326Y-82349500D01*
X187075323Y-82349500D01*
X187002264Y-82364032D01*
X187002260Y-82364033D01*
X186930993Y-82411652D01*
X186919399Y-82419399D01*
X186883662Y-82472885D01*
X186857249Y-82512415D01*
X186856016Y-82511591D01*
X186820719Y-82555391D01*
X186754424Y-82577455D01*
X186686725Y-82560175D01*
X186639115Y-82509037D01*
X186636137Y-82502516D01*
X186616339Y-82472886D01*
X186580601Y-82419399D01*
X186497740Y-82364034D01*
X186497739Y-82364033D01*
X186497735Y-82364032D01*
X186424677Y-82349500D01*
X186424674Y-82349500D01*
X185575326Y-82349500D01*
X185575323Y-82349500D01*
X185502264Y-82364032D01*
X185502260Y-82364033D01*
X185419399Y-82419399D01*
X185364033Y-82502260D01*
X185364032Y-82502264D01*
X185349500Y-82575321D01*
X184150500Y-82575321D01*
X184150500Y-82075326D01*
X184150500Y-82075323D01*
X184150499Y-82075321D01*
X184135967Y-82002264D01*
X184135966Y-82002260D01*
X184122111Y-81981524D01*
X184080601Y-81919399D01*
X183997740Y-81864034D01*
X183997739Y-81864033D01*
X183987585Y-81857249D01*
X183988409Y-81856015D01*
X183944610Y-81820722D01*
X183922544Y-81754429D01*
X183939822Y-81686729D01*
X183990958Y-81639117D01*
X183997482Y-81636137D01*
X183997737Y-81635966D01*
X183997740Y-81635966D01*
X184080601Y-81580601D01*
X184135966Y-81497740D01*
X184150500Y-81424674D01*
X184150500Y-80575326D01*
X184150500Y-80575323D01*
X184150499Y-80575321D01*
X184135967Y-80502264D01*
X184135966Y-80502260D01*
X184117417Y-80474499D01*
X184080601Y-80419399D01*
X183997740Y-80364034D01*
X183997739Y-80364033D01*
X183987585Y-80357249D01*
X183988409Y-80356015D01*
X183944610Y-80320722D01*
X183922544Y-80254429D01*
X183939822Y-80186729D01*
X183990958Y-80139117D01*
X183997482Y-80136137D01*
X183997737Y-80135966D01*
X183997740Y-80135966D01*
X184080601Y-80080601D01*
X184135966Y-79997740D01*
X184150500Y-79924674D01*
X184150500Y-79075326D01*
X184150500Y-79075323D01*
X184150499Y-79075321D01*
X184135967Y-79002264D01*
X184135966Y-79002260D01*
X184134456Y-79000000D01*
X184080601Y-78919399D01*
X183997740Y-78864034D01*
X183997739Y-78864033D01*
X183987585Y-78857249D01*
X183988409Y-78856015D01*
X183944610Y-78820722D01*
X183922544Y-78754429D01*
X183939822Y-78686729D01*
X183990958Y-78639117D01*
X183997482Y-78636137D01*
X183997737Y-78635966D01*
X183997740Y-78635966D01*
X184080601Y-78580601D01*
X184135966Y-78497740D01*
X184150500Y-78424674D01*
X184150500Y-78175321D01*
X184449500Y-78175321D01*
X184449500Y-81824678D01*
X184464032Y-81897735D01*
X184464033Y-81897739D01*
X184464034Y-81897740D01*
X184519399Y-81980601D01*
X184565949Y-82011704D01*
X184602260Y-82035966D01*
X184602264Y-82035967D01*
X184675321Y-82050499D01*
X184675324Y-82050500D01*
X184675326Y-82050500D01*
X186224676Y-82050500D01*
X186224677Y-82050499D01*
X186297740Y-82035966D01*
X186380601Y-81980601D01*
X186435966Y-81897740D01*
X186450500Y-81824674D01*
X186450500Y-78175326D01*
X186450500Y-78175323D01*
X186450499Y-78175321D01*
X187499500Y-78175321D01*
X187499500Y-81824678D01*
X187514032Y-81897735D01*
X187514033Y-81897739D01*
X187514034Y-81897740D01*
X187569399Y-81980601D01*
X187615949Y-82011704D01*
X187652260Y-82035966D01*
X187652264Y-82035967D01*
X187725321Y-82050499D01*
X187725324Y-82050500D01*
X187725326Y-82050500D01*
X189274676Y-82050500D01*
X189274677Y-82050499D01*
X189347740Y-82035966D01*
X189430601Y-81980601D01*
X189485966Y-81897740D01*
X189500500Y-81824674D01*
X189500500Y-78175326D01*
X189500500Y-78175323D01*
X189500499Y-78175321D01*
X190999500Y-78175321D01*
X190999500Y-81824678D01*
X191014032Y-81897735D01*
X191014033Y-81897739D01*
X191014034Y-81897740D01*
X191069399Y-81980601D01*
X191115949Y-82011704D01*
X191152260Y-82035966D01*
X191152264Y-82035967D01*
X191225321Y-82050499D01*
X191225324Y-82050500D01*
X191225326Y-82050500D01*
X192774676Y-82050500D01*
X192774677Y-82050499D01*
X192847740Y-82035966D01*
X192930601Y-81980601D01*
X192985966Y-81897740D01*
X193000500Y-81824674D01*
X193000500Y-78175326D01*
X193000500Y-78175323D01*
X193000499Y-78175321D01*
X194049500Y-78175321D01*
X194049500Y-81824678D01*
X194064032Y-81897735D01*
X194064033Y-81897739D01*
X194064034Y-81897740D01*
X194119399Y-81980601D01*
X194165949Y-82011704D01*
X194202260Y-82035966D01*
X194202264Y-82035967D01*
X194275321Y-82050499D01*
X194275324Y-82050500D01*
X194275326Y-82050500D01*
X195824676Y-82050500D01*
X195824677Y-82050499D01*
X195897740Y-82035966D01*
X195980601Y-81980601D01*
X196035966Y-81897740D01*
X196050500Y-81824674D01*
X196050500Y-78175326D01*
X196050500Y-78175323D01*
X196050499Y-78175321D01*
X196035967Y-78102264D01*
X196035966Y-78102260D01*
X196025988Y-78087327D01*
X195980601Y-78019399D01*
X195897740Y-77964034D01*
X195897739Y-77964033D01*
X195897735Y-77964032D01*
X195824677Y-77949500D01*
X195824674Y-77949500D01*
X194275326Y-77949500D01*
X194275323Y-77949500D01*
X194202264Y-77964032D01*
X194202260Y-77964033D01*
X194119399Y-78019399D01*
X194064033Y-78102260D01*
X194064032Y-78102264D01*
X194049500Y-78175321D01*
X193000499Y-78175321D01*
X192985967Y-78102264D01*
X192985966Y-78102260D01*
X192975988Y-78087327D01*
X192930601Y-78019399D01*
X192847740Y-77964034D01*
X192847739Y-77964033D01*
X192847735Y-77964032D01*
X192774677Y-77949500D01*
X192774674Y-77949500D01*
X191225326Y-77949500D01*
X191225323Y-77949500D01*
X191152264Y-77964032D01*
X191152260Y-77964033D01*
X191069399Y-78019399D01*
X191014033Y-78102260D01*
X191014032Y-78102264D01*
X190999500Y-78175321D01*
X189500499Y-78175321D01*
X189485967Y-78102264D01*
X189485966Y-78102260D01*
X189475988Y-78087327D01*
X189430601Y-78019399D01*
X189347740Y-77964034D01*
X189347739Y-77964033D01*
X189347735Y-77964032D01*
X189274677Y-77949500D01*
X189274674Y-77949500D01*
X187725326Y-77949500D01*
X187725323Y-77949500D01*
X187652264Y-77964032D01*
X187652260Y-77964033D01*
X187569399Y-78019399D01*
X187514033Y-78102260D01*
X187514032Y-78102264D01*
X187499500Y-78175321D01*
X186450499Y-78175321D01*
X186435967Y-78102264D01*
X186435966Y-78102260D01*
X186425988Y-78087327D01*
X186380601Y-78019399D01*
X186297740Y-77964034D01*
X186297739Y-77964033D01*
X186297735Y-77964032D01*
X186224677Y-77949500D01*
X186224674Y-77949500D01*
X184675326Y-77949500D01*
X184675323Y-77949500D01*
X184602264Y-77964032D01*
X184602260Y-77964033D01*
X184519399Y-78019399D01*
X184464033Y-78102260D01*
X184464032Y-78102264D01*
X184449500Y-78175321D01*
X184150500Y-78175321D01*
X184150500Y-77575326D01*
X184150500Y-77575323D01*
X184150499Y-77575321D01*
X184135967Y-77502264D01*
X184135966Y-77502260D01*
X184131330Y-77495321D01*
X184080601Y-77419399D01*
X183997740Y-77364034D01*
X183997739Y-77364033D01*
X183987585Y-77357249D01*
X183988409Y-77356015D01*
X183944610Y-77320722D01*
X183922544Y-77254429D01*
X183939822Y-77186729D01*
X183990958Y-77139117D01*
X183997482Y-77136137D01*
X183997737Y-77135966D01*
X183997740Y-77135966D01*
X184080601Y-77080601D01*
X184135966Y-76997740D01*
X184150500Y-76924674D01*
X184150500Y-76075326D01*
X184150500Y-76075323D01*
X184150499Y-76075321D01*
X184135967Y-76002264D01*
X184135966Y-76002260D01*
X184124999Y-75985847D01*
X184080601Y-75919399D01*
X183997740Y-75864034D01*
X183997739Y-75864033D01*
X183987585Y-75857249D01*
X183988409Y-75856015D01*
X183944610Y-75820722D01*
X183922544Y-75754429D01*
X183939822Y-75686729D01*
X183990958Y-75639117D01*
X183997482Y-75636137D01*
X183997737Y-75635966D01*
X183997740Y-75635966D01*
X184080601Y-75580601D01*
X184135966Y-75497740D01*
X184150500Y-75424674D01*
X184150500Y-74864364D01*
X184449500Y-74864364D01*
X184449500Y-75185636D01*
X184460134Y-75258625D01*
X184478181Y-75295542D01*
X184489938Y-75364416D01*
X184478181Y-75404458D01*
X184460135Y-75441373D01*
X184460134Y-75441375D01*
X184449500Y-75514364D01*
X184449500Y-75835636D01*
X184455968Y-75880031D01*
X184460134Y-75908625D01*
X184478181Y-75945542D01*
X184489938Y-76014416D01*
X184478181Y-76054458D01*
X184460135Y-76091373D01*
X184460134Y-76091375D01*
X184449500Y-76164364D01*
X184449500Y-76485636D01*
X184456828Y-76535935D01*
X184460134Y-76558625D01*
X184478181Y-76595542D01*
X184489938Y-76664416D01*
X184478181Y-76704458D01*
X184460134Y-76741374D01*
X184460113Y-76741517D01*
X184449500Y-76814364D01*
X184449500Y-77135636D01*
X184460134Y-77208625D01*
X184460134Y-77208626D01*
X184460135Y-77208628D01*
X184515172Y-77321210D01*
X184603789Y-77409827D01*
X184695682Y-77454750D01*
X184716375Y-77464866D01*
X184789364Y-77475500D01*
X184789370Y-77475500D01*
X185935630Y-77475500D01*
X185935636Y-77475500D01*
X186008625Y-77464866D01*
X186100891Y-77419760D01*
X186121210Y-77409827D01*
X186209827Y-77321210D01*
X186248180Y-77242757D01*
X186264866Y-77208625D01*
X186275500Y-77135636D01*
X186275500Y-77135582D01*
X186725000Y-77135582D01*
X186735620Y-77208482D01*
X186790587Y-77320918D01*
X186879081Y-77409412D01*
X186991517Y-77464379D01*
X187064418Y-77475000D01*
X187512500Y-77475000D01*
X187762500Y-77475000D01*
X188210582Y-77475000D01*
X188283482Y-77464379D01*
X188395918Y-77409412D01*
X188484412Y-77320918D01*
X188539379Y-77208482D01*
X188550000Y-77135582D01*
X188550000Y-77100000D01*
X187762500Y-77100000D01*
X187762500Y-77475000D01*
X187512500Y-77475000D01*
X187512500Y-77100000D01*
X186725000Y-77100000D01*
X186725000Y-77135582D01*
X186275500Y-77135582D01*
X186275500Y-76924628D01*
X188850000Y-76924628D01*
X188864503Y-76997540D01*
X188864505Y-76997544D01*
X188919760Y-77080239D01*
X189002455Y-77135494D01*
X189002459Y-77135496D01*
X189075371Y-77149999D01*
X189075374Y-77150000D01*
X189375000Y-77150000D01*
X189375000Y-76625000D01*
X188850000Y-76625000D01*
X188850000Y-76924628D01*
X186275500Y-76924628D01*
X186275500Y-76814364D01*
X186264866Y-76741375D01*
X186246819Y-76704460D01*
X186235059Y-76635590D01*
X186246819Y-76595540D01*
X186264866Y-76558625D01*
X186275500Y-76485636D01*
X186275500Y-76485582D01*
X186725000Y-76485582D01*
X186735620Y-76558482D01*
X186753737Y-76595540D01*
X186765495Y-76664413D01*
X186753737Y-76704460D01*
X186735620Y-76741517D01*
X186725000Y-76814417D01*
X186725000Y-76850000D01*
X187512500Y-76850000D01*
X187762500Y-76850000D01*
X188550000Y-76850000D01*
X188550000Y-76814417D01*
X188539378Y-76741515D01*
X188521264Y-76704463D01*
X188509503Y-76635590D01*
X188521264Y-76595537D01*
X188539378Y-76558484D01*
X188550000Y-76485582D01*
X188550000Y-76450000D01*
X187762500Y-76450000D01*
X187762500Y-76850000D01*
X187512500Y-76850000D01*
X187512500Y-76450000D01*
X186725000Y-76450000D01*
X186725000Y-76485582D01*
X186275500Y-76485582D01*
X186275500Y-76164364D01*
X186264866Y-76091375D01*
X186246819Y-76054461D01*
X186235059Y-75985590D01*
X186246819Y-75945540D01*
X186264866Y-75908625D01*
X186275500Y-75835636D01*
X186275500Y-75514364D01*
X186264866Y-75441375D01*
X186246819Y-75404461D01*
X186235059Y-75335590D01*
X186246819Y-75295540D01*
X186264866Y-75258625D01*
X186275500Y-75185636D01*
X186275500Y-74864364D01*
X186724500Y-74864364D01*
X186724500Y-75185636D01*
X186735134Y-75258625D01*
X186753181Y-75295542D01*
X186764938Y-75364416D01*
X186753181Y-75404458D01*
X186735135Y-75441373D01*
X186735134Y-75441375D01*
X186724500Y-75514364D01*
X186724500Y-75835636D01*
X186735134Y-75908625D01*
X186735134Y-75908626D01*
X186735135Y-75908627D01*
X186753459Y-75946112D01*
X186765216Y-76014985D01*
X186753459Y-76055026D01*
X186735621Y-76091516D01*
X186735620Y-76091518D01*
X186725000Y-76164417D01*
X186725000Y-76200000D01*
X188550000Y-76200000D01*
X188550000Y-76164417D01*
X188539379Y-76091518D01*
X188521541Y-76055031D01*
X188509781Y-75986158D01*
X188521539Y-75946112D01*
X188539866Y-75908625D01*
X188550500Y-75835636D01*
X188550500Y-75514364D01*
X188539866Y-75441375D01*
X188521819Y-75404461D01*
X188510059Y-75335590D01*
X188521819Y-75295540D01*
X188539866Y-75258625D01*
X188550500Y-75185636D01*
X188550500Y-74864364D01*
X188539866Y-74791375D01*
X188531701Y-74774674D01*
X188484827Y-74678789D01*
X188396210Y-74590172D01*
X188365831Y-74575321D01*
X188849500Y-74575321D01*
X188849500Y-75424678D01*
X188864032Y-75497735D01*
X188864033Y-75497739D01*
X188875145Y-75514369D01*
X188919399Y-75580601D01*
X189002260Y-75635966D01*
X189012415Y-75642751D01*
X189011704Y-75643814D01*
X189056058Y-75679558D01*
X189078121Y-75745853D01*
X189060840Y-75813552D01*
X189009702Y-75861161D01*
X189002615Y-75864398D01*
X188919760Y-75919760D01*
X188864505Y-76002455D01*
X188864503Y-76002459D01*
X188850000Y-76075371D01*
X188850000Y-76375000D01*
X189376000Y-76375000D01*
X189384685Y-76377550D01*
X189393647Y-76376262D01*
X189417687Y-76387240D01*
X189443039Y-76394685D01*
X189448966Y-76401525D01*
X189457203Y-76405287D01*
X189471492Y-76427521D01*
X189488794Y-76447489D01*
X189491081Y-76458003D01*
X189494977Y-76464065D01*
X189500000Y-76499000D01*
X189500000Y-76500000D01*
X189501000Y-76500000D01*
X189568039Y-76519685D01*
X189613794Y-76572489D01*
X189625000Y-76624000D01*
X189625000Y-77150000D01*
X189924626Y-77150000D01*
X189924628Y-77149999D01*
X189997540Y-77135496D01*
X189997544Y-77135494D01*
X190080239Y-77080239D01*
X190142280Y-76987390D01*
X190143393Y-76988134D01*
X190178996Y-76943947D01*
X190245289Y-76921878D01*
X190312990Y-76939153D01*
X190360603Y-76990287D01*
X190363950Y-76997614D01*
X190364033Y-76997739D01*
X190364034Y-76997740D01*
X190419399Y-77080601D01*
X190501554Y-77135494D01*
X190502260Y-77135966D01*
X190502264Y-77135967D01*
X190575321Y-77150499D01*
X190575324Y-77150500D01*
X190575326Y-77150500D01*
X191424676Y-77150500D01*
X191424677Y-77150499D01*
X191497740Y-77135966D01*
X191580601Y-77080601D01*
X191613836Y-77030860D01*
X191667446Y-76986057D01*
X191736771Y-76977348D01*
X191799799Y-77007503D01*
X191828337Y-77045290D01*
X191858601Y-77107196D01*
X191877675Y-77146213D01*
X191966289Y-77234827D01*
X192066945Y-77284034D01*
X192078875Y-77289866D01*
X192151864Y-77300500D01*
X192151870Y-77300500D01*
X193298130Y-77300500D01*
X193298136Y-77300500D01*
X193371125Y-77289866D01*
X193433874Y-77259190D01*
X193483710Y-77234827D01*
X193572327Y-77146210D01*
X193600767Y-77088034D01*
X193627366Y-77033625D01*
X193638000Y-76960636D01*
X193638000Y-76960582D01*
X194087500Y-76960582D01*
X194098120Y-77033482D01*
X194153087Y-77145918D01*
X194241581Y-77234412D01*
X194354017Y-77289379D01*
X194426918Y-77300000D01*
X194875000Y-77300000D01*
X195125000Y-77300000D01*
X195573082Y-77300000D01*
X195645982Y-77289379D01*
X195758418Y-77234412D01*
X195846912Y-77145918D01*
X195901879Y-77033482D01*
X195912500Y-76960582D01*
X195912500Y-76925000D01*
X195125000Y-76925000D01*
X195125000Y-77300000D01*
X194875000Y-77300000D01*
X194875000Y-76925000D01*
X194087500Y-76925000D01*
X194087500Y-76960582D01*
X193638000Y-76960582D01*
X193638000Y-76639364D01*
X193627366Y-76566375D01*
X193609319Y-76529460D01*
X193597559Y-76460590D01*
X193609319Y-76420540D01*
X193627366Y-76383625D01*
X193638000Y-76310636D01*
X193638000Y-76310582D01*
X194087500Y-76310582D01*
X194098120Y-76383482D01*
X194116237Y-76420540D01*
X194127995Y-76489413D01*
X194116237Y-76529460D01*
X194098120Y-76566517D01*
X194087500Y-76639417D01*
X194087500Y-76675000D01*
X194875000Y-76675000D01*
X195125000Y-76675000D01*
X195912500Y-76675000D01*
X195912500Y-76639417D01*
X195901878Y-76566515D01*
X195883764Y-76529463D01*
X195872003Y-76460590D01*
X195883764Y-76420537D01*
X195901878Y-76383484D01*
X195912500Y-76310582D01*
X195912500Y-76275000D01*
X195125000Y-76275000D01*
X195125000Y-76675000D01*
X194875000Y-76675000D01*
X194875000Y-76275000D01*
X194087500Y-76275000D01*
X194087500Y-76310582D01*
X193638000Y-76310582D01*
X193638000Y-75989364D01*
X193627366Y-75916375D01*
X193609319Y-75879461D01*
X193597559Y-75810590D01*
X193609319Y-75770540D01*
X193627366Y-75733625D01*
X193638000Y-75660636D01*
X193638000Y-75339364D01*
X193627366Y-75266375D01*
X193609319Y-75229461D01*
X193597559Y-75160590D01*
X193609319Y-75120540D01*
X193627366Y-75083625D01*
X193638000Y-75010636D01*
X193638000Y-74689364D01*
X194087000Y-74689364D01*
X194087000Y-75010636D01*
X194093822Y-75057461D01*
X194097634Y-75083625D01*
X194115681Y-75120542D01*
X194127438Y-75189416D01*
X194115681Y-75229458D01*
X194097635Y-75266373D01*
X194097634Y-75266375D01*
X194087000Y-75339364D01*
X194087000Y-75660636D01*
X194097634Y-75733625D01*
X194097634Y-75733626D01*
X194097635Y-75733627D01*
X194115959Y-75771112D01*
X194127716Y-75839985D01*
X194115959Y-75880026D01*
X194098121Y-75916516D01*
X194098120Y-75916518D01*
X194087500Y-75989417D01*
X194087500Y-76025000D01*
X195912500Y-76025000D01*
X195912500Y-75989417D01*
X195901879Y-75916518D01*
X195884041Y-75880031D01*
X195872281Y-75811158D01*
X195884039Y-75771112D01*
X195902366Y-75733625D01*
X195913000Y-75660636D01*
X195913000Y-75339364D01*
X195902366Y-75266375D01*
X195884319Y-75229461D01*
X195872559Y-75160590D01*
X195884319Y-75120540D01*
X195902366Y-75083625D01*
X195913000Y-75010636D01*
X195913000Y-74689364D01*
X195902366Y-74616375D01*
X195882296Y-74575321D01*
X196349500Y-74575321D01*
X196349500Y-75424678D01*
X196364032Y-75497735D01*
X196364033Y-75497739D01*
X196375145Y-75514369D01*
X196419399Y-75580601D01*
X196502260Y-75635966D01*
X196512415Y-75642751D01*
X196511591Y-75643983D01*
X196555391Y-75679281D01*
X196577455Y-75745576D01*
X196560175Y-75813275D01*
X196509037Y-75860885D01*
X196502516Y-75863862D01*
X196419399Y-75919399D01*
X196364033Y-76002260D01*
X196364032Y-76002264D01*
X196349500Y-76075321D01*
X196349500Y-76924678D01*
X196364032Y-76997735D01*
X196364033Y-76997739D01*
X196364034Y-76997740D01*
X196419399Y-77080601D01*
X196502260Y-77135966D01*
X196512415Y-77142751D01*
X196511591Y-77143983D01*
X196555391Y-77179281D01*
X196577455Y-77245576D01*
X196560175Y-77313275D01*
X196509037Y-77360885D01*
X196502516Y-77363862D01*
X196419399Y-77419399D01*
X196364033Y-77502260D01*
X196364032Y-77502264D01*
X196349500Y-77575321D01*
X196349500Y-78424678D01*
X196364032Y-78497735D01*
X196364033Y-78497739D01*
X196372731Y-78510756D01*
X196419399Y-78580601D01*
X196469436Y-78614034D01*
X196502260Y-78635966D01*
X196502264Y-78635967D01*
X196575321Y-78650499D01*
X196575324Y-78650500D01*
X197043219Y-78650500D01*
X197110258Y-78670185D01*
X197156013Y-78722989D01*
X197165957Y-78792147D01*
X197136932Y-78855703D01*
X197117529Y-78873767D01*
X197035314Y-78935311D01*
X196953373Y-79044771D01*
X196905587Y-79172889D01*
X196899500Y-79229498D01*
X196899500Y-79770481D01*
X196899501Y-79770490D01*
X196905587Y-79827114D01*
X196947377Y-79939153D01*
X196953372Y-79955226D01*
X197035313Y-80064687D01*
X197101720Y-80114398D01*
X197141240Y-80143983D01*
X197144774Y-80146628D01*
X197272886Y-80194412D01*
X197329515Y-80200500D01*
X198170484Y-80200499D01*
X198227114Y-80194412D01*
X198355226Y-80146628D01*
X198464687Y-80064687D01*
X198546628Y-79955226D01*
X198594412Y-79827114D01*
X198596687Y-79805944D01*
X198600499Y-79770501D01*
X198600499Y-79770490D01*
X198600500Y-79770485D01*
X198600499Y-79229516D01*
X198594412Y-79172886D01*
X198546628Y-79044774D01*
X198464687Y-78935313D01*
X198464685Y-78935312D01*
X198464685Y-78935311D01*
X198364788Y-78860530D01*
X198322916Y-78804597D01*
X198317932Y-78734905D01*
X198351417Y-78673582D01*
X198351417Y-78673581D01*
X198375000Y-78649998D01*
X198375000Y-78124000D01*
X198377550Y-78115314D01*
X198376262Y-78106353D01*
X198387240Y-78082312D01*
X198394685Y-78056961D01*
X198401525Y-78051033D01*
X198405287Y-78042797D01*
X198427521Y-78028507D01*
X198447489Y-78011206D01*
X198458003Y-78008918D01*
X198464065Y-78005023D01*
X198499000Y-78000000D01*
X198500000Y-78000000D01*
X198500000Y-77999000D01*
X198519685Y-77931961D01*
X198572489Y-77886206D01*
X198624000Y-77875000D01*
X198970000Y-77875000D01*
X198988290Y-77856709D01*
X198989685Y-77851961D01*
X199042489Y-77806206D01*
X199094000Y-77795000D01*
X199626000Y-77795000D01*
X199693039Y-77814685D01*
X199738794Y-77867489D01*
X199750000Y-77919000D01*
X199750000Y-77921000D01*
X199730315Y-77988039D01*
X199677511Y-78033794D01*
X199626000Y-78045000D01*
X199280000Y-78045000D01*
X199261709Y-78063290D01*
X199260315Y-78068039D01*
X199207511Y-78113794D01*
X199156000Y-78125000D01*
X198625000Y-78125000D01*
X198625000Y-78650000D01*
X198924625Y-78650000D01*
X198961000Y-78642764D01*
X199030592Y-78648991D01*
X199085770Y-78691853D01*
X199109015Y-78757742D01*
X199106810Y-78788572D01*
X199099500Y-78825321D01*
X199099500Y-79674678D01*
X199114032Y-79747735D01*
X199114033Y-79747739D01*
X199114034Y-79747740D01*
X199169399Y-79830601D01*
X199252260Y-79885966D01*
X199262415Y-79892751D01*
X199261704Y-79893814D01*
X199306058Y-79929558D01*
X199328121Y-79995853D01*
X199310840Y-80063552D01*
X199259702Y-80111161D01*
X199252615Y-80114398D01*
X199169760Y-80169760D01*
X199114505Y-80252455D01*
X199114503Y-80252459D01*
X199100000Y-80325371D01*
X199100000Y-80625000D01*
X199626000Y-80625000D01*
X199634685Y-80627550D01*
X199643647Y-80626262D01*
X199667687Y-80637240D01*
X199693039Y-80644685D01*
X199698966Y-80651525D01*
X199707203Y-80655287D01*
X199721492Y-80677521D01*
X199738794Y-80697489D01*
X199741081Y-80708003D01*
X199744977Y-80714065D01*
X199750000Y-80749000D01*
X199750000Y-80751000D01*
X199730315Y-80818039D01*
X199677511Y-80863794D01*
X199626000Y-80875000D01*
X199100000Y-80875000D01*
X199100000Y-81174628D01*
X199114503Y-81247540D01*
X199114505Y-81247544D01*
X199169760Y-81330239D01*
X199262610Y-81392280D01*
X199261866Y-81393393D01*
X199306054Y-81429000D01*
X199328121Y-81495293D01*
X199310844Y-81562993D01*
X199259708Y-81610605D01*
X199252390Y-81613947D01*
X199169399Y-81669399D01*
X199114033Y-81752260D01*
X199114032Y-81752264D01*
X199099500Y-81825321D01*
X199099500Y-82674678D01*
X199114032Y-82747735D01*
X199114033Y-82747739D01*
X199114034Y-82747740D01*
X199169399Y-82830601D01*
X199252260Y-82885966D01*
X199262415Y-82892751D01*
X199261591Y-82893983D01*
X199305391Y-82929281D01*
X199327455Y-82995576D01*
X199310175Y-83063275D01*
X199259037Y-83110885D01*
X199252516Y-83113862D01*
X199169399Y-83169399D01*
X199114033Y-83252260D01*
X199114032Y-83252264D01*
X199099500Y-83325321D01*
X199099500Y-84174678D01*
X199114032Y-84247735D01*
X199114033Y-84247739D01*
X199131577Y-84273995D01*
X199169399Y-84330601D01*
X199252260Y-84385966D01*
X199262415Y-84392751D01*
X199261591Y-84393983D01*
X199305391Y-84429281D01*
X199327455Y-84495576D01*
X199310175Y-84563275D01*
X199259037Y-84610885D01*
X199252516Y-84613862D01*
X199169399Y-84669399D01*
X199114033Y-84752260D01*
X199114032Y-84752264D01*
X199099500Y-84825321D01*
X199099500Y-85674678D01*
X199114032Y-85747735D01*
X199114033Y-85747738D01*
X199153035Y-85806111D01*
X199173911Y-85872789D01*
X199155425Y-85940169D01*
X199153035Y-85943889D01*
X199114033Y-86002261D01*
X199114032Y-86002264D01*
X199099500Y-86075321D01*
X199099500Y-86924678D01*
X199114032Y-86997735D01*
X199114033Y-86997739D01*
X199114034Y-86997740D01*
X199169399Y-87080601D01*
X199252260Y-87135966D01*
X199262415Y-87142751D01*
X199261704Y-87143814D01*
X199306058Y-87179558D01*
X199328121Y-87245853D01*
X199310840Y-87313552D01*
X199259702Y-87361161D01*
X199252615Y-87364398D01*
X199169760Y-87419760D01*
X199114505Y-87502455D01*
X199114503Y-87502459D01*
X199100000Y-87575371D01*
X199100000Y-87875000D01*
X199626000Y-87875000D01*
X199634685Y-87877550D01*
X199643647Y-87876262D01*
X199667687Y-87887240D01*
X199693039Y-87894685D01*
X199698966Y-87901525D01*
X199707203Y-87905287D01*
X199721492Y-87927521D01*
X199738794Y-87947489D01*
X199741081Y-87958003D01*
X199744977Y-87964065D01*
X199750000Y-87999000D01*
X199750000Y-88000000D01*
X199751000Y-88000000D01*
X199818039Y-88019685D01*
X199863794Y-88072489D01*
X199875000Y-88124000D01*
X199875000Y-88650000D01*
X200174626Y-88650000D01*
X200174628Y-88649999D01*
X200247540Y-88635496D01*
X200247544Y-88635494D01*
X200330239Y-88580239D01*
X200392280Y-88487390D01*
X200393393Y-88488134D01*
X200428996Y-88443947D01*
X200495289Y-88421878D01*
X200562990Y-88439153D01*
X200610603Y-88490287D01*
X200613950Y-88497614D01*
X200614033Y-88497739D01*
X200614034Y-88497740D01*
X200669399Y-88580601D01*
X200719436Y-88614034D01*
X200752260Y-88635966D01*
X200752264Y-88635967D01*
X200825321Y-88650499D01*
X200825324Y-88650500D01*
X200825326Y-88650500D01*
X201674676Y-88650500D01*
X201674677Y-88650499D01*
X201747740Y-88635966D01*
X201830601Y-88580601D01*
X201885966Y-88497740D01*
X201900500Y-88424674D01*
X201900500Y-87575326D01*
X201900500Y-87575323D01*
X201900499Y-87575321D01*
X201885967Y-87502264D01*
X201885966Y-87502260D01*
X201883029Y-87497864D01*
X201830601Y-87419399D01*
X201747740Y-87364034D01*
X201747739Y-87364033D01*
X201737585Y-87357249D01*
X201738409Y-87356015D01*
X201694610Y-87320722D01*
X201672544Y-87254429D01*
X201689822Y-87186729D01*
X201740958Y-87139117D01*
X201747482Y-87136137D01*
X201747737Y-87135966D01*
X201747740Y-87135966D01*
X201830601Y-87080601D01*
X201885966Y-86997740D01*
X201900500Y-86924674D01*
X201900500Y-86075326D01*
X201900500Y-86075323D01*
X201900499Y-86075321D01*
X201885967Y-86002264D01*
X201885966Y-86002261D01*
X201885966Y-86002260D01*
X201846964Y-85943888D01*
X201826087Y-85877213D01*
X201844572Y-85809833D01*
X201846964Y-85806111D01*
X201885966Y-85747740D01*
X201900500Y-85674674D01*
X201900500Y-85068475D01*
X205224500Y-85068475D01*
X205224500Y-85431517D01*
X205235292Y-85499657D01*
X205239354Y-85525304D01*
X205296950Y-85638342D01*
X205296952Y-85638344D01*
X205296954Y-85638347D01*
X205320926Y-85662319D01*
X205354411Y-85723642D01*
X205349427Y-85793334D01*
X205320926Y-85837681D01*
X205296954Y-85861652D01*
X205296951Y-85861657D01*
X205296950Y-85861658D01*
X205277751Y-85899337D01*
X205239352Y-85974698D01*
X205224500Y-86068475D01*
X205224500Y-86431517D01*
X205235292Y-86499657D01*
X205239354Y-86525304D01*
X205296950Y-86638342D01*
X205296952Y-86638344D01*
X205296954Y-86638347D01*
X205320926Y-86662319D01*
X205354411Y-86723642D01*
X205349427Y-86793334D01*
X205320926Y-86837681D01*
X205296954Y-86861652D01*
X205296951Y-86861657D01*
X205239352Y-86974698D01*
X205224500Y-87068475D01*
X205224500Y-87431517D01*
X205231049Y-87472864D01*
X205239354Y-87525304D01*
X205296950Y-87638342D01*
X205296952Y-87638344D01*
X205296954Y-87638347D01*
X205320926Y-87662319D01*
X205354411Y-87723642D01*
X205349427Y-87793334D01*
X205320926Y-87837681D01*
X205296954Y-87861652D01*
X205296951Y-87861657D01*
X205296950Y-87861658D01*
X205293312Y-87868798D01*
X205239352Y-87974698D01*
X205224500Y-88068475D01*
X205224500Y-88431517D01*
X205233467Y-88488134D01*
X205239354Y-88525304D01*
X205296950Y-88638342D01*
X205296952Y-88638344D01*
X205296954Y-88638347D01*
X205320926Y-88662319D01*
X205354411Y-88723642D01*
X205349427Y-88793334D01*
X205320926Y-88837681D01*
X205296954Y-88861652D01*
X205296951Y-88861657D01*
X205239352Y-88974698D01*
X205224500Y-89068475D01*
X205224500Y-89431517D01*
X205235292Y-89499657D01*
X205239354Y-89525304D01*
X205296950Y-89638342D01*
X205296952Y-89638344D01*
X205296954Y-89638347D01*
X205320926Y-89662319D01*
X205354411Y-89723642D01*
X205349427Y-89793334D01*
X205320926Y-89837681D01*
X205296954Y-89861652D01*
X205296951Y-89861657D01*
X205296950Y-89861658D01*
X205284523Y-89886047D01*
X205239352Y-89974698D01*
X205224500Y-90068475D01*
X205224500Y-90431517D01*
X205235292Y-90499657D01*
X205239354Y-90525304D01*
X205296950Y-90638342D01*
X205296952Y-90638344D01*
X205296954Y-90638347D01*
X205320926Y-90662319D01*
X205354411Y-90723642D01*
X205349427Y-90793334D01*
X205320926Y-90837681D01*
X205296954Y-90861652D01*
X205296951Y-90861657D01*
X205296950Y-90861658D01*
X205290152Y-90875000D01*
X205239352Y-90974698D01*
X205224500Y-91068475D01*
X205224500Y-91431517D01*
X205231049Y-91472864D01*
X205239354Y-91525304D01*
X205296950Y-91638342D01*
X205296952Y-91638344D01*
X205296954Y-91638347D01*
X205386652Y-91728045D01*
X205386654Y-91728046D01*
X205386658Y-91728050D01*
X205493608Y-91782544D01*
X205499698Y-91785647D01*
X205593475Y-91800499D01*
X205593481Y-91800500D01*
X206906518Y-91800499D01*
X207000304Y-91785646D01*
X207113342Y-91728050D01*
X207203050Y-91638342D01*
X207260646Y-91525304D01*
X207260646Y-91525302D01*
X207260647Y-91525301D01*
X207273798Y-91442264D01*
X207275500Y-91431519D01*
X207275499Y-91068482D01*
X207260646Y-90974696D01*
X207203050Y-90861658D01*
X207179072Y-90837680D01*
X207145588Y-90776360D01*
X207150572Y-90706668D01*
X207179072Y-90662319D01*
X207203050Y-90638342D01*
X207260646Y-90525304D01*
X207260646Y-90525302D01*
X207260647Y-90525301D01*
X207275499Y-90431524D01*
X207275500Y-90431519D01*
X207275499Y-90068482D01*
X207260646Y-89974696D01*
X207203050Y-89861658D01*
X207179072Y-89837680D01*
X207145588Y-89776360D01*
X207150572Y-89706668D01*
X207179072Y-89662319D01*
X207203050Y-89638342D01*
X207260646Y-89525304D01*
X207260646Y-89525302D01*
X207260647Y-89525301D01*
X207275499Y-89431524D01*
X207275500Y-89431519D01*
X207275499Y-89068482D01*
X207260646Y-88974696D01*
X207203050Y-88861658D01*
X207179072Y-88837680D01*
X207145588Y-88776360D01*
X207150572Y-88706668D01*
X207179072Y-88662319D01*
X207203050Y-88638342D01*
X207260646Y-88525304D01*
X207260646Y-88525302D01*
X207260647Y-88525301D01*
X207272238Y-88452116D01*
X207275500Y-88431519D01*
X207275499Y-88068482D01*
X207260646Y-87974696D01*
X207203050Y-87861658D01*
X207179072Y-87837680D01*
X207145588Y-87776360D01*
X207150572Y-87706668D01*
X207179072Y-87662319D01*
X207203050Y-87638342D01*
X207260646Y-87525304D01*
X207260646Y-87525302D01*
X207260647Y-87525301D01*
X207275499Y-87431524D01*
X207275500Y-87431519D01*
X207275499Y-87068482D01*
X207260646Y-86974696D01*
X207203050Y-86861658D01*
X207179072Y-86837680D01*
X207145588Y-86776360D01*
X207150572Y-86706668D01*
X207179072Y-86662319D01*
X207203050Y-86638342D01*
X207260646Y-86525304D01*
X207260646Y-86525302D01*
X207260647Y-86525301D01*
X207275499Y-86431524D01*
X207275500Y-86431519D01*
X207275499Y-86068482D01*
X207260646Y-85974696D01*
X207203050Y-85861658D01*
X207179072Y-85837680D01*
X207145588Y-85776360D01*
X207150572Y-85706668D01*
X207179072Y-85662319D01*
X207203050Y-85638342D01*
X207260646Y-85525304D01*
X207260646Y-85525302D01*
X207260647Y-85525301D01*
X207275499Y-85431524D01*
X207275500Y-85431519D01*
X207275499Y-85068482D01*
X207260646Y-84974696D01*
X207203050Y-84861658D01*
X207203046Y-84861654D01*
X207203045Y-84861652D01*
X207178720Y-84837327D01*
X207145235Y-84776004D01*
X207150219Y-84706312D01*
X207178723Y-84661962D01*
X207202639Y-84638046D01*
X207260166Y-84525144D01*
X207275000Y-84431486D01*
X207275000Y-84375000D01*
X205225001Y-84375000D01*
X205225001Y-84431479D01*
X205239835Y-84525149D01*
X205239837Y-84525155D01*
X205297356Y-84638041D01*
X205321278Y-84661963D01*
X205354764Y-84723286D01*
X205349780Y-84792978D01*
X205321281Y-84837326D01*
X205296952Y-84861655D01*
X205296951Y-84861657D01*
X205239352Y-84974698D01*
X205224500Y-85068475D01*
X201900500Y-85068475D01*
X201900500Y-84825326D01*
X201900500Y-84825323D01*
X201900499Y-84825321D01*
X201885967Y-84752264D01*
X201885966Y-84752260D01*
X201830601Y-84669399D01*
X201747740Y-84614034D01*
X201747739Y-84614033D01*
X201737585Y-84607249D01*
X201738409Y-84606015D01*
X201694610Y-84570722D01*
X201672544Y-84504429D01*
X201689822Y-84436729D01*
X201740958Y-84389117D01*
X201747482Y-84386137D01*
X201747737Y-84385966D01*
X201747740Y-84385966D01*
X201830601Y-84330601D01*
X201885966Y-84247740D01*
X201900500Y-84174674D01*
X201900500Y-84068513D01*
X205225000Y-84068513D01*
X205225000Y-84125000D01*
X206125000Y-84125000D01*
X206375000Y-84125000D01*
X207274999Y-84125000D01*
X207274999Y-84068520D01*
X207260164Y-83974850D01*
X207260162Y-83974844D01*
X207202643Y-83861958D01*
X207202636Y-83861949D01*
X207113050Y-83772363D01*
X207113046Y-83772360D01*
X207000144Y-83714833D01*
X206906486Y-83700000D01*
X206375000Y-83700000D01*
X206375000Y-84125000D01*
X206125000Y-84125000D01*
X206125000Y-83700000D01*
X205593520Y-83700000D01*
X205499850Y-83714835D01*
X205499844Y-83714837D01*
X205386958Y-83772356D01*
X205386949Y-83772363D01*
X205297363Y-83861949D01*
X205297360Y-83861953D01*
X205239833Y-83974855D01*
X205225000Y-84068513D01*
X201900500Y-84068513D01*
X201900500Y-83325326D01*
X201900500Y-83325323D01*
X201900499Y-83325321D01*
X201885967Y-83252264D01*
X201885966Y-83252260D01*
X201830601Y-83169399D01*
X201747740Y-83114034D01*
X201747739Y-83114033D01*
X201737585Y-83107249D01*
X201738409Y-83106015D01*
X201694610Y-83070722D01*
X201672544Y-83004429D01*
X201689822Y-82936729D01*
X201740958Y-82889117D01*
X201747482Y-82886137D01*
X201747737Y-82885966D01*
X201747740Y-82885966D01*
X201830601Y-82830601D01*
X201885966Y-82747740D01*
X201900500Y-82674674D01*
X201900500Y-81825326D01*
X201900500Y-81825323D01*
X201900499Y-81825321D01*
X201885967Y-81752264D01*
X201885966Y-81752260D01*
X201830601Y-81669399D01*
X201747740Y-81614034D01*
X201747739Y-81614033D01*
X201737585Y-81607249D01*
X201738409Y-81606015D01*
X201694610Y-81570722D01*
X201672544Y-81504429D01*
X201689822Y-81436729D01*
X201740958Y-81389117D01*
X201747482Y-81386137D01*
X201747737Y-81385966D01*
X201747740Y-81385966D01*
X201830601Y-81330601D01*
X201885966Y-81247740D01*
X201900500Y-81174674D01*
X201900500Y-80325326D01*
X201900500Y-80325323D01*
X201900499Y-80325321D01*
X201885967Y-80252264D01*
X201885966Y-80252260D01*
X201830601Y-80169399D01*
X201747740Y-80114034D01*
X201747739Y-80114033D01*
X201737585Y-80107249D01*
X201738294Y-80106186D01*
X201693938Y-80070436D01*
X201671878Y-80004140D01*
X201689162Y-79936442D01*
X201740302Y-79888835D01*
X201747385Y-79885600D01*
X201830239Y-79830239D01*
X201885494Y-79747544D01*
X201885496Y-79747540D01*
X201899999Y-79674628D01*
X201900000Y-79674626D01*
X201900000Y-79375000D01*
X201374000Y-79375000D01*
X201365314Y-79372449D01*
X201356353Y-79373738D01*
X201332312Y-79362759D01*
X201306961Y-79355315D01*
X201301033Y-79348474D01*
X201292797Y-79344713D01*
X201278507Y-79322478D01*
X201261206Y-79302511D01*
X201258918Y-79291996D01*
X201255023Y-79285935D01*
X201250000Y-79251000D01*
X201250000Y-79249000D01*
X201269685Y-79181961D01*
X201322489Y-79136206D01*
X201374000Y-79125000D01*
X201900000Y-79125000D01*
X201900000Y-78825373D01*
X201899999Y-78825371D01*
X201885496Y-78752459D01*
X201885494Y-78752455D01*
X201823455Y-78659606D01*
X201825455Y-78658269D01*
X201800037Y-78611719D01*
X201805021Y-78542027D01*
X201824726Y-78511365D01*
X201823815Y-78510756D01*
X201830599Y-78500601D01*
X201830601Y-78500601D01*
X201885966Y-78417740D01*
X201900500Y-78344674D01*
X201900500Y-78318475D01*
X205224500Y-78318475D01*
X205224500Y-78681517D01*
X205232956Y-78734905D01*
X205239354Y-78775304D01*
X205296950Y-78888342D01*
X205296952Y-78888344D01*
X205296954Y-78888347D01*
X205320926Y-78912319D01*
X205354411Y-78973642D01*
X205349427Y-79043334D01*
X205320926Y-79087681D01*
X205296954Y-79111652D01*
X205296951Y-79111657D01*
X205239352Y-79224698D01*
X205224500Y-79318475D01*
X205224500Y-79681517D01*
X205233380Y-79737585D01*
X205239354Y-79775304D01*
X205296950Y-79888342D01*
X205296952Y-79888344D01*
X205296954Y-79888347D01*
X205386652Y-79978045D01*
X205386654Y-79978046D01*
X205386658Y-79978050D01*
X205499694Y-80035645D01*
X205499698Y-80035647D01*
X205593475Y-80050499D01*
X205593481Y-80050500D01*
X206906518Y-80050499D01*
X207000304Y-80035646D01*
X207113342Y-79978050D01*
X207203050Y-79888342D01*
X207260646Y-79775304D01*
X207260646Y-79775302D01*
X207260647Y-79775301D01*
X207275499Y-79681524D01*
X207275500Y-79681519D01*
X207275499Y-79318482D01*
X207260646Y-79224696D01*
X207203050Y-79111658D01*
X207179072Y-79087680D01*
X207145588Y-79026360D01*
X207150572Y-78956668D01*
X207179072Y-78912319D01*
X207203050Y-78888342D01*
X207260646Y-78775304D01*
X207260646Y-78775302D01*
X207260647Y-78775301D01*
X207275499Y-78681524D01*
X207275500Y-78681519D01*
X207275499Y-78318482D01*
X207260646Y-78224696D01*
X207203050Y-78111658D01*
X207203046Y-78111654D01*
X207203045Y-78111652D01*
X207178720Y-78087327D01*
X207145235Y-78026004D01*
X207150219Y-77956312D01*
X207178723Y-77911962D01*
X207202639Y-77888046D01*
X207260166Y-77775144D01*
X207275000Y-77681486D01*
X207275000Y-77625000D01*
X205225001Y-77625000D01*
X205225001Y-77681479D01*
X205239835Y-77775149D01*
X205239837Y-77775155D01*
X205297356Y-77888041D01*
X205321278Y-77911963D01*
X205354764Y-77973286D01*
X205349780Y-78042978D01*
X205321281Y-78087326D01*
X205296952Y-78111655D01*
X205296951Y-78111657D01*
X205296950Y-78111658D01*
X205290152Y-78125000D01*
X205239352Y-78224698D01*
X205224500Y-78318475D01*
X201900500Y-78318475D01*
X201900500Y-77495326D01*
X201900500Y-77495323D01*
X201900499Y-77495321D01*
X201885967Y-77422264D01*
X201885966Y-77422260D01*
X201854388Y-77375000D01*
X201830601Y-77339399D01*
X201790792Y-77312800D01*
X201745989Y-77259190D01*
X201737281Y-77189865D01*
X201767435Y-77126837D01*
X201790794Y-77106596D01*
X201830240Y-77080239D01*
X201885494Y-76997544D01*
X201885496Y-76997540D01*
X201899999Y-76924628D01*
X201900000Y-76924626D01*
X201900000Y-76625000D01*
X201374000Y-76625000D01*
X201365314Y-76622449D01*
X201356353Y-76623738D01*
X201332312Y-76612759D01*
X201306961Y-76605315D01*
X201301033Y-76598474D01*
X201292797Y-76594713D01*
X201278507Y-76572478D01*
X201261206Y-76552511D01*
X201258918Y-76541996D01*
X201255023Y-76535935D01*
X201250000Y-76501000D01*
X201250000Y-76500000D01*
X201249000Y-76500000D01*
X201181961Y-76480315D01*
X201136206Y-76427511D01*
X201125000Y-76376000D01*
X201125000Y-75850000D01*
X201112681Y-75837681D01*
X201102068Y-75818244D01*
X201087568Y-75801511D01*
X201085651Y-75788179D01*
X201079196Y-75776358D01*
X201080775Y-75754271D01*
X201077624Y-75732353D01*
X201083219Y-75720101D01*
X201084180Y-75706666D01*
X201102060Y-75678843D01*
X201106649Y-75668797D01*
X201109832Y-75666751D01*
X201112681Y-75662319D01*
X201125000Y-75650000D01*
X201375000Y-75650000D01*
X201387319Y-75662319D01*
X201397931Y-75681755D01*
X201412432Y-75698489D01*
X201414348Y-75711820D01*
X201420804Y-75723642D01*
X201419224Y-75745728D01*
X201422376Y-75767647D01*
X201416780Y-75779898D01*
X201415820Y-75793334D01*
X201402549Y-75811060D01*
X201393351Y-75831203D01*
X201387319Y-75837681D01*
X201375000Y-75850000D01*
X201375000Y-76375000D01*
X201900000Y-76375000D01*
X201900000Y-76318475D01*
X205224500Y-76318475D01*
X205224500Y-76681517D01*
X205233980Y-76741373D01*
X205239354Y-76775304D01*
X205296950Y-76888342D01*
X205296952Y-76888344D01*
X205296954Y-76888347D01*
X205321279Y-76912672D01*
X205354764Y-76973995D01*
X205349780Y-77043687D01*
X205321279Y-77088034D01*
X205297363Y-77111949D01*
X205297360Y-77111953D01*
X205239833Y-77224855D01*
X205225000Y-77318513D01*
X205225000Y-77375000D01*
X207274999Y-77375000D01*
X207274999Y-77318520D01*
X207260164Y-77224850D01*
X207260162Y-77224844D01*
X207202643Y-77111958D01*
X207202636Y-77111949D01*
X207178720Y-77088033D01*
X207145235Y-77026710D01*
X207150219Y-76957018D01*
X207178721Y-76912670D01*
X207203050Y-76888342D01*
X207260646Y-76775304D01*
X207260646Y-76775302D01*
X207260647Y-76775301D01*
X207271866Y-76704463D01*
X207275500Y-76681519D01*
X207275499Y-76318482D01*
X207260646Y-76224696D01*
X207203050Y-76111658D01*
X207203046Y-76111654D01*
X207203045Y-76111652D01*
X207113347Y-76021954D01*
X207113344Y-76021952D01*
X207113342Y-76021950D01*
X207036517Y-75982805D01*
X207000301Y-75964352D01*
X206906524Y-75949500D01*
X205593482Y-75949500D01*
X205512519Y-75962323D01*
X205499696Y-75964354D01*
X205386658Y-76021950D01*
X205386657Y-76021951D01*
X205386652Y-76021954D01*
X205296954Y-76111652D01*
X205296951Y-76111657D01*
X205239352Y-76224698D01*
X205224500Y-76318475D01*
X201900000Y-76318475D01*
X201900000Y-76075373D01*
X201899999Y-76075371D01*
X201885496Y-76002459D01*
X201885494Y-76002455D01*
X201830239Y-75919760D01*
X201737390Y-75857720D01*
X201738019Y-75856777D01*
X201693275Y-75820717D01*
X201671212Y-75754423D01*
X201688493Y-75686724D01*
X201739631Y-75639115D01*
X201747518Y-75635512D01*
X201830239Y-75580239D01*
X201885494Y-75497544D01*
X201885496Y-75497540D01*
X201899999Y-75424628D01*
X201900000Y-75424626D01*
X201900000Y-75125000D01*
X201375000Y-75125000D01*
X201375000Y-75650000D01*
X201125000Y-75650000D01*
X201125000Y-74875000D01*
X201375000Y-74875000D01*
X201900000Y-74875000D01*
X201900000Y-74575373D01*
X201899999Y-74575371D01*
X201885496Y-74502459D01*
X201885494Y-74502455D01*
X201830239Y-74419760D01*
X201747544Y-74364505D01*
X201747540Y-74364503D01*
X201674627Y-74350000D01*
X201375000Y-74350000D01*
X201375000Y-74875000D01*
X201125000Y-74875000D01*
X201125000Y-74350000D01*
X200825373Y-74350000D01*
X200752459Y-74364503D01*
X200752455Y-74364505D01*
X200669760Y-74419760D01*
X200607720Y-74512610D01*
X200606607Y-74511866D01*
X200570991Y-74556060D01*
X200504696Y-74578121D01*
X200436997Y-74560839D01*
X200389389Y-74509699D01*
X200386049Y-74502385D01*
X200385966Y-74502261D01*
X200385966Y-74502260D01*
X200330601Y-74419399D01*
X200275235Y-74382405D01*
X200247739Y-74364033D01*
X200247735Y-74364032D01*
X200174677Y-74349500D01*
X200174674Y-74349500D01*
X199325326Y-74349500D01*
X199325323Y-74349500D01*
X199252264Y-74364032D01*
X199252257Y-74364035D01*
X199193438Y-74403336D01*
X199126761Y-74424213D01*
X199059381Y-74405728D01*
X199055659Y-74403335D01*
X198997547Y-74364506D01*
X198997540Y-74364503D01*
X198924627Y-74350000D01*
X198625000Y-74350000D01*
X198625000Y-74876000D01*
X198622449Y-74884685D01*
X198623738Y-74893647D01*
X198612759Y-74917687D01*
X198605315Y-74943039D01*
X198598474Y-74948966D01*
X198594713Y-74957203D01*
X198572478Y-74971492D01*
X198552511Y-74988794D01*
X198541996Y-74991081D01*
X198535935Y-74994977D01*
X198501000Y-75000000D01*
X198499000Y-75000000D01*
X198431961Y-74980315D01*
X198386206Y-74927511D01*
X198375000Y-74876000D01*
X198375000Y-74350000D01*
X198075373Y-74350000D01*
X198002459Y-74364503D01*
X198002455Y-74364505D01*
X197919760Y-74419760D01*
X197857720Y-74512610D01*
X197856607Y-74511866D01*
X197820991Y-74556060D01*
X197754696Y-74578121D01*
X197686997Y-74560839D01*
X197639389Y-74509699D01*
X197636049Y-74502385D01*
X197635966Y-74502261D01*
X197635966Y-74502260D01*
X197580601Y-74419399D01*
X197525235Y-74382405D01*
X197497739Y-74364033D01*
X197497735Y-74364032D01*
X197424677Y-74349500D01*
X197424674Y-74349500D01*
X196575326Y-74349500D01*
X196575323Y-74349500D01*
X196502264Y-74364032D01*
X196502260Y-74364033D01*
X196419399Y-74419399D01*
X196364033Y-74502260D01*
X196364032Y-74502264D01*
X196349500Y-74575321D01*
X195882296Y-74575321D01*
X195847326Y-74503789D01*
X195847325Y-74503788D01*
X195847325Y-74503787D01*
X195758710Y-74415172D01*
X195646128Y-74360135D01*
X195646126Y-74360134D01*
X195646125Y-74360134D01*
X195573136Y-74349500D01*
X194426864Y-74349500D01*
X194353875Y-74360134D01*
X194353873Y-74360134D01*
X194353871Y-74360135D01*
X194241289Y-74415172D01*
X194152672Y-74503789D01*
X194097635Y-74616371D01*
X194097634Y-74616373D01*
X194097634Y-74616375D01*
X194087000Y-74689364D01*
X193638000Y-74689364D01*
X193627366Y-74616375D01*
X193623107Y-74607664D01*
X193572327Y-74503789D01*
X193483710Y-74415172D01*
X193371128Y-74360135D01*
X193371126Y-74360134D01*
X193371125Y-74360134D01*
X193298136Y-74349500D01*
X192151864Y-74349500D01*
X192078875Y-74360134D01*
X192078873Y-74360134D01*
X192078871Y-74360135D01*
X191966289Y-74415172D01*
X191877673Y-74503788D01*
X191867432Y-74524737D01*
X191820303Y-74576318D01*
X191752769Y-74594231D01*
X191686271Y-74572788D01*
X191641922Y-74518798D01*
X191639313Y-74510341D01*
X191635966Y-74502260D01*
X191629414Y-74492454D01*
X191580601Y-74419399D01*
X191525235Y-74382405D01*
X191497739Y-74364033D01*
X191497735Y-74364032D01*
X191424677Y-74349500D01*
X191424674Y-74349500D01*
X190575326Y-74349500D01*
X190575323Y-74349500D01*
X190502264Y-74364032D01*
X190502260Y-74364033D01*
X190443439Y-74403336D01*
X190419399Y-74419399D01*
X190370586Y-74492455D01*
X190357249Y-74512415D01*
X190356016Y-74511591D01*
X190320719Y-74555391D01*
X190254424Y-74577455D01*
X190186725Y-74560175D01*
X190139115Y-74509037D01*
X190136137Y-74502516D01*
X190135966Y-74502260D01*
X190080601Y-74419399D01*
X190025235Y-74382405D01*
X189997739Y-74364033D01*
X189997735Y-74364032D01*
X189924677Y-74349500D01*
X189924674Y-74349500D01*
X189075326Y-74349500D01*
X189075323Y-74349500D01*
X189002264Y-74364032D01*
X189002260Y-74364033D01*
X188919399Y-74419399D01*
X188864033Y-74502260D01*
X188864032Y-74502264D01*
X188849500Y-74575321D01*
X188365831Y-74575321D01*
X188283628Y-74535135D01*
X188283626Y-74535134D01*
X188283625Y-74535134D01*
X188210636Y-74524500D01*
X187064364Y-74524500D01*
X186991375Y-74535134D01*
X186991373Y-74535134D01*
X186991371Y-74535135D01*
X186878789Y-74590172D01*
X186790172Y-74678789D01*
X186735135Y-74791371D01*
X186735134Y-74791373D01*
X186735134Y-74791375D01*
X186724500Y-74864364D01*
X186275500Y-74864364D01*
X186264866Y-74791375D01*
X186256701Y-74774674D01*
X186209827Y-74678789D01*
X186121210Y-74590172D01*
X186008628Y-74535135D01*
X186008626Y-74535134D01*
X186008625Y-74535134D01*
X185935636Y-74524500D01*
X184789364Y-74524500D01*
X184716375Y-74535134D01*
X184716373Y-74535134D01*
X184716371Y-74535135D01*
X184603789Y-74590172D01*
X184515172Y-74678789D01*
X184460135Y-74791371D01*
X184460134Y-74791373D01*
X184460134Y-74791375D01*
X184449500Y-74864364D01*
X184150500Y-74864364D01*
X184150500Y-74575326D01*
X184150500Y-74575323D01*
X184150499Y-74575321D01*
X184135967Y-74502264D01*
X184135966Y-74502260D01*
X184129414Y-74492454D01*
X184080601Y-74419399D01*
X184025235Y-74382405D01*
X183997739Y-74364033D01*
X183997735Y-74364032D01*
X183924677Y-74349500D01*
X183924674Y-74349500D01*
X183075326Y-74349500D01*
X183075323Y-74349500D01*
X183002264Y-74364032D01*
X183002260Y-74364033D01*
X182943439Y-74403336D01*
X182919399Y-74419399D01*
X182870586Y-74492455D01*
X182857249Y-74512415D01*
X182856186Y-74511704D01*
X182820433Y-74556063D01*
X182754136Y-74578121D01*
X182686439Y-74560835D01*
X182638833Y-74509693D01*
X182635600Y-74502612D01*
X182580239Y-74419760D01*
X182497544Y-74364505D01*
X182497540Y-74364503D01*
X182424627Y-74350000D01*
X182125000Y-74350000D01*
X182125000Y-74876000D01*
X182122449Y-74884685D01*
X182123738Y-74893647D01*
X182112759Y-74917687D01*
X182105315Y-74943039D01*
X182098474Y-74948966D01*
X182094713Y-74957203D01*
X182072478Y-74971492D01*
X182052511Y-74988794D01*
X182041996Y-74991081D01*
X182035935Y-74994977D01*
X182001000Y-75000000D01*
X181999000Y-75000000D01*
X181931961Y-74980315D01*
X181886206Y-74927511D01*
X181875000Y-74876000D01*
X181875000Y-74350000D01*
X181575373Y-74350000D01*
X181502459Y-74364503D01*
X181502455Y-74364505D01*
X181419760Y-74419760D01*
X181357720Y-74512610D01*
X181356607Y-74511866D01*
X181320991Y-74556060D01*
X181254696Y-74578121D01*
X181186997Y-74560839D01*
X181139389Y-74509699D01*
X181136049Y-74502385D01*
X181135966Y-74502261D01*
X181135966Y-74502260D01*
X181080601Y-74419399D01*
X181025235Y-74382405D01*
X180997739Y-74364033D01*
X180997735Y-74364032D01*
X180924677Y-74349500D01*
X180924674Y-74349500D01*
X180075326Y-74349500D01*
X180075323Y-74349500D01*
X180002264Y-74364032D01*
X180002260Y-74364033D01*
X179943439Y-74403336D01*
X179919399Y-74419399D01*
X179870586Y-74492455D01*
X179857249Y-74512415D01*
X179856186Y-74511704D01*
X179820433Y-74556063D01*
X179754136Y-74578121D01*
X179686439Y-74560835D01*
X179638833Y-74509693D01*
X179635600Y-74502612D01*
X179580239Y-74419760D01*
X179497544Y-74364505D01*
X179497540Y-74364503D01*
X179424627Y-74350000D01*
X179125000Y-74350000D01*
X178875000Y-74350000D01*
X178736698Y-74350000D01*
X178669659Y-74330315D01*
X178623904Y-74277511D01*
X178613960Y-74208353D01*
X178642985Y-74144797D01*
X178659385Y-74129053D01*
X178695888Y-74099942D01*
X178785893Y-74028166D01*
X179028166Y-73785893D01*
X179241789Y-73518018D01*
X179424076Y-73227910D01*
X179572736Y-72919215D01*
X179685897Y-72595817D01*
X179762139Y-72261783D01*
X179763572Y-72249071D01*
X179780512Y-72098720D01*
X181556665Y-72098720D01*
X181556665Y-73411762D01*
X181566760Y-73475500D01*
X181571519Y-73505549D01*
X181629115Y-73618587D01*
X181629117Y-73618589D01*
X181629119Y-73618592D01*
X181718817Y-73708290D01*
X181718819Y-73708291D01*
X181718823Y-73708295D01*
X181820625Y-73760166D01*
X181831863Y-73765892D01*
X181919281Y-73779736D01*
X181922476Y-73780243D01*
X181925640Y-73780744D01*
X181925646Y-73780745D01*
X182288683Y-73780744D01*
X182382469Y-73765891D01*
X182495507Y-73708295D01*
X182519835Y-73683966D01*
X182581155Y-73650481D01*
X182650847Y-73655463D01*
X182695198Y-73683965D01*
X182719114Y-73707881D01*
X182719118Y-73707884D01*
X182832020Y-73765411D01*
X182925679Y-73780244D01*
X182982164Y-73780243D01*
X182982165Y-73780243D01*
X182982165Y-71730245D01*
X183232165Y-71730245D01*
X183232165Y-73780244D01*
X183288644Y-73780244D01*
X183382314Y-73765409D01*
X183382320Y-73765407D01*
X183495206Y-73707888D01*
X183495213Y-73707882D01*
X183519127Y-73683968D01*
X183580449Y-73650481D01*
X183650141Y-73655463D01*
X183694492Y-73683965D01*
X183718817Y-73708290D01*
X183718819Y-73708291D01*
X183718823Y-73708295D01*
X183820625Y-73760166D01*
X183831863Y-73765892D01*
X183919281Y-73779736D01*
X183922476Y-73780243D01*
X183925640Y-73780744D01*
X183925646Y-73780745D01*
X184288683Y-73780744D01*
X184382469Y-73765891D01*
X184495507Y-73708295D01*
X184519484Y-73684317D01*
X184580805Y-73650833D01*
X184650497Y-73655817D01*
X184694845Y-73684317D01*
X184718823Y-73708295D01*
X184820625Y-73760166D01*
X184831863Y-73765892D01*
X184919281Y-73779736D01*
X184922476Y-73780243D01*
X184925640Y-73780744D01*
X184925646Y-73780745D01*
X185288683Y-73780744D01*
X185382469Y-73765891D01*
X185495507Y-73708295D01*
X185585215Y-73618587D01*
X185642811Y-73505549D01*
X185642811Y-73505547D01*
X185642812Y-73505546D01*
X185657664Y-73411769D01*
X185657665Y-73411764D01*
X185657664Y-72098727D01*
X185656832Y-72093475D01*
X189449500Y-72093475D01*
X189449500Y-73406517D01*
X189460292Y-73474657D01*
X189464354Y-73500304D01*
X189521950Y-73613342D01*
X189521952Y-73613344D01*
X189521954Y-73613347D01*
X189611652Y-73703045D01*
X189611654Y-73703046D01*
X189611658Y-73703050D01*
X189723746Y-73760162D01*
X189724698Y-73760647D01*
X189812116Y-73774491D01*
X189815311Y-73774998D01*
X189818475Y-73775499D01*
X189818481Y-73775500D01*
X190181518Y-73775499D01*
X190275304Y-73760646D01*
X190388342Y-73703050D01*
X190412670Y-73678721D01*
X190473990Y-73645236D01*
X190543682Y-73650218D01*
X190588033Y-73678720D01*
X190611949Y-73702636D01*
X190611953Y-73702639D01*
X190724855Y-73760166D01*
X190818514Y-73774999D01*
X190874999Y-73774998D01*
X190875000Y-73774998D01*
X190875000Y-71725000D01*
X191125000Y-71725000D01*
X191125000Y-73774999D01*
X191181479Y-73774999D01*
X191275149Y-73760164D01*
X191275155Y-73760162D01*
X191388041Y-73702643D01*
X191388048Y-73702637D01*
X191411962Y-73678723D01*
X191473284Y-73645236D01*
X191542976Y-73650218D01*
X191587327Y-73678720D01*
X191611652Y-73703045D01*
X191611654Y-73703046D01*
X191611658Y-73703050D01*
X191723746Y-73760162D01*
X191724698Y-73760647D01*
X191812116Y-73774491D01*
X191815311Y-73774998D01*
X191818475Y-73775499D01*
X191818481Y-73775500D01*
X192181518Y-73775499D01*
X192275304Y-73760646D01*
X192388342Y-73703050D01*
X192412319Y-73679072D01*
X192473640Y-73645588D01*
X192543332Y-73650572D01*
X192587680Y-73679072D01*
X192611658Y-73703050D01*
X192723746Y-73760162D01*
X192724698Y-73760647D01*
X192812116Y-73774491D01*
X192815311Y-73774998D01*
X192818475Y-73775499D01*
X192818481Y-73775500D01*
X193181518Y-73775499D01*
X193275304Y-73760646D01*
X193388342Y-73703050D01*
X193412670Y-73678721D01*
X193473990Y-73645236D01*
X193543682Y-73650218D01*
X193588033Y-73678720D01*
X193611949Y-73702636D01*
X193611953Y-73702639D01*
X193724855Y-73760166D01*
X193818514Y-73774999D01*
X193874999Y-73774998D01*
X193875000Y-73774998D01*
X193875000Y-71725000D01*
X194125000Y-71725000D01*
X194125000Y-73774999D01*
X194181479Y-73774999D01*
X194275149Y-73760164D01*
X194275155Y-73760162D01*
X194388041Y-73702643D01*
X194388048Y-73702637D01*
X194411962Y-73678723D01*
X194473284Y-73645236D01*
X194542976Y-73650218D01*
X194587327Y-73678720D01*
X194611652Y-73703045D01*
X194611654Y-73703046D01*
X194611658Y-73703050D01*
X194723746Y-73760162D01*
X194724698Y-73760647D01*
X194812116Y-73774491D01*
X194815311Y-73774998D01*
X194818475Y-73775499D01*
X194818481Y-73775500D01*
X195181518Y-73775499D01*
X195275304Y-73760646D01*
X195388342Y-73703050D01*
X195478050Y-73613342D01*
X195535646Y-73500304D01*
X195535646Y-73500302D01*
X195535647Y-73500301D01*
X195549669Y-73411763D01*
X195550500Y-73406519D01*
X195550499Y-72093482D01*
X195550498Y-72093475D01*
X198949500Y-72093475D01*
X198949500Y-73406517D01*
X198960292Y-73474657D01*
X198964354Y-73500304D01*
X199021950Y-73613342D01*
X199021952Y-73613344D01*
X199021954Y-73613347D01*
X199111652Y-73703045D01*
X199111654Y-73703046D01*
X199111658Y-73703050D01*
X199223746Y-73760162D01*
X199224698Y-73760647D01*
X199312116Y-73774491D01*
X199315311Y-73774998D01*
X199318475Y-73775499D01*
X199318481Y-73775500D01*
X199681518Y-73775499D01*
X199775304Y-73760646D01*
X199888342Y-73703050D01*
X199912670Y-73678721D01*
X199973990Y-73645236D01*
X200043682Y-73650218D01*
X200088033Y-73678720D01*
X200111949Y-73702636D01*
X200111953Y-73702639D01*
X200224855Y-73760166D01*
X200318514Y-73774999D01*
X200374999Y-73774998D01*
X200375000Y-73774998D01*
X200375000Y-71725000D01*
X200625000Y-71725000D01*
X200625000Y-73774999D01*
X200681479Y-73774999D01*
X200775149Y-73760164D01*
X200775155Y-73760162D01*
X200888041Y-73702643D01*
X200888048Y-73702637D01*
X200911962Y-73678723D01*
X200973284Y-73645236D01*
X201042976Y-73650218D01*
X201087327Y-73678720D01*
X201111652Y-73703045D01*
X201111654Y-73703046D01*
X201111658Y-73703050D01*
X201223746Y-73760162D01*
X201224698Y-73760647D01*
X201312116Y-73774491D01*
X201315311Y-73774998D01*
X201318475Y-73775499D01*
X201318481Y-73775500D01*
X201681518Y-73775499D01*
X201775304Y-73760646D01*
X201888342Y-73703050D01*
X201912319Y-73679072D01*
X201973640Y-73645588D01*
X202043332Y-73650572D01*
X202087680Y-73679072D01*
X202111658Y-73703050D01*
X202223746Y-73760162D01*
X202224698Y-73760647D01*
X202312116Y-73774491D01*
X202315311Y-73774998D01*
X202318475Y-73775499D01*
X202318481Y-73775500D01*
X202681518Y-73775499D01*
X202775304Y-73760646D01*
X202888342Y-73703050D01*
X202978050Y-73613342D01*
X203035646Y-73500304D01*
X203035646Y-73500302D01*
X203035647Y-73500301D01*
X203049669Y-73411763D01*
X203050500Y-73406519D01*
X203050499Y-72093482D01*
X203035646Y-71999696D01*
X202978050Y-71886658D01*
X202978046Y-71886654D01*
X202978045Y-71886652D01*
X202888347Y-71796954D01*
X202888344Y-71796952D01*
X202888342Y-71796950D01*
X202786542Y-71745080D01*
X202775301Y-71739352D01*
X202681524Y-71724500D01*
X202318482Y-71724500D01*
X202237519Y-71737323D01*
X202224696Y-71739354D01*
X202111658Y-71796950D01*
X202111657Y-71796951D01*
X202111652Y-71796954D01*
X202087681Y-71820926D01*
X202026358Y-71854411D01*
X201956666Y-71849427D01*
X201912319Y-71820926D01*
X201888347Y-71796954D01*
X201888344Y-71796952D01*
X201888342Y-71796950D01*
X201786542Y-71745080D01*
X201775301Y-71739352D01*
X201681524Y-71724500D01*
X201318482Y-71724500D01*
X201237519Y-71737323D01*
X201224696Y-71739354D01*
X201111658Y-71796950D01*
X201111657Y-71796951D01*
X201111655Y-71796952D01*
X201087326Y-71821281D01*
X201026002Y-71854765D01*
X200956311Y-71849779D01*
X200911963Y-71821278D01*
X200888045Y-71797360D01*
X200888046Y-71797360D01*
X200775144Y-71739833D01*
X200681486Y-71725000D01*
X200625000Y-71725000D01*
X200375000Y-71725000D01*
X200374999Y-71724999D01*
X200318521Y-71725000D01*
X200224849Y-71739835D01*
X200224844Y-71739837D01*
X200111958Y-71797356D01*
X200111949Y-71797363D01*
X200088034Y-71821279D01*
X200026711Y-71854764D01*
X199957019Y-71849780D01*
X199912672Y-71821279D01*
X199888347Y-71796954D01*
X199888344Y-71796952D01*
X199888342Y-71796950D01*
X199786542Y-71745080D01*
X199775301Y-71739352D01*
X199681524Y-71724500D01*
X199318482Y-71724500D01*
X199237519Y-71737323D01*
X199224696Y-71739354D01*
X199111658Y-71796950D01*
X199111657Y-71796951D01*
X199111652Y-71796954D01*
X199021954Y-71886652D01*
X199021951Y-71886657D01*
X198964352Y-71999698D01*
X198949500Y-72093475D01*
X195550498Y-72093475D01*
X195535646Y-71999696D01*
X195478050Y-71886658D01*
X195478046Y-71886654D01*
X195478045Y-71886652D01*
X195388347Y-71796954D01*
X195388344Y-71796952D01*
X195388342Y-71796950D01*
X195286542Y-71745080D01*
X195275301Y-71739352D01*
X195181524Y-71724500D01*
X194818482Y-71724500D01*
X194737519Y-71737323D01*
X194724696Y-71739354D01*
X194611658Y-71796950D01*
X194611657Y-71796951D01*
X194611655Y-71796952D01*
X194587326Y-71821281D01*
X194526002Y-71854765D01*
X194456311Y-71849779D01*
X194411963Y-71821278D01*
X194388045Y-71797360D01*
X194388046Y-71797360D01*
X194275144Y-71739833D01*
X194181486Y-71725000D01*
X194125000Y-71725000D01*
X193875000Y-71725000D01*
X193874999Y-71724999D01*
X193818521Y-71725000D01*
X193724849Y-71739835D01*
X193724844Y-71739837D01*
X193611958Y-71797356D01*
X193611949Y-71797363D01*
X193588034Y-71821279D01*
X193526711Y-71854764D01*
X193457019Y-71849780D01*
X193412672Y-71821279D01*
X193388347Y-71796954D01*
X193388344Y-71796952D01*
X193388342Y-71796950D01*
X193286542Y-71745080D01*
X193275301Y-71739352D01*
X193181524Y-71724500D01*
X192818482Y-71724500D01*
X192737519Y-71737323D01*
X192724696Y-71739354D01*
X192611658Y-71796950D01*
X192611657Y-71796951D01*
X192611652Y-71796954D01*
X192587681Y-71820926D01*
X192526358Y-71854411D01*
X192456666Y-71849427D01*
X192412319Y-71820926D01*
X192388347Y-71796954D01*
X192388344Y-71796952D01*
X192388342Y-71796950D01*
X192286542Y-71745080D01*
X192275301Y-71739352D01*
X192181524Y-71724500D01*
X191818482Y-71724500D01*
X191737519Y-71737323D01*
X191724696Y-71739354D01*
X191611658Y-71796950D01*
X191611657Y-71796951D01*
X191611655Y-71796952D01*
X191587326Y-71821281D01*
X191526002Y-71854765D01*
X191456311Y-71849779D01*
X191411963Y-71821278D01*
X191388045Y-71797360D01*
X191388046Y-71797360D01*
X191275144Y-71739833D01*
X191181486Y-71725000D01*
X191125000Y-71725000D01*
X190875000Y-71725000D01*
X190874999Y-71724999D01*
X190818521Y-71725000D01*
X190724849Y-71739835D01*
X190724844Y-71739837D01*
X190611958Y-71797356D01*
X190611949Y-71797363D01*
X190588034Y-71821279D01*
X190526711Y-71854764D01*
X190457019Y-71849780D01*
X190412672Y-71821279D01*
X190388347Y-71796954D01*
X190388344Y-71796952D01*
X190388342Y-71796950D01*
X190286542Y-71745080D01*
X190275301Y-71739352D01*
X190181524Y-71724500D01*
X189818482Y-71724500D01*
X189737519Y-71737323D01*
X189724696Y-71739354D01*
X189611658Y-71796950D01*
X189611657Y-71796951D01*
X189611652Y-71796954D01*
X189521954Y-71886652D01*
X189521951Y-71886657D01*
X189464352Y-71999698D01*
X189449500Y-72093475D01*
X185656832Y-72093475D01*
X185642811Y-72004941D01*
X185585215Y-71891903D01*
X185585211Y-71891899D01*
X185585210Y-71891897D01*
X185495512Y-71802199D01*
X185495509Y-71802197D01*
X185495507Y-71802195D01*
X185418682Y-71763050D01*
X185382466Y-71744597D01*
X185288689Y-71729745D01*
X184925647Y-71729745D01*
X184844684Y-71742568D01*
X184831861Y-71744599D01*
X184718823Y-71802195D01*
X184718822Y-71802196D01*
X184718817Y-71802199D01*
X184694846Y-71826171D01*
X184633523Y-71859656D01*
X184563831Y-71854672D01*
X184519484Y-71826171D01*
X184495512Y-71802199D01*
X184495509Y-71802197D01*
X184495507Y-71802195D01*
X184418682Y-71763050D01*
X184382466Y-71744597D01*
X184288689Y-71729745D01*
X183925647Y-71729745D01*
X183844684Y-71742568D01*
X183831861Y-71744599D01*
X183718823Y-71802195D01*
X183718822Y-71802196D01*
X183718820Y-71802197D01*
X183694491Y-71826526D01*
X183633167Y-71860010D01*
X183563476Y-71855024D01*
X183519128Y-71826523D01*
X183495210Y-71802605D01*
X183495211Y-71802605D01*
X183382309Y-71745078D01*
X183288651Y-71730245D01*
X183232165Y-71730245D01*
X182982165Y-71730245D01*
X182982164Y-71730244D01*
X182925686Y-71730245D01*
X182832014Y-71745080D01*
X182832009Y-71745082D01*
X182719123Y-71802601D01*
X182719114Y-71802608D01*
X182695199Y-71826524D01*
X182633876Y-71860009D01*
X182564184Y-71855025D01*
X182519837Y-71826524D01*
X182495512Y-71802199D01*
X182495509Y-71802197D01*
X182495507Y-71802195D01*
X182418682Y-71763050D01*
X182382466Y-71744597D01*
X182288689Y-71729745D01*
X181925647Y-71729745D01*
X181844684Y-71742568D01*
X181831861Y-71744599D01*
X181718823Y-71802195D01*
X181718822Y-71802196D01*
X181718817Y-71802199D01*
X181629119Y-71891897D01*
X181629116Y-71891902D01*
X181571517Y-72004943D01*
X181556665Y-72098720D01*
X179780512Y-72098720D01*
X179782624Y-72079971D01*
X179782624Y-72079970D01*
X179791668Y-71999696D01*
X179800500Y-71921312D01*
X179800500Y-71578688D01*
X179765872Y-71271347D01*
X179762141Y-71238231D01*
X179762140Y-71238226D01*
X179762139Y-71238217D01*
X179685897Y-70904183D01*
X179572736Y-70580785D01*
X179424076Y-70272090D01*
X179241789Y-69981982D01*
X179028166Y-69714107D01*
X178785893Y-69471834D01*
X178518018Y-69258211D01*
X178227910Y-69075924D01*
X178227907Y-69075922D01*
X177919216Y-68927264D01*
X177595818Y-68814103D01*
X177595816Y-68814102D01*
X177345659Y-68757005D01*
X177294772Y-68745390D01*
X177233795Y-68711282D01*
X177200937Y-68649621D01*
X177206632Y-68579983D01*
X177249072Y-68524480D01*
X177314782Y-68500732D01*
X177322366Y-68500500D01*
X179832665Y-68500500D01*
X179899704Y-68520185D01*
G37*
%TD.AperFunction*%
%TD*%
M02*
